<svg width="35" height="35" viewBox="0 0 35 35" fill="none" xmlns="http://www.w3.org/2000/svg">
<path d="M2.40933 8.33512C2.33981 7.54651 2.38572 6.75244 2.54576 5.97717C2.7598 5.01169 3.18023 4.21018 3.79503 3.5956C4.65644 2.73353 5.86789 2.26106 7.3911 2.1911C8.12899 2.16334 8.86775 2.21384 9.5947 2.3413L9.78841 1.24005C8.98188 1.09859 8.16244 1.04284 7.34432 1.07411C5.52922 1.15784 4.06898 1.74006 3.00467 2.80524C2.23596 3.57374 1.71386 4.56065 1.45347 5.73973C1.45303 5.74192 1.45238 5.74432 1.45194 5.74651C1.26873 6.62979 1.21647 7.53493 1.29584 8.43329L2.40933 8.33512Z" fill="#3D8DFD"/>
<path d="M4.86109 15.6398C4.52439 15.0255 4.21568 14.4081 3.94327 13.8042L2.92422 14.264C3.20844 14.8939 3.53027 15.5377 3.88095 16.1772L4.86109 15.6398Z" fill="#3D8DFD"/>
<path d="M1.62094 10.4952C1.76108 11.0941 1.9314 11.6857 2.13123 12.2675L3.18919 11.9061C3.00161 11.3599 2.84135 10.8048 2.70995 10.2429L1.62094 10.4952Z" fill="#3D8DFD"/>
<path d="M9.22653 21.7965C9.17777 21.7407 9.12924 21.6854 9.08092 21.6296L8.23721 22.3627C8.28662 22.4198 8.33625 22.4768 8.38654 22.5339C8.67032 22.857 8.9657 23.1828 9.26457 23.5024C9.39859 23.6454 9.53392 23.7882 9.67079 23.9303L10.4765 23.1553C10.3431 23.0169 10.2112 22.878 10.0812 22.7388C9.78994 22.4276 9.50266 22.1104 9.22653 21.7965Z" fill="#3D8DFD"/>
<path d="M6.8865 20.7201L7.7689 20.0341C7.68779 19.9295 7.60755 19.825 7.52797 19.7201C7.18756 19.2723 6.85808 18.8178 6.54893 18.3694L5.62849 19.0039C5.94769 19.4667 6.28723 19.9352 6.63791 20.3963C6.71968 20.5046 6.80276 20.6123 6.8865 20.7201Z" fill="#3D8DFD"/>
<path d="M10.6216 24.8874C11.6778 25.918 12.7892 26.8905 13.9508 27.8003C15.5262 29.0401 17.2077 30.139 18.976 31.0835C20.0089 31.6333 21.0793 32.1095 22.179 32.5087L21.158 32.801L21.4654 33.8758L24.3238 33.0579C24.6205 32.9731 24.7921 32.6635 24.7073 32.3666L23.9624 29.7631L22.8874 30.0705L23.3609 31.7245C22.0262 31.3021 20.7338 30.757 19.5003 30.0961C17.7904 29.1827 16.1644 28.1201 14.6412 26.9211C13.5111 26.0361 12.4297 25.0901 11.4021 24.0876L10.6216 24.8874Z" fill="#3D8DFD"/>
<path d="M33.5232 25.0701C33.2949 23.6442 32.8234 22.1103 32.1213 20.511L31.0977 20.9603C31.7615 22.4726 32.2059 23.9151 32.4191 25.2466C32.8192 27.7464 32.3798 29.7183 31.1486 30.9498C30.5389 31.5596 29.7459 31.9776 28.7915 32.1928C28.02 32.3664 27.1452 32.4077 26.1909 32.3163C25.9557 32.2938 25.713 32.2625 25.4694 32.224L25.295 33.3281C25.5604 33.3701 25.826 33.404 26.0842 33.4289C26.4478 33.4637 26.802 33.4812 27.1468 33.4812C27.7823 33.4851 28.4164 33.4184 29.0373 33.2831C30.2013 33.0205 31.1775 32.5015 31.939 31.74C33.4342 30.2447 33.9819 27.9386 33.5232 25.0701Z" fill="#3D8DFD"/>
<path d="M30.8132 17.9224L29.8421 18.4759C30.1112 18.9482 30.365 19.4239 30.5966 19.8898L31.5979 19.3929C31.3572 18.9075 31.0933 18.413 30.8132 17.9224Z" fill="#3D8DFD"/>
<path d="M28.2185 14.0366L27.3304 14.7157C27.7471 15.2607 28.1538 15.8237 28.5397 16.3898L29.4636 15.7603C29.0662 15.1774 28.6473 14.5974 28.2185 14.0366Z" fill="#3D8DFD"/>
<path d="M25.455 10.8059L24.6467 11.5777C25.1198 12.0733 25.5857 12.5891 26.0313 13.1101L26.8809 12.3836C26.422 11.8473 25.9423 11.3164 25.455 10.8059Z" fill="#3D8DFD"/>
<path d="M11.6028 4.99668L12.696 4.76296L12.335 3.07446C13.3609 3.43827 14.3592 3.87663 15.3214 4.38539C17.009 5.27653 18.6155 6.31329 20.1221 7.48473C20.8324 8.03284 21.548 8.62774 22.2487 9.25237C22.6372 9.59934 23.0286 9.96271 23.4116 10.3326C23.5776 10.4929 23.747 10.6597 23.9158 10.8281L24.7062 10.0377C24.533 9.86476 24.359 9.69336 24.188 9.52851C23.7949 9.14852 23.3928 8.7751 22.9934 8.41807C22.2728 7.77594 21.5367 7.16399 20.8071 6.60101C20.0965 6.04853 19.3608 5.52512 18.6061 5.0297C19.0348 4.78789 19.4655 4.55898 19.8873 4.34931L19.3899 3.34819C18.8884 3.59699 18.3763 3.87116 17.8682 4.16238L18.2233 4.78199C17.448 4.28809 16.655 3.82656 15.8439 3.39695C15.1213 3.01543 14.3799 2.67196 13.6219 2.36718L14.6069 2.15686L14.3738 1.06348L11.4666 1.68483C11.1647 1.74933 10.9723 2.04623 11.0368 2.34816L11.6028 4.99668Z" fill="#3D8DFD"/>
<path d="M1.23724 25.1577C1.09579 25.9643 1.04004 26.7837 1.07152 27.6018C1.15482 29.4167 1.73704 30.8767 2.80244 31.9417C3.57093 32.7104 4.5585 33.232 5.73693 33.4922C5.73911 33.4924 5.74152 33.4931 5.74414 33.4935C6.36025 33.6214 6.98838 33.6859 7.61804 33.6859C7.88893 33.6859 8.15982 33.6741 8.43048 33.6503L8.33232 32.5364C7.54371 32.6063 6.74942 32.5602 5.97436 32.3997C5.00866 32.1863 4.20737 31.7663 3.59279 31.1513C2.73094 30.2895 2.25826 29.0778 2.1883 27.555C2.16053 26.8169 2.2106 26.0784 2.3385 25.351L1.23724 25.1577Z" fill="#3D8DFD"/>
<path d="M14.2612 32.0216C14.8915 31.7376 15.5352 31.4153 16.1742 31.0651L15.6373 30.085C15.0231 30.4214 14.4055 30.7304 13.8014 31.0026L14.2612 32.0216Z" fill="#3D8DFD"/>
<path d="M10.4924 33.3251C11.0915 33.1849 11.6831 33.0146 12.2647 32.8148L11.9033 31.7566C11.3573 31.9444 10.8022 32.1042 10.2401 32.2361L10.4924 33.3251Z" fill="#3D8DFD"/>
<path d="M21.6269 25.8648L22.3596 26.7092C22.4169 26.6598 22.4739 26.6099 22.5312 26.5596C22.8546 26.2754 23.1806 25.9796 23.4998 25.6816C23.6427 25.5476 23.7855 25.4123 23.9278 25.2752L23.1526 24.4697C23.0142 24.6033 22.8753 24.7347 22.7359 24.865C22.4252 25.1556 22.1082 25.4431 21.7933 25.7194C21.738 25.7682 21.6827 25.8167 21.6269 25.8648Z" fill="#3D8DFD"/>
<path d="M18.3667 28.3965L19.0012 29.3171C19.464 28.9984 19.9325 28.6586 20.3939 28.3079C20.5019 28.226 20.6096 28.1431 20.7174 28.0594L20.0314 27.1765C19.9271 27.2576 19.8223 27.3381 19.7176 27.4179C19.2696 27.7583 18.8155 28.0876 18.3667 28.3965Z" fill="#3D8DFD"/>
<path d="M25.244 2.52648C27.7436 2.12682 29.7157 2.56605 30.9473 3.79739C31.5566 4.40672 31.9748 5.19992 32.1902 6.15426C32.3636 6.92603 32.4053 7.801 32.3135 8.75511C32.2912 8.98993 32.2604 9.23239 32.2215 9.47638L33.3256 9.65107C33.3675 9.38478 33.4014 9.11914 33.4263 8.86181C33.5291 7.78985 33.4801 6.79638 33.2805 5.90873C33.0182 4.74473 32.4991 3.7681 31.7376 3.0066C30.2422 1.51137 27.9354 0.963475 25.0676 1.4226C23.6423 1.65064 22.1079 2.12245 20.5084 2.82426L20.9577 3.84812C22.47 3.18435 23.9121 2.73965 25.244 2.52648Z" fill="#3D8DFD"/>
<path d="M13.107 8.91457L12.3803 8.06519C11.844 8.5241 11.3134 9.00378 10.8029 9.49045L11.5749 10.2992C12.0707 9.82584 12.5865 9.35993 13.107 8.91457Z" fill="#3D8DFD"/>
<path d="M16.3874 6.40636L15.7575 5.48242C15.1747 5.88012 14.5946 6.29902 14.034 6.72754L14.7131 7.61562C15.2575 7.19913 15.8209 6.79225 16.3874 6.40636Z" fill="#3D8DFD"/>
<path d="M33.0553 10.6224C32.9705 10.3255 32.6609 10.1539 32.3642 10.2387L29.7605 10.9838L30.0679 12.0586L31.7221 11.5853C31.2995 12.9198 30.7542 14.2124 30.0933 15.4459C29.1798 17.1558 28.1173 18.7818 26.9183 20.305C26.0331 21.4351 25.0872 22.5163 24.0846 23.5438L24.8846 24.3246C25.9152 23.2684 26.8875 22.1571 27.7974 20.9955C29.0373 19.4202 30.1361 17.7385 31.0806 15.9702C31.6303 14.9371 32.1067 13.8672 32.5059 12.7672L32.7982 13.7882L33.873 13.4808L33.0553 10.6224Z" fill="#3D8DFD"/>
<path d="M2.22852 23.9218C2.26766 23.9218 2.30701 23.9176 2.34571 23.9091L4.99379 23.3433L4.76007 22.2499L3.07179 22.6111C3.43559 21.585 3.87373 20.587 4.38271 19.6248C5.27342 17.9369 6.31062 16.3304 7.48183 14.8238C8.02973 14.1137 8.62463 13.3981 9.24948 12.6972C9.59645 12.3085 9.95982 11.9173 10.3297 11.5345C10.4918 11.3668 10.6584 11.1971 10.8254 11.0301L10.035 10.2397C9.86362 10.4112 9.69221 10.5852 9.52583 10.7577C9.14563 11.1512 8.77221 11.5531 8.41518 11.953C7.7724 12.6733 7.16088 13.4097 6.59812 14.1391C5.38733 15.697 4.31515 17.3573 3.39427 19.1022C3.01254 19.8244 2.66885 20.566 2.36451 21.3242L2.15397 20.3386L1.06059 20.5721L1.68194 23.4793C1.73704 23.7373 1.96485 23.9214 2.22852 23.9218Z" fill="#3D8DFD"/>
<path d="M12.6459 13.0408V21.9081C12.6459 22.3812 12.9114 23.0474 14.2573 23.5343C15.1287 23.8496 16.268 24.0234 17.4779 24.0234H17.5212C18.2202 24.0234 18.9176 23.9595 19.605 23.8329C21.3475 23.4987 22.3578 22.7971 22.3578 21.9081V13.0408C22.3578 12.5674 22.062 11.9017 20.7159 11.4144C19.8442 11.0991 18.6896 10.9253 17.4782 10.9253C16.2663 10.9253 15.1322 11.0991 14.2605 11.4144C12.9146 11.9015 12.6459 12.5674 12.6459 13.0408ZM19.3958 22.7343C18.7633 22.8515 18.1214 22.9088 17.4784 22.9055C16.3924 22.9055 15.3935 22.7553 14.641 22.4833C13.9048 22.2168 13.7638 21.9496 13.7638 21.9081V20.3479C13.9228 20.4321 14.0878 20.5047 14.2573 20.5648C15.1287 20.8803 16.268 21.0539 17.4801 21.0539C18.6925 21.0539 19.849 20.8803 20.7205 20.5648C20.9116 20.4957 21.0303 20.4229 21.24 20.3475V21.9079C21.24 22.0128 20.7874 22.4674 19.3958 22.7343ZM21.24 18.9384C21.24 18.9804 21.0718 19.2473 20.3359 19.5138C19.5832 19.7863 18.5641 19.936 17.4782 19.936C16.3924 19.936 15.3935 19.7863 14.641 19.5138C13.9048 19.2473 13.7638 18.9802 13.7638 18.9384V17.3988C13.9228 17.4832 14.0878 17.5558 14.2573 17.6159C15.1287 17.9314 16.268 18.105 17.4801 18.105C18.6925 18.105 19.849 17.9314 20.7205 17.6159C20.9116 17.5468 21.0303 17.474 21.24 17.3988V18.9384ZM20.3359 16.5647C19.5832 16.8371 18.5641 16.9869 17.4782 16.9869C16.3924 16.9869 15.3935 16.8371 14.641 16.5647C13.9048 16.2984 13.7638 16.0312 13.7638 15.9897V14.4497C13.923 14.5338 14.0878 14.6064 14.2573 14.6668C15.129 14.9822 16.2683 15.1558 17.4801 15.1558C18.692 15.1558 19.8488 14.982 20.7205 14.6668C20.9116 14.5975 21.0303 14.5246 21.24 14.4497V15.9897C21.24 16.0312 21.0718 16.2984 20.3359 16.5647ZM14.6206 12.4656C15.3734 12.1929 16.3859 12.0432 17.4714 12.0432C18.5567 12.0432 19.5694 12.1929 20.3221 12.4656C21.0578 12.7321 21.2129 12.999 21.2129 13.0408C21.2129 13.0821 21.0578 13.3491 20.3221 13.6156C19.5694 13.8882 18.5567 14.038 17.4714 14.038C16.3859 14.038 15.3734 13.8878 14.6206 13.6156C13.8845 13.3491 13.7297 13.0821 13.7297 13.0408C13.7297 12.999 13.8847 12.7321 14.6209 12.4656H14.6206Z" fill="#3D8DFD"/>
</svg>
