<svg width="90" height="90" viewBox="0 0 90 90" fill="none" xmlns="http://www.w3.org/2000/svg">
<path d="M76.4102 30.9375H34.2227C31.8927 30.9375 30.0039 32.8263 30.0039 35.1562V59.0625C30.0039 61.3925 31.8927 63.2812 34.2227 63.2812H76.4102C78.7401 63.2812 80.6289 61.3925 80.6289 59.0625V35.1562C80.6289 32.8263 78.7401 30.9375 76.4102 30.9375Z" fill="#EEE5FD" fill-opacity="0.17"/>
<path d="M61.4965 80.1563H49.1342C48.8138 80.1545 48.5026 80.263 48.2527 80.4634C48.0028 80.6639 47.8294 80.9442 47.7617 81.2574L46.1318 88.5938H64.4989L62.869 81.2574C62.8013 80.9442 62.6279 80.6639 62.378 80.4634C62.1281 80.263 61.8169 80.1545 61.4965 80.1563Z" fill="#EEE5FD" fill-opacity="0.17"/>
<path d="M86.2355 82.9561L81.2124 68.8936C80.9189 68.0748 80.3798 67.3665 79.6689 66.8654C78.9579 66.3643 78.1096 66.0948 77.2397 66.0938H33.3915C32.5216 66.0941 31.6732 66.3633 30.9623 66.8645C30.2514 67.3657 29.7128 68.0744 29.4202 68.8936L24.3957 82.9561C24.1683 83.5927 24.0973 84.2747 24.1885 84.9445C24.2798 85.6144 24.5307 86.2525 24.9201 86.8051C25.3095 87.3577 25.826 87.8086 26.4261 88.1199C27.0262 88.4312 27.6923 88.5937 28.3683 88.5938H43.2493L45.0155 80.647C45.2198 79.7079 45.7403 78.8674 46.4901 78.2661C47.2398 77.6648 48.1733 77.3392 49.1344 77.3438H61.4968C62.4578 77.3392 63.3913 77.6648 64.1411 78.2661C64.8909 78.8674 65.4114 79.7079 65.6157 80.647L67.3819 88.5938H82.2657C82.9415 88.5932 83.6072 88.4304 84.207 88.1189C84.8067 87.8075 85.3228 87.3565 85.7119 86.8039C86.101 86.2514 86.3516 85.6135 86.4428 84.9438C86.5339 84.2742 86.4628 83.5925 86.2355 82.9561V82.9561Z" fill="#EEE5FD" fill-opacity="0.17"/>
<path d="M54.3696 39.375C57.3217 39.3409 60.1398 38.1373 62.2058 36.0284C64.2718 33.9194 65.417 31.0772 65.3904 28.125C65.3956 25.6519 64.5868 23.2459 63.0889 21.278C61.591 19.3102 59.4871 17.8899 57.102 17.2364C56.8726 14.4735 55.62 11.8958 53.5895 10.0082C51.5591 8.1205 48.897 7.05889 46.1248 7.03125C45.0546 7.03048 43.9905 7.19023 42.9677 7.50516C41.3142 5.59277 39.2687 4.05839 36.9699 3.00608C34.6712 1.95378 32.1731 1.40816 29.6449 1.40625C25.9881 1.42615 22.4255 2.5674 19.4378 4.67596C16.4501 6.78453 14.1812 9.7589 12.9373 13.1977C10.19 14.0249 7.78582 15.7221 6.08657 18.0338C4.38732 20.3455 3.48498 23.1467 3.51539 26.0156C3.56719 29.4179 4.89816 32.6759 7.2434 35.1413C9.58864 37.6067 12.7762 39.0986 16.1716 39.3202V43.7934C14.846 44.1357 13.6908 44.9497 12.9224 46.0828C12.154 47.216 11.8252 48.5904 11.9977 49.9486C12.1702 51.3068 12.8322 52.5554 13.8594 53.4605C14.8867 54.3655 16.2088 54.8648 17.5779 54.8648C18.947 54.8648 20.2691 54.3655 21.2963 53.4605C22.3236 52.5554 22.9855 51.3068 23.1581 49.9486C23.3306 48.5904 23.0018 47.216 22.2334 46.0828C21.465 44.9497 20.3098 44.1357 18.9841 43.7934V39.375H33.0466V43.7934C31.721 44.1357 30.5657 44.9497 29.7974 46.0828C29.029 47.216 28.7002 48.5904 28.8727 49.9486C29.0452 51.3068 29.7072 52.5554 30.7344 53.4605C31.7617 54.3655 33.0838 54.8648 34.4529 54.8648C35.822 54.8648 37.1441 54.3655 38.1713 53.4605C39.1986 52.5554 39.8605 51.3068 40.0331 49.9486C40.2056 48.5904 39.8768 47.216 39.1084 46.0828C38.34 44.9497 37.1848 44.1357 35.8591 43.7934V39.375H49.9216V43.7934C48.596 44.1357 47.4408 44.9497 46.6724 46.0828C45.904 47.216 45.5752 48.5904 45.7477 49.9486C45.9202 51.3068 46.5822 52.5554 47.6094 53.4605C48.6367 54.3655 49.9588 54.8648 51.3279 54.8648C52.697 54.8648 54.0191 54.3655 55.0463 53.4605C56.0736 52.5554 56.7356 51.3068 56.9081 49.9486C57.0806 48.5904 56.7518 47.216 55.9834 46.0828C55.215 44.9497 54.0598 44.1357 52.7341 43.7934V39.375H54.3696ZM37.2654 49.2188C37.2654 49.775 37.1004 50.3188 36.7914 50.7813C36.4824 51.2438 36.0431 51.6043 35.5292 51.8172C35.0153 52.03 34.4498 52.0857 33.9042 51.9772C33.3586 51.8687 32.8575 51.6008 32.4642 51.2075C32.0708 50.8142 31.803 50.313 31.6944 49.7674C31.5859 49.2219 31.6416 48.6564 31.8545 48.1425C32.0674 47.6285 32.4278 47.1893 32.8903 46.8802C33.3529 46.5712 33.8966 46.4062 34.4529 46.4062C35.1988 46.4062 35.9142 46.7026 36.4416 47.23C36.9691 47.7575 37.2654 48.4728 37.2654 49.2188ZM54.1404 49.2188C54.1404 49.775 53.9754 50.3188 53.6664 50.7813C53.3574 51.2438 52.9181 51.6043 52.4042 51.8172C51.8903 52.03 51.3248 52.0857 50.7792 51.9772C50.2336 51.8687 49.7325 51.6008 49.3392 51.2075C48.9458 50.8142 48.678 50.313 48.5694 49.7674C48.4609 49.2219 48.5166 48.6564 48.7295 48.1425C48.9424 47.6285 49.3028 47.1893 49.7654 46.8802C50.2279 46.5712 50.7716 46.4062 51.3279 46.4062C52.0738 46.4062 52.7892 46.7026 53.3166 47.23C53.8441 47.7575 54.1404 48.4728 54.1404 49.2188ZM6.32789 26.0156C6.29574 23.6481 7.07061 21.3402 8.52496 19.4718C9.97931 17.6034 12.0265 16.2858 14.3295 15.7359C14.566 15.6812 14.7844 15.5662 14.9633 15.4021C15.1422 15.238 15.2755 15.0303 15.3504 14.7994C16.3055 11.7492 18.2044 9.08112 20.7734 7.17958C23.3424 5.27804 26.4488 4.24129 29.6449 4.21875C31.9194 4.22302 34.1625 4.74893 36.2018 5.75603C38.2411 6.76313 40.0223 8.22459 41.4082 10.028C41.5978 10.2704 41.8617 10.4438 42.1594 10.5218C42.4572 10.5998 42.7722 10.578 43.0563 10.4597C44.0284 10.0536 45.0713 9.84423 46.1248 9.84375C48.3236 9.87415 50.4212 10.7733 51.9594 12.345C53.4975 13.9166 54.3514 16.033 54.3345 18.232V18.3923C54.3346 18.7299 54.4561 19.0561 54.6769 19.3114C54.8976 19.5668 55.2028 19.7342 55.5368 19.7831C57.6062 20.132 59.4717 21.2385 60.7703 22.8871C62.0688 24.5357 62.7074 26.6085 62.5618 28.7021C62.4161 30.7956 61.4967 32.7601 59.9824 34.213C58.4681 35.666 56.4674 36.5035 54.3696 36.5625H17.284C14.4337 36.6126 11.6798 35.5305 9.62609 33.5535C7.57234 31.5764 6.38627 28.8657 6.32789 26.0156V26.0156ZM20.3904 49.2188C20.3904 49.775 20.2254 50.3188 19.9164 50.7813C19.6074 51.2438 19.1681 51.6043 18.6542 51.8172C18.1403 52.03 17.5748 52.0857 17.0292 51.9772C16.4836 51.8687 15.9825 51.6008 15.5892 51.2075C15.1958 50.8142 14.928 50.313 14.8194 49.7674C14.7109 49.2219 14.7666 48.6564 14.9795 48.1425C15.1924 47.6285 15.5528 47.1893 16.0154 46.8802C16.4779 46.5712 17.0216 46.4062 17.5779 46.4062C18.3238 46.4062 19.0392 46.7026 19.5666 47.23C20.0941 47.7575 20.3904 48.4728 20.3904 49.2188Z" fill="#913BFF" fill-opacity="0.23"/>
</svg>
