<svg width="49" height="49" viewBox="0 0 49 49" fill="none" xmlns="http://www.w3.org/2000/svg">
<path d="M41.6011 16.8438H18.6323C17.3638 16.8438 16.3354 17.8721 16.3354 19.1406V32.1562C16.3354 33.4248 17.3638 34.4531 18.6323 34.4531H41.6011C42.8696 34.4531 43.8979 33.4248 43.8979 32.1562V19.1406C43.8979 17.8721 42.8696 16.8438 41.6011 16.8438Z" fill="#EEE5FD"/>
<path d="M33.4819 43.6406H26.7513C26.5769 43.6397 26.4074 43.6987 26.2714 43.8079C26.1353 43.917 26.0409 44.0696 26.0041 44.2401L25.1167 48.2344H35.1165L34.2292 44.2401C34.1923 44.0696 34.0979 43.917 33.9618 43.8079C33.8258 43.6987 33.6563 43.6397 33.4819 43.6406Z" fill="#EEE5FD"/>
<path d="M46.9506 45.165L44.2158 37.5087C44.056 37.0629 43.7625 36.6773 43.3754 36.4045C42.9883 36.1317 42.5265 35.985 42.0529 35.9844H18.18C17.7064 35.9846 17.2444 36.1311 16.8574 36.404C16.4703 36.6769 16.1771 37.0628 16.0178 37.5087L13.2822 45.165C13.1585 45.5116 13.1198 45.8829 13.1695 46.2476C13.2192 46.6123 13.3558 46.9597 13.5678 47.2605C13.7798 47.5614 14.061 47.8069 14.3877 47.9764C14.7144 48.1459 15.0771 48.2343 15.4451 48.2344H23.547L24.5086 43.9078C24.6198 43.3965 24.9032 42.9389 25.3114 42.6115C25.7196 42.2842 26.2279 42.1069 26.7511 42.1094H33.4817C34.005 42.1069 34.5132 42.2842 34.9214 42.6115C35.3296 42.9389 35.613 43.3965 35.7242 43.9078L36.6859 48.2344H44.7892C45.1572 48.2341 45.5197 48.1454 45.8462 47.9759C46.1727 47.8063 46.4537 47.5607 46.6655 47.2599C46.8774 46.9591 47.0138 46.6118 47.0634 46.2472C47.113 45.8826 47.0744 45.5115 46.9506 45.165Z" fill="#EEE5FD"/>
<path d="M29.6013 21.4375C31.2085 21.4189 32.7428 20.7637 33.8676 19.6154C34.9924 18.4672 35.616 16.9198 35.6015 15.3125C35.6043 13.966 35.164 12.6561 34.3484 11.5847C33.5329 10.5133 32.3875 9.74008 31.0889 9.38427C30.964 7.88004 30.282 6.47662 29.1766 5.44889C28.0711 4.42116 26.6217 3.84317 25.1124 3.82812C24.5298 3.82771 23.9504 3.91468 23.3936 4.08614C22.4933 3.04495 21.3796 2.20957 20.1281 1.63665C18.8766 1.06372 17.5165 0.766666 16.1401 0.765625C14.1491 0.776462 12.2095 1.39781 10.5828 2.5458C8.95621 3.6938 7.72091 5.31318 7.04367 7.18539C5.54794 7.63575 4.23899 8.55979 3.31384 9.8184C2.38869 11.077 1.89742 12.6021 1.91398 14.1641C1.94218 16.0164 2.66682 17.7902 3.94367 19.1325C5.22053 20.4747 6.95597 21.287 8.8046 21.4076V23.8431C8.08288 24.0294 7.4539 24.4726 7.03555 25.0895C6.6172 25.7065 6.43822 26.4548 6.53214 27.1942C6.62606 27.9337 6.98644 28.6135 7.54574 29.1062C8.10503 29.599 8.82484 29.8708 9.57023 29.8708C10.3156 29.8708 11.0354 29.599 11.5947 29.1062C12.154 28.6135 12.5144 27.9337 12.6083 27.1942C12.7022 26.4548 12.5233 25.7065 12.1049 25.0895C11.6866 24.4726 11.0576 24.0294 10.3359 23.8431V21.4375H17.9921V23.8431C17.2704 24.0294 16.6414 24.4726 16.223 25.0895C15.8047 25.7065 15.6257 26.4548 15.7196 27.1942C15.8136 27.9337 16.1739 28.6135 16.7332 29.1062C17.2925 29.599 18.0123 29.8708 18.7577 29.8708C19.5031 29.8708 20.2229 29.599 20.7822 29.1062C21.3415 28.6135 21.7019 27.9337 21.7958 27.1942C21.8897 26.4548 21.7108 25.7065 21.2924 25.0895C20.8741 24.4726 20.2451 24.0294 19.5234 23.8431V21.4375H27.1796V23.8431C26.4579 24.0294 25.8289 24.4726 25.4106 25.0895C24.9922 25.7065 24.8132 26.4548 24.9071 27.1942C25.0011 27.9337 25.3614 28.6135 25.9207 29.1062C26.48 29.599 27.1998 29.8708 27.9452 29.8708C28.6906 29.8708 29.4104 29.599 29.9697 29.1062C30.529 28.6135 30.8894 27.9337 30.9833 27.1942C31.0772 26.4548 30.8983 25.7065 30.4799 25.0895C30.0616 24.4726 29.4326 24.0294 28.7109 23.8431V21.4375H29.6013ZM20.289 26.7969C20.289 27.0997 20.1992 27.3958 20.0309 27.6476C19.8627 27.8994 19.6235 28.0957 19.3437 28.2116C19.0639 28.3275 18.756 28.3578 18.459 28.2987C18.162 28.2396 17.8891 28.0938 17.675 27.8796C17.4608 27.6655 17.315 27.3926 17.2559 27.0956C17.1968 26.7986 17.2271 26.4907 17.343 26.2109C17.4589 25.9311 17.6552 25.6919 17.907 25.5237C18.1588 25.3554 18.4549 25.2656 18.7577 25.2656C19.1638 25.2656 19.5533 25.427 19.8405 25.7141C20.1277 26.0013 20.289 26.3908 20.289 26.7969ZM29.4765 26.7969C29.4765 27.0997 29.3867 27.3958 29.2184 27.6476C29.0502 27.8994 28.811 28.0957 28.5312 28.2116C28.2514 28.3275 27.9435 28.3578 27.6465 28.2987C27.3495 28.2396 27.0766 28.0938 26.8625 27.8796C26.6483 27.6655 26.5025 27.3926 26.4434 27.0956C26.3843 26.7986 26.4146 26.4907 26.5305 26.2109C26.6464 25.9311 26.8427 25.6919 27.0945 25.5237C27.3463 25.3554 27.6424 25.2656 27.9452 25.2656C28.3513 25.2656 28.7408 25.427 29.028 25.7141C29.3152 26.0013 29.4765 26.3908 29.4765 26.7969ZM3.44523 14.1641C3.42773 12.8751 3.8496 11.6186 4.64141 10.6013C5.43323 9.58406 6.54779 8.86671 7.80164 8.56734C7.93042 8.53756 8.0493 8.47495 8.14671 8.38559C8.24412 8.29624 8.31673 8.18318 8.35748 8.05744C8.87749 6.3968 9.91133 4.94416 11.31 3.90888C12.7087 2.8736 14.4 2.30914 16.1401 2.29688C17.3784 2.2992 18.5996 2.58553 19.7099 3.13384C20.8202 3.68215 21.7899 4.47783 22.5445 5.45967C22.6478 5.59164 22.7914 5.6861 22.9535 5.72855C23.1156 5.77101 23.2871 5.75912 23.4418 5.69472C23.971 5.47362 24.5389 5.35964 25.1124 5.35938C26.3096 5.37592 27.4516 5.86548 28.289 6.72115C29.1265 7.57682 29.5914 8.72908 29.5821 9.92633V10.0136C29.5822 10.1974 29.6484 10.375 29.7686 10.514C29.8888 10.653 30.0549 10.7442 30.2367 10.7708C31.3634 10.9608 32.3791 11.5632 33.0861 12.4607C33.793 13.3583 34.1407 14.4869 34.0614 15.6267C33.9822 16.7665 33.4816 17.836 32.6571 18.6271C31.8327 19.4181 30.7434 19.8741 29.6013 19.9062H9.41021C7.85839 19.9335 6.35907 19.3444 5.24091 18.268C4.12276 17.1916 3.47701 15.7158 3.44523 14.1641ZM11.1015 26.7969C11.1015 27.0997 11.0117 27.3958 10.8434 27.6476C10.6752 27.8994 10.436 28.0957 10.1562 28.2116C9.87641 28.3275 9.56853 28.3578 9.2715 28.2987C8.97446 28.2396 8.70162 28.0938 8.48747 27.8796C8.27332 27.6655 8.12749 27.3926 8.0684 27.0956C8.00932 26.7986 8.03964 26.4907 8.15554 26.2109C8.27144 25.9311 8.4677 25.6919 8.71951 25.5237C8.97133 25.3554 9.26738 25.2656 9.57023 25.2656C9.97634 25.2656 10.3658 25.427 10.653 25.7141C10.9402 26.0013 11.1015 26.3908 11.1015 26.7969Z" fill="#913BFF"/>
</svg>
