<svg width="51" height="51" viewBox="0 0 51 51" fill="none" xmlns="http://www.w3.org/2000/svg">
<g clip-path="url(#clip0_233_6453)">
<path d="M31.0781 40.6406H34.2656V43.8281H31.0781V40.6406Z" fill="#3D8DFD" fill-opacity="0.13"/>
<path d="M26.2969 31.0781H29.4844V34.2656H26.2969V31.0781Z" fill="#3D8DFD" fill-opacity="0.13"/>
<path d="M21.5156 40.6406H24.7031V43.8281H21.5156V40.6406Z" fill="#3D8DFD" fill-opacity="0.13"/>
<path d="M40.6406 31.0781H43.8281V34.2656H40.6406V31.0781Z" fill="#3D8DFD" fill-opacity="0.13"/>
<path d="M47.8125 19.9219H17.5312C16.8972 19.9219 16.2892 20.1737 15.8408 20.6221C15.3925 21.0704 15.1406 21.6785 15.1406 22.3125V47.8125C15.1406 48.4465 15.3925 49.0546 15.8408 49.5029C16.2892 49.9513 16.8972 50.2031 17.5312 50.2031H47.8125C48.4465 50.2031 49.0546 49.9513 49.5029 49.5029C49.9513 49.0546 50.2031 48.4465 50.2031 47.8125V22.3125C50.2031 21.6785 49.9513 21.0704 49.5029 20.6221C49.0546 20.1737 48.4465 19.9219 47.8125 19.9219ZM26.2969 44.625C26.2969 44.8363 26.2129 45.039 26.0635 45.1885C25.914 45.3379 25.7113 45.4219 25.5 45.4219H20.7188C20.5074 45.4219 20.3047 45.3379 20.1553 45.1885C20.0058 45.039 19.9219 44.8363 19.9219 44.625V39.8438C19.9219 39.6324 20.0058 39.4297 20.1553 39.2803C20.3047 39.1308 20.5074 39.0469 20.7188 39.0469H25.5C25.7113 39.0469 25.914 39.1308 26.0635 39.2803C26.2129 39.4297 26.2969 39.6324 26.2969 39.8438V44.625ZM19.9219 35.0625V30.2812C19.9219 30.0699 20.0058 29.8672 20.1553 29.7178C20.3047 29.5683 20.5074 29.4844 20.7188 29.4844C20.9301 29.4844 21.1328 29.5683 21.2822 29.7178C21.4317 29.8672 21.5156 30.0699 21.5156 30.2812V35.0625C21.5156 35.2738 21.4317 35.4765 21.2822 35.626C21.1328 35.7754 20.9301 35.8594 20.7188 35.8594C20.5074 35.8594 20.3047 35.7754 20.1553 35.626C20.0058 35.4765 19.9219 35.2738 19.9219 35.0625ZM24.7031 35.0625V30.2812C24.7031 30.0699 24.7871 29.8672 24.9365 29.7178C25.086 29.5683 25.2887 29.4844 25.5 29.4844H30.2812C30.4926 29.4844 30.6953 29.5683 30.8447 29.7178C30.9942 29.8672 31.0781 30.0699 31.0781 30.2812V35.0625C31.0781 35.2738 30.9942 35.4765 30.8447 35.626C30.6953 35.7754 30.4926 35.8594 30.2812 35.8594H25.5C25.2887 35.8594 25.086 35.7754 24.9365 35.626C24.7871 35.4765 24.7031 35.2738 24.7031 35.0625ZM35.8594 44.625C35.8594 44.8363 35.7754 45.039 35.626 45.1885C35.4765 45.3379 35.2738 45.4219 35.0625 45.4219H30.2812C30.0699 45.4219 29.8672 45.3379 29.7178 45.1885C29.5683 45.039 29.4844 44.8363 29.4844 44.625V39.8438C29.4844 39.6324 29.5683 39.4297 29.7178 39.2803C29.8672 39.1308 30.0699 39.0469 30.2812 39.0469H35.0625C35.2738 39.0469 35.4765 39.1308 35.626 39.2803C35.7754 39.4297 35.8594 39.6324 35.8594 39.8438V44.625ZM35.8594 35.0625C35.8594 35.2738 35.7754 35.4765 35.626 35.626C35.4765 35.7754 35.2738 35.8594 35.0625 35.8594C34.8512 35.8594 34.6485 35.7754 34.499 35.626C34.3496 35.4765 34.2656 35.2738 34.2656 35.0625V30.2812C34.2656 30.0699 34.3496 29.8672 34.499 29.7178C34.6485 29.5683 34.8512 29.4844 35.0625 29.4844C35.2738 29.4844 35.4765 29.5683 35.626 29.7178C35.7754 29.8672 35.8594 30.0699 35.8594 30.2812V35.0625ZM40.6406 44.625C40.6406 44.8363 40.5567 45.039 40.4072 45.1885C40.2578 45.3379 40.0551 45.4219 39.8438 45.4219C39.6324 45.4219 39.4297 45.3379 39.2803 45.1885C39.1308 45.039 39.0469 44.8363 39.0469 44.625V39.8438C39.0469 39.6324 39.1308 39.4297 39.2803 39.2803C39.4297 39.1308 39.6324 39.0469 39.8438 39.0469C40.0551 39.0469 40.2578 39.1308 40.4072 39.2803C40.5567 39.4297 40.6406 39.6324 40.6406 39.8438V44.625ZM45.4219 44.625C45.4219 44.8363 45.3379 45.039 45.1885 45.1885C45.039 45.3379 44.8363 45.4219 44.625 45.4219C44.4137 45.4219 44.211 45.3379 44.0615 45.1885C43.9121 45.039 43.8281 44.8363 43.8281 44.625V39.8438C43.8281 39.6324 43.9121 39.4297 44.0615 39.2803C44.211 39.1308 44.4137 39.0469 44.625 39.0469C44.8363 39.0469 45.039 39.1308 45.1885 39.2803C45.3379 39.4297 45.4219 39.6324 45.4219 39.8438V44.625ZM45.4219 35.0625C45.4219 35.2738 45.3379 35.4765 45.1885 35.626C45.039 35.7754 44.8363 35.8594 44.625 35.8594H39.8438C39.6324 35.8594 39.4297 35.7754 39.2803 35.626C39.1308 35.4765 39.0469 35.2738 39.0469 35.0625V30.2812C39.0469 30.0699 39.1308 29.8672 39.2803 29.7178C39.4297 29.5683 39.6324 29.4844 39.8438 29.4844H44.625C44.8363 29.4844 45.039 29.5683 45.1885 29.7178C45.3379 29.8672 45.4219 30.0699 45.4219 30.2812V35.0625ZM48.6094 24.7031H16.7344V22.3125C16.7344 22.1012 16.8183 21.8985 16.9678 21.749C17.1172 21.5996 17.3199 21.5156 17.5312 21.5156H47.8125C48.0238 21.5156 48.2265 21.5996 48.376 21.749C48.5254 21.8985 48.6094 22.1012 48.6094 22.3125V24.7031Z" fill="#3D8DFD" fill-opacity="0.13"/>
<path d="M38.25 0.796875H3.1875C2.55347 0.796875 1.9454 1.04874 1.49707 1.49707C1.04874 1.9454 0.796875 2.55347 0.796875 3.1875V28.6875C0.796875 29.3215 1.04874 29.9296 1.49707 30.3779C1.9454 30.8263 2.55347 31.0781 3.1875 31.0781H20.7188C20.9301 31.0781 21.1328 30.9942 21.2822 30.8447C21.4317 30.6953 21.5156 30.4926 21.5156 30.2812C21.5156 30.0699 21.4317 29.8672 21.2822 29.7178C21.1328 29.5683 20.9301 29.4844 20.7188 29.4844H3.1875C2.97616 29.4844 2.77347 29.4004 2.62402 29.251C2.47458 29.1015 2.39062 28.8988 2.39062 28.6875V7.17188H39.0469V28.6875C39.0469 28.8988 38.9629 29.1015 38.8135 29.251C38.664 29.4004 38.4613 29.4844 38.25 29.4844H30.2812C30.0699 29.4844 29.8672 29.5683 29.7178 29.7178C29.5683 29.8672 29.4844 30.0699 29.4844 30.2812C29.4844 30.4926 29.5683 30.6953 29.7178 30.8447C29.8672 30.9942 30.0699 31.0781 30.2812 31.0781H38.25C38.884 31.0781 39.4921 30.8263 39.9404 30.3779C40.3888 29.9296 40.6406 29.3215 40.6406 28.6875V3.1875C40.6406 2.55347 40.3888 1.9454 39.9404 1.49707C39.4921 1.04874 38.884 0.796875 38.25 0.796875ZM2.39062 5.57812V3.1875C2.39062 2.97616 2.47458 2.77347 2.62402 2.62402C2.77347 2.47458 2.97616 2.39062 3.1875 2.39062H38.25C38.4613 2.39062 38.664 2.47458 38.8135 2.62402C38.9629 2.77347 39.0469 2.97616 39.0469 3.1875V5.57812H2.39062Z" fill="#3D8DFD"/>
<path d="M25.5 40.6404C26.134 40.6404 26.7421 40.3886 27.1904 39.9402C27.6388 39.4919 27.8906 38.8838 27.8906 38.2498V16.7342H34.0266C34.5123 16.7331 34.9779 16.5397 35.3214 16.1962C35.6649 15.8527 35.8583 15.3871 35.8594 14.9014C35.842 14.532 35.7253 14.1742 35.5215 13.8656C35.3177 13.557 35.0344 13.3092 34.7015 13.1482C31.9766 11.3317 28.7749 10.3623 25.5 10.3623C22.2251 10.3623 19.0234 11.3317 16.2985 13.1482C15.9654 13.309 15.682 13.5568 15.4782 13.8654C15.2743 14.174 15.1577 14.5319 15.1406 14.9014C15.1417 15.3871 15.3351 15.8527 15.6786 16.1962C16.0221 16.5397 16.4877 16.7331 16.9734 16.7342H23.1094V38.2498C23.1094 38.8838 23.3612 39.4919 23.8096 39.9402C24.2579 40.3886 24.866 40.6404 25.5 40.6404ZM26.2969 38.2498C26.2969 38.4612 26.2129 38.6638 26.0635 38.8133C25.914 38.9627 25.7113 39.0467 25.5 39.0467C25.2887 39.0467 25.086 38.9627 24.9365 38.8133C24.7871 38.6638 24.7031 38.4612 24.7031 38.2498V16.7342H26.2969V38.2498ZM16.7344 14.9014C16.7344 14.699 16.9384 14.6623 17.183 14.4734C19.646 12.8315 22.5399 11.9553 25.5 11.9553C28.4601 11.9553 31.354 12.8315 33.817 14.4734C34.056 14.6591 34.2656 14.7053 34.2656 14.9014C34.2656 14.9648 34.2404 15.0256 34.1956 15.0704C34.1508 15.1152 34.09 15.1404 34.0266 15.1404H16.9734C16.91 15.1404 16.8492 15.1152 16.8044 15.0704C16.7596 15.0256 16.7344 14.9648 16.7344 14.9014Z" fill="#3D8DFD"/>
<path d="M8.76562 10.3594H6.375C6.16366 10.3594 5.96097 10.4433 5.81152 10.5928C5.66208 10.7422 5.57812 10.9449 5.57812 11.1562C5.57812 11.3676 5.66208 11.5703 5.81152 11.7197C5.96097 11.8692 6.16366 11.9531 6.375 11.9531H8.76562C8.97697 11.9531 9.17966 11.8692 9.3291 11.7197C9.47854 11.5703 9.5625 11.3676 9.5625 11.1562C9.5625 10.9449 9.47854 10.7422 9.3291 10.5928C9.17966 10.4433 8.97697 10.3594 8.76562 10.3594Z" fill="#3D8DFD"/>
<path d="M8.76562 15.1406H6.375C6.16366 15.1406 5.96097 15.2246 5.81152 15.374C5.66208 15.5235 5.57812 15.7262 5.57812 15.9375C5.57812 16.1488 5.66208 16.3515 5.81152 16.501C5.96097 16.6504 6.16366 16.7344 6.375 16.7344H8.76562C8.97697 16.7344 9.17966 16.6504 9.3291 16.501C9.47854 16.3515 9.5625 16.1488 9.5625 15.9375C9.5625 15.7262 9.47854 15.5235 9.3291 15.374C9.17966 15.2246 8.97697 15.1406 8.76562 15.1406Z" fill="#3D8DFD"/>
<path d="M8.76562 19.9219H6.375C6.16366 19.9219 5.96097 20.0058 5.81152 20.1553C5.66208 20.3047 5.57812 20.5074 5.57812 20.7188C5.57812 20.9301 5.66208 21.1328 5.81152 21.2822C5.96097 21.4317 6.16366 21.5156 6.375 21.5156H8.76562C8.97697 21.5156 9.17966 21.4317 9.3291 21.2822C9.47854 21.1328 9.5625 20.9301 9.5625 20.7188C9.5625 20.5074 9.47854 20.3047 9.3291 20.1553C9.17966 20.0058 8.97697 19.9219 8.76562 19.9219Z" fill="#3D8DFD"/>
<path d="M8.76562 24.7031H6.375C6.16366 24.7031 5.96097 24.7871 5.81152 24.9365C5.66208 25.086 5.57812 25.2887 5.57812 25.5C5.57812 25.7113 5.66208 25.914 5.81152 26.0635C5.96097 26.2129 6.16366 26.2969 6.375 26.2969H8.76562C8.97697 26.2969 9.17966 26.2129 9.3291 26.0635C9.47854 25.914 9.5625 25.7113 9.5625 25.5C9.5625 25.2887 9.47854 25.086 9.3291 24.9365C9.17966 24.7871 8.97697 24.7031 8.76562 24.7031Z" fill="#3D8DFD"/>
<path d="M15.9375 19.9219H13.5469C13.3355 19.9219 13.1328 20.0058 12.9834 20.1553C12.834 20.3047 12.75 20.5074 12.75 20.7188C12.75 20.9301 12.834 21.1328 12.9834 21.2822C13.1328 21.4317 13.3355 21.5156 13.5469 21.5156H15.9375C16.1488 21.5156 16.3515 21.4317 16.501 21.2822C16.6504 21.1328 16.7344 20.9301 16.7344 20.7188C16.7344 20.5074 16.6504 20.3047 16.501 20.1553C16.3515 20.0058 16.1488 19.9219 15.9375 19.9219Z" fill="#3D8DFD"/>
<path d="M15.9375 24.7031H13.5469C13.3355 24.7031 13.1328 24.7871 12.9834 24.9365C12.834 25.086 12.75 25.2887 12.75 25.5C12.75 25.7113 12.834 25.914 12.9834 26.0635C13.1328 26.2129 13.3355 26.2969 13.5469 26.2969H15.9375C16.1488 26.2969 16.3515 26.2129 16.501 26.0635C16.6504 25.914 16.7344 25.7113 16.7344 25.5C16.7344 25.2887 16.6504 25.086 16.501 24.9365C16.3515 24.7871 16.1488 24.7031 15.9375 24.7031Z" fill="#3D8DFD"/>
<path d="M35.0625 19.9219H32.6719C32.4605 19.9219 32.2578 20.0058 32.1084 20.1553C31.959 20.3047 31.875 20.5074 31.875 20.7188C31.875 20.9301 31.959 21.1328 32.1084 21.2822C32.2578 21.4317 32.4605 21.5156 32.6719 21.5156H35.0625C35.2738 21.5156 35.4765 21.4317 35.626 21.2822C35.7754 21.1328 35.8594 20.9301 35.8594 20.7188C35.8594 20.5074 35.7754 20.3047 35.626 20.1553C35.4765 20.0058 35.2738 19.9219 35.0625 19.9219Z" fill="#3D8DFD"/>
<path d="M35.0625 24.7031H32.6719C32.4605 24.7031 32.2578 24.7871 32.1084 24.9365C31.959 25.086 31.875 25.2887 31.875 25.5C31.875 25.7113 31.959 25.914 32.1084 26.0635C32.2578 26.2129 32.4605 26.2969 32.6719 26.2969H35.0625C35.2738 26.2969 35.4765 26.2129 35.626 26.0635C35.7754 25.914 35.8594 25.7113 35.8594 25.5C35.8594 25.2887 35.7754 25.086 35.626 24.9365C35.4765 24.7871 35.2738 24.7031 35.0625 24.7031Z" fill="#3D8DFD"/>
</g>
<defs>
<clipPath id="clip0_233_6453">
<rect width="51" height="51" fill="white"/>
</clipPath>
</defs>
</svg>
