<svg width="100" height="100" viewBox="0 0 100 100" fill="none" xmlns="http://www.w3.org/2000/svg">
<g opacity="0.5">
<path d="M46.875 60.9375H31.25C30.3871 60.9375 29.6875 61.6371 29.6875 62.5V93.75C29.6875 94.6129 30.3871 95.3125 31.25 95.3125H46.875C47.7379 95.3125 48.4375 94.6129 48.4375 93.75V62.5C48.4375 61.6371 47.7379 60.9375 46.875 60.9375Z" fill="#EEE5FD"/>
<path d="M71.875 45.3125H56.25C55.3871 45.3125 54.6875 46.0121 54.6875 46.875V93.75C54.6875 94.6129 55.3871 95.3125 56.25 95.3125H71.875C72.7379 95.3125 73.4375 94.6129 73.4375 93.75V46.875C73.4375 46.0121 72.7379 45.3125 71.875 45.3125Z" fill="#EEE5FD"/>
<path d="M96.875 29.6875H81.25C80.3871 29.6875 79.6875 30.3871 79.6875 31.25V93.75C79.6875 94.6129 80.3871 95.3125 81.25 95.3125H96.875C97.7379 95.3125 98.4375 94.6129 98.4375 93.75V31.25C98.4375 30.3871 97.7379 29.6875 96.875 29.6875Z" fill="#EEE5FD"/>
<path opacity="0.1" d="M53.1124 4.68755C47.991 4.67806 42.9765 6.15172 38.6746 8.93049C34.3727 11.7093 30.9674 15.6743 28.8701 20.3465C26.7729 25.0187 26.0734 30.1983 26.8561 35.2594C27.6389 40.3206 29.8704 45.0469 33.2811 48.8672L29.9046 52.2422L28.7983 51.1375C27.9193 50.2588 26.7272 49.7651 25.4843 49.7651C24.2413 49.7651 23.0492 50.2588 22.1702 51.1375L3.39364 69.9204C2.22194 71.0924 1.56372 72.6818 1.56372 74.3391C1.56372 75.9964 2.22194 77.5858 3.39364 78.7579L5.60457 80.9672C6.77662 82.1389 8.36605 82.7971 10.0233 82.7971C11.6806 82.7971 13.27 82.1389 14.4421 80.9672L33.2249 62.1875C34.1037 61.3085 34.5973 60.1164 34.5973 58.8735C34.5973 57.6305 34.1037 56.4385 33.2249 55.5594L32.1202 54.4532L35.4968 51.0782C38.7112 53.9338 42.5713 55.9659 46.7449 56.9996C50.9185 58.0333 55.2808 58.0377 59.4565 57.0125C63.6322 55.9872 67.4963 53.9629 70.7166 51.1138C73.9368 48.2647 76.4168 44.6759 77.9432 40.6562C79.4695 36.6365 79.9966 32.3063 79.4791 28.0378C78.9616 23.7693 77.4149 19.6905 74.9722 16.152C72.5294 12.6136 69.2637 9.72144 65.4559 7.72441C61.648 5.72738 57.4121 4.68522 53.1124 4.68755ZM12.2327 78.7579C11.6376 79.3263 10.8463 79.6436 10.0233 79.6436C9.20034 79.6436 8.40903 79.3263 7.81395 78.7579L5.60301 76.5485C5.01716 75.9625 4.68805 75.1677 4.68805 74.3391C4.68805 73.5105 5.01716 72.7158 5.60301 72.1297L19.9671 57.7657L26.5968 64.3954L12.2327 78.7579ZM31.0155 59.9766L28.8061 62.1875L22.1764 55.5579L24.3858 53.3485C24.6788 53.0556 25.0762 52.891 25.4905 52.891C25.9048 52.891 26.3022 53.0556 26.5952 53.3485L31.0155 57.7688C31.308 58.0617 31.4722 58.4588 31.4722 58.8727C31.4722 59.2866 31.308 59.6837 31.0155 59.9766ZM53.1124 54.6875C48.4769 54.6875 43.9455 53.313 40.0912 50.7376C36.2369 48.1623 33.2329 44.5018 31.459 40.2192C29.685 35.9365 29.2209 31.224 30.1252 26.6776C31.0296 22.1312 33.2618 17.955 36.5396 14.6772C39.8174 11.3994 43.9935 9.16723 48.54 8.26289C53.0864 7.35855 57.7989 7.82269 62.0815 9.59662C66.3642 11.3705 70.0246 14.3746 72.5999 18.2289C75.1753 22.0831 76.5499 26.6145 76.5499 31.25C76.5428 37.4639 74.0713 43.4212 69.6774 47.8151C65.2836 52.209 59.3262 54.6805 53.1124 54.6875Z" fill="#913BFF"/>
<path opacity="0.1" d="M67.5547 26.6093L61.3047 25.0468C60.9039 24.9494 60.4808 25.0145 60.1278 25.2278C59.7747 25.4411 59.5204 25.7853 59.4201 26.1854C59.3199 26.5855 59.3819 27.009 59.5927 27.3636C59.8035 27.7181 60.1459 27.9749 60.5453 28.078L63.8109 28.8952L57.8969 33.8233L49.5312 25.4577C49.2557 25.1819 48.8871 25.0191 48.4977 25.0012C48.1083 24.9832 47.7262 25.1115 47.4265 25.3608L38.0515 33.1733C37.7329 33.4386 37.5326 33.8195 37.4948 34.2324C37.457 34.6452 37.5848 35.0562 37.85 35.3749C38.1152 35.6936 38.4961 35.8938 38.909 35.9316C39.3219 35.9694 39.7329 35.8417 40.0515 35.5765L48.3328 28.6765L56.6984 37.0421C56.9739 37.3179 57.3426 37.4807 57.732 37.4986C58.1214 37.5166 58.5034 37.3883 58.8031 37.139L65.6156 31.4608V34.3749C65.6156 34.7893 65.7802 35.1867 66.0732 35.4798C66.3663 35.7728 66.7637 35.9374 67.1781 35.9374C67.5925 35.9374 67.9899 35.7728 68.283 35.4798C68.576 35.1867 68.7406 34.7893 68.7406 34.3749V28.1249C68.7404 27.7762 68.6236 27.4375 68.4087 27.1628C68.1937 26.8882 67.8931 26.6933 67.5547 26.6093Z" fill="#913BFF"/>
</g>
</svg>
