<svg width="64" height="64" viewBox="0 0 64 64" fill="none" xmlns="http://www.w3.org/2000/svg">
<path d="M61.834 33.648C61.9362 33.4932 61.9933 33.313 61.9989 33.1275C62.0046 32.9421 61.9585 32.7588 61.866 32.598L58.866 27.398C58.7741 27.2361 58.6386 27.1034 58.4748 27.0149C58.311 26.9265 58.1257 26.886 57.94 26.898L51.54 27.282L48.071 25.282L45.205 19.551C45.1218 19.3856 44.9944 19.2465 44.837 19.1492C44.6795 19.0519 44.4981 19.0003 44.313 19H38.313C38.1273 19.0001 37.9453 19.0519 37.7874 19.1496C37.6295 19.2472 37.5019 19.3869 37.419 19.553L34.553 25.284L31.083 27.284L24.683 26.9C24.4973 26.8883 24.3121 26.929 24.1484 27.0174C23.9847 27.1058 23.849 27.2384 23.757 27.4L20.757 32.6C20.6642 32.7607 20.618 32.944 20.6235 33.1294C20.629 33.3148 20.6859 33.4951 20.788 33.65L24.323 39V43L20.792 48.349C20.6899 48.5039 20.633 48.6842 20.6275 48.8696C20.622 49.055 20.6682 49.2383 20.761 49.399L23.761 54.599C23.8529 54.7608 23.9884 54.8935 24.1522 54.9819C24.3159 55.0703 24.5012 55.1109 24.687 55.099L31.087 54.716L34.557 56.716L37.423 62.447C37.5059 62.6131 37.6335 62.7528 37.7914 62.8504C37.9493 62.9481 38.1313 62.9999 38.317 63H44.317C44.5028 63.0001 44.685 62.9484 44.8431 62.8507C45.0011 62.753 45.1289 62.6132 45.212 62.447L48.078 56.716L51.547 54.716L57.947 55.099C58.1327 55.1111 58.3181 55.0707 58.4819 54.9822C58.6457 54.8938 58.7812 54.761 58.873 54.599L61.873 49.399C61.9655 49.2382 62.0116 49.0549 62.0059 48.8695C62.0003 48.684 61.9432 48.5038 61.841 48.349L58.3 43V39L61.834 33.648ZM41.313 35C42.4996 35 43.6597 35.3519 44.6464 36.0112C45.6331 36.6705 46.4021 37.6075 46.8562 38.7039C47.3104 39.8003 47.4292 41.0067 47.1977 42.1705C46.9662 43.3344 46.3947 44.4035 45.5556 45.2426C44.7165 46.0818 43.6474 46.6532 42.4835 46.8847C41.3196 47.1162 40.1132 46.9974 39.0169 46.5433C37.9205 46.0892 36.9834 45.3201 36.3241 44.3334C35.6648 43.3467 35.313 42.1867 35.313 41C35.3145 39.4092 35.9472 37.884 37.0721 36.7591C38.1969 35.6342 39.7221 35.0016 41.313 35ZM41.313 53C38.1315 52.9963 35.0814 51.7308 32.8318 49.4812C30.5821 47.2316 29.3167 44.1815 29.313 41C29.313 40.7348 29.4183 40.4804 29.6059 40.2929C29.7934 40.1054 30.0477 40 30.313 40C30.5782 40 30.8325 40.1054 31.0201 40.2929C31.2076 40.4804 31.313 40.7348 31.313 41C31.313 42.9778 31.8994 44.9112 32.9983 46.5557C34.0971 48.2002 35.6589 49.4819 37.4861 50.2388C39.3134 50.9957 41.3241 51.1937 43.2639 50.8079C45.2037 50.422 46.9855 49.4696 48.384 48.0711C49.7825 46.6725 50.735 44.8907 51.1208 42.9509C51.5067 41.0111 51.3086 39.0004 50.5518 37.1732C49.7949 35.3459 48.5131 33.7841 46.8687 32.6853C45.2242 31.5865 43.2908 31 41.313 31C41.1152 31 40.9219 30.9413 40.7575 30.8314C40.5931 30.7215 40.4649 30.5654 40.3893 30.3827C40.3136 30.2 40.2938 29.9989 40.3324 29.805C40.3709 29.611 40.4661 29.4329 40.606 29.293L42.606 27.293C42.7946 27.1108 43.0472 27.01 43.3094 27.0123C43.5716 27.0146 43.8224 27.1198 44.0078 27.3052C44.1932 27.4906 44.2984 27.7414 44.3006 28.0036C44.3029 28.2658 44.2021 28.5184 44.02 28.707L43.52 29.207C46.457 29.7597 49.0821 31.3885 50.8816 33.7746C52.6811 36.1608 53.5255 39.1325 53.2494 42.1083C52.9734 45.0842 51.5969 47.8499 49.3892 49.8644C47.1815 51.8788 44.3016 52.997 41.313 53Z" fill="#DFD1F1" fill-opacity="0.47"/>
<path d="M42.9281 10.478L37.7661 10.788L31.7001 7.28402L29.3851 2.65802C29.1372 2.15833 28.7542 1.73812 28.2797 1.44506C27.8051 1.15199 27.2578 0.997819 26.7001 1.00002H23.1731C22.6156 0.998193 22.0688 1.15255 21.5946 1.44559C21.1204 1.73863 20.7378 2.15864 20.4901 2.65802L18.1771 7.28402L12.1091 10.784L6.94706 10.474C6.39032 10.4372 5.83446 10.5578 5.34302 10.822C4.85158 11.0862 4.44441 11.4833 4.16806 11.968L2.40006 15.027C2.12015 15.5093 1.98114 16.0605 1.99881 16.6178C2.01649 17.1752 2.19015 17.7164 2.50006 18.18L5.34906 22.5V29.5L2.50006 33.819C2.19017 34.2828 2.01653 34.8242 1.99886 35.3817C1.98118 35.9392 2.12018 36.4905 2.40006 36.973L4.16306 40.027C4.44026 40.511 4.84757 40.9077 5.33877 41.1719C5.82998 41.4362 6.38541 41.5575 6.94206 41.522L12.1041 41.213L18.1721 44.713L20.4851 49.339C20.7329 49.8396 21.1162 50.2606 21.5913 50.5542C22.0665 50.8478 22.6145 51.0023 23.1731 51H26.7001C27.2575 51.0016 27.8042 50.8472 28.2783 50.5542C28.7525 50.2611 29.1352 49.8413 29.3831 49.342L31.7001 44.716L37.7681 41.216L42.9311 41.525C43.4878 41.5621 44.0437 41.4414 44.535 41.177C45.0264 40.9126 45.4333 40.5151 45.7091 40.03L47.4721 36.976C47.7527 36.494 47.8925 35.9429 47.8757 35.3854C47.8589 34.8279 47.6862 34.2863 47.3771 33.822L44.5261 29.5V22.5L47.3751 18.184C47.6841 17.7199 47.8568 17.1784 47.8736 16.6211C47.8904 16.0638 47.7506 15.5129 47.4701 15.031L45.7061 11.975C45.429 11.491 45.0219 11.0942 44.531 10.8296C44.04 10.565 43.4847 10.4432 42.9281 10.478ZM45.7071 17.078L42.6911 21.645C42.5831 21.8081 42.5257 21.9995 42.5261 22.195V29.8C42.5257 29.9956 42.5831 30.1869 42.6911 30.35L45.7071 34.917C45.8095 35.0722 45.8667 35.2528 45.8721 35.4386C45.8776 35.6244 45.8312 35.8081 45.7381 35.969L43.9741 39.023C43.8814 39.1842 43.7457 39.3164 43.5821 39.4047C43.4186 39.493 43.2336 39.534 43.0481 39.523L37.5861 39.2C37.3906 39.1894 37.1962 39.2352 37.0261 39.332L30.4371 43.132C30.2675 43.2301 30.1305 43.3758 30.0431 43.551L27.6001 48.447C27.5166 48.614 27.3881 48.7543 27.229 48.8521C27.07 48.9498 26.8867 49.001 26.7001 49H23.1731C22.9874 48.9999 22.8054 48.9481 22.6475 48.8505C22.4896 48.7528 22.362 48.6131 22.2791 48.447L19.8321 43.553C19.7443 43.3777 19.607 43.2319 19.4371 43.134L12.8491 39.334C12.697 39.2463 12.5246 39.2 12.3491 39.2H12.2891L6.82806 39.528C6.64232 39.5392 6.45716 39.4983 6.2934 39.41C6.12963 39.3216 5.99376 39.1894 5.90106 39.028L4.13706 35.973C4.04393 35.8121 3.99749 35.6284 4.00297 35.4426C4.00844 35.2568 4.06561 35.0762 4.16806 34.921L7.18406 30.354C7.29164 30.1908 7.34901 29.9995 7.34906 29.804V22.2C7.34901 22.0045 7.29164 21.8133 7.18406 21.65L4.16806 17.078C4.06513 16.9235 4.00765 16.7431 4.00217 16.5575C3.99669 16.3718 4.04342 16.1884 4.13706 16.028L5.90006 12.973C5.99187 12.8109 6.12756 12.678 6.29155 12.5895C6.45553 12.5011 6.64115 12.4607 6.82706 12.473L12.2891 12.801C12.4847 12.8142 12.6799 12.7682 12.8491 12.669L19.4371 8.86902C19.607 8.77111 19.7443 8.6254 19.8321 8.45002L22.2791 3.55602C22.3616 3.38938 22.489 3.24907 22.647 3.15085C22.8049 3.05263 22.9871 3.0004 23.1731 3.00002H26.7001C26.8857 3.00012 27.0677 3.05191 27.2256 3.14958C27.3835 3.24725 27.5111 3.38694 27.5941 3.55302L30.0411 8.44702C30.1285 8.62226 30.2655 8.76795 30.4351 8.86602L37.0241 12.666C37.1931 12.7655 37.3884 12.8115 37.5841 12.798L43.0461 12.47C43.2318 12.458 43.4171 12.4985 43.5809 12.587C43.7447 12.6754 43.8802 12.8081 43.9721 12.97L45.7361 16.026C45.8297 16.1869 45.8766 16.3706 45.8714 16.5567C45.8663 16.7427 45.8094 16.9236 45.7071 17.079V17.078Z" fill="#913BFF"/>
<path d="M14.937 26C14.937 27.9778 15.5235 29.9112 16.6223 31.5557C17.7211 33.2002 19.2829 34.4819 21.1102 35.2388C22.9374 35.9957 24.9481 36.1937 26.8879 35.8079C28.8277 35.422 30.6096 34.4696 32.0081 33.0711C33.4066 31.6725 34.359 29.8907 34.7449 27.9509C35.1307 26.0111 34.9327 24.0004 34.1758 22.1732C33.4189 20.3459 32.1372 18.7841 30.4927 17.6853C28.8482 16.5865 26.9148 16 24.937 16C22.2857 16.0029 19.7439 17.0574 17.8692 18.9321C15.9944 20.8069 14.9399 23.3487 14.937 26ZM20.037 19.688C21.1674 18.8068 22.5149 18.2474 23.937 18.069V23.586L20.037 19.688ZM16.937 26C16.9371 24.2239 17.5317 22.499 18.626 21.1L29.835 32.31C28.6545 33.2304 27.239 33.8006 25.7501 33.9554C24.2612 34.1103 22.7588 33.8435 21.4141 33.1857C20.0694 32.5279 18.9367 31.5054 18.1451 30.2349C17.3535 28.9644 16.9349 27.4969 16.937 26ZM32.937 26C32.9372 27.776 32.343 29.501 31.249 30.9L25.937 25.588V18.069C27.8685 18.3141 29.6446 19.2544 30.933 20.7142C32.2213 22.1739 32.9338 24.053 32.937 26Z" fill="#913BFF"/>
<path d="M37.937 25.0002C37.6718 25.0002 37.4174 25.1056 37.2299 25.2931C37.0424 25.4806 36.937 25.735 36.937 26.0002C36.937 28.3736 36.2332 30.6937 34.9146 32.667C33.5961 34.6404 31.7219 36.1785 29.5292 37.0868C27.3365 37.995 24.9237 38.2326 22.5959 37.7696C20.2682 37.3066 18.13 36.1637 16.4517 34.4855C14.7735 32.8073 13.6306 30.6691 13.1676 28.3413C12.7046 26.0135 12.9422 23.6007 13.8505 21.408C14.7587 19.2153 16.2968 17.3411 18.2702 16.0226C20.2436 14.704 22.5636 14.0002 24.937 14.0002C25.1348 14.0004 25.3283 13.9418 25.4928 13.832C25.6574 13.7222 25.7857 13.5661 25.8615 13.3833C25.9373 13.2006 25.9572 12.9995 25.9186 12.8054C25.8801 12.6114 25.7849 12.4331 25.645 12.2932L23.145 9.7932C23.0522 9.70029 22.9419 9.62658 22.8206 9.57627C22.6993 9.52596 22.5692 9.50005 22.4379 9.5C22.3065 9.49995 22.1764 9.52578 22.0551 9.576C21.9337 9.62622 21.8234 9.69986 21.7305 9.7927C21.6376 9.88555 21.5639 9.99578 21.5136 10.1171C21.4633 10.2384 21.4374 10.3685 21.4373 10.4998C21.4373 10.6312 21.4631 10.7613 21.5133 10.8826C21.5635 11.004 21.6372 11.1143 21.73 11.2072L22.702 12.1782C20.0629 12.605 17.6012 13.7785 15.6079 15.5599C13.6146 17.3413 12.173 19.6562 11.4535 22.231C10.7341 24.8057 10.7668 27.5326 11.548 30.0893C12.3291 32.646 13.8259 34.9256 15.8615 36.6586C17.897 38.3916 20.3862 39.5056 23.0348 39.8688C25.6833 40.2321 28.3805 39.8294 30.8075 38.7084C33.2345 37.5874 35.2898 35.7949 36.7304 33.5429C38.171 31.2909 38.9367 28.6736 38.937 26.0002C38.937 25.735 38.8317 25.4806 38.6441 25.2931C38.4566 25.1056 38.2022 25.0002 37.937 25.0002Z" fill="#913BFF"/>
</svg>
