<svg width="49" height="49" viewBox="0 0 49 49" fill="none" xmlns="http://www.w3.org/2000/svg">
<g clip-path="url(#clip0_410_26493)">
<path d="M47.7704 16.9057L31.6923 10.0151C31.597 9.97419 31.4943 9.95312 31.3906 9.95312C31.2869 9.95312 31.1843 9.97419 31.089 10.0151L15.0108 16.9057C14.8732 16.9647 14.7558 17.0628 14.6733 17.1879C14.5909 17.313 14.5469 17.4595 14.5469 17.6093V24.1385C14.5663 29.3492 16.1587 34.4326 19.1155 38.7231C22.0723 43.0136 26.2557 46.3114 31.1181 48.1845C31.2936 48.2514 31.4876 48.2514 31.6632 48.1845C36.5255 46.3114 40.709 43.0136 43.6658 38.7231C46.6226 34.4326 48.2149 29.3492 48.2344 24.1385V17.6093C48.2344 17.4595 48.1904 17.313 48.1079 17.1879C48.0254 17.0628 47.9081 16.9647 47.7704 16.9057ZM38.7575 26.7968L30.8195 33.3881C30.6095 33.5617 30.3504 33.6651 30.0785 33.6836C29.8067 33.7022 29.5359 33.6349 29.3043 33.4914L24.1677 30.2988C24.0103 30.215 23.8718 30.0998 23.7608 29.9603C23.6497 29.8208 23.5685 29.66 23.5222 29.4879C23.4759 29.3157 23.4654 29.1359 23.4915 28.9595C23.5176 28.7831 23.5796 28.614 23.6737 28.4626C23.7678 28.3111 23.8921 28.1807 24.0387 28.0793C24.1853 27.9778 24.3512 27.9076 24.5261 27.873C24.701 27.8383 24.8812 27.84 25.0554 27.8778C25.2296 27.9157 25.3942 27.9889 25.539 28.093L29.88 30.7918L37.0984 24.7993C37.3659 24.6072 37.6963 24.5237 38.023 24.5655C38.3496 24.6074 38.6483 24.7716 38.8587 25.0249C39.0691 25.2783 39.1757 25.602 39.1569 25.9308C39.1381 26.2596 38.9954 26.5691 38.7575 26.7968Z" fill="#EEE5FD"/>
<path d="M24.5 0.765625H3.0625C2.45333 0.765625 1.86911 1.00762 1.43836 1.43836C1.00762 1.86911 0.765625 2.45333 0.765625 3.0625V30.625C0.765625 31.2342 1.00762 31.8184 1.43836 32.2491C1.86911 32.6799 2.45333 32.9219 3.0625 32.9219H24.5C25.1092 32.9219 25.6934 32.6799 26.1241 32.2491C26.5549 31.8184 26.7969 31.2342 26.7969 30.625V3.0625C26.7969 2.45333 26.5549 1.86911 26.1241 1.43836C25.6934 1.00762 25.1092 0.765625 24.5 0.765625ZM25.2656 30.625C25.2656 30.8281 25.185 31.0228 25.0414 31.1664C24.8978 31.31 24.7031 31.3906 24.5 31.3906H3.0625C2.85944 31.3906 2.6647 31.31 2.52112 31.1664C2.37754 31.0228 2.29688 30.8281 2.29688 30.625V3.0625C2.29688 2.85944 2.37754 2.6647 2.52112 2.52112C2.6647 2.37754 2.85944 2.29688 3.0625 2.29688H24.5C24.7031 2.29688 24.8978 2.37754 25.0414 2.52112C25.185 2.6647 25.2656 2.85944 25.2656 3.0625V30.625Z" fill="#913BFF"/>
<path d="M6.125 14.5469H10.7188C11.1249 14.5469 11.5143 14.3855 11.8015 14.0984C12.0887 13.8112 12.25 13.4217 12.25 13.0156V12.25C12.2485 11.6014 12.0818 10.9639 11.7657 10.3975C11.4496 9.83117 10.9944 9.35466 10.4431 9.01294C10.8653 8.53153 11.0991 7.91372 11.1016 7.27344C11.1016 6.56274 10.8192 5.88115 10.3167 5.37861C9.81416 4.87607 9.13257 4.59375 8.42188 4.59375C7.71118 4.59375 7.02959 4.87607 6.52705 5.37861C6.02451 5.88115 5.74219 6.56274 5.74219 7.27344C5.74462 7.91372 5.97848 8.53153 6.40062 9.01294C5.84934 9.35466 5.39418 9.83117 5.07805 10.3975C4.76193 10.9639 4.59525 11.6014 4.59375 12.25V13.0156C4.59375 13.4217 4.75508 13.8112 5.04224 14.0984C5.32941 14.3855 5.71889 14.5469 6.125 14.5469ZM7.27344 7.27344C7.27344 7.0463 7.34079 6.82426 7.46698 6.6354C7.59318 6.44654 7.77254 6.29934 7.98239 6.21242C8.19224 6.1255 8.42315 6.10275 8.64592 6.14707C8.8687 6.19138 9.07333 6.30076 9.23394 6.46137C9.39456 6.62198 9.50393 6.82661 9.54825 7.04939C9.59256 7.27216 9.56982 7.50308 9.48289 7.71293C9.39597 7.92278 9.24877 8.10214 9.05991 8.22833C8.87105 8.35452 8.64901 8.42188 8.42188 8.42188C8.11729 8.42188 7.82518 8.30088 7.60981 8.08551C7.39443 7.87013 7.27344 7.57802 7.27344 7.27344ZM6.125 12.25C6.125 11.6408 6.36699 11.0566 6.79774 10.6259C7.22849 10.1951 7.81271 9.95312 8.42188 9.95312C9.03104 9.95312 9.61526 10.1951 10.046 10.6259C10.4768 11.0566 10.7188 11.6408 10.7188 12.25V13.0156H6.125V12.25Z" fill="#913BFF"/>
<path d="M22.2031 6.89062H15.3125C15.1094 6.89062 14.9147 6.97129 14.7711 7.11487C14.6275 7.25845 14.5469 7.45319 14.5469 7.65625C14.5469 7.85931 14.6275 8.05405 14.7711 8.19763C14.9147 8.34121 15.1094 8.42188 15.3125 8.42188H22.2031C22.4062 8.42188 22.6009 8.34121 22.7445 8.19763C22.8881 8.05405 22.9688 7.85931 22.9688 7.65625C22.9688 7.45319 22.8881 7.25845 22.7445 7.11487C22.6009 6.97129 22.4062 6.89062 22.2031 6.89062Z" fill="#913BFF"/>
<path d="M22.2031 13.0156H15.3125C15.1094 13.0156 14.9147 13.0963 14.7711 13.2399C14.6275 13.3835 14.5469 13.5782 14.5469 13.7812C14.5469 13.9843 14.6275 14.179 14.7711 14.3226C14.9147 14.4662 15.1094 14.5469 15.3125 14.5469H22.2031C22.4062 14.5469 22.6009 14.4662 22.7445 14.3226C22.8881 14.179 22.9688 13.9843 22.9688 13.7812C22.9688 13.5782 22.8881 13.3835 22.7445 13.2399C22.6009 13.0963 22.4062 13.0156 22.2031 13.0156Z" fill="#913BFF"/>
<path d="M22.2031 19.1406H5.35938C5.15632 19.1406 4.96158 19.2213 4.818 19.3649C4.67441 19.5085 4.59375 19.7032 4.59375 19.9062C4.59375 20.1093 4.67441 20.304 4.818 20.4476C4.96158 20.5912 5.15632 20.6719 5.35938 20.6719H22.2031C22.4062 20.6719 22.6009 20.5912 22.7445 20.4476C22.8881 20.304 22.9688 20.1093 22.9688 19.9062C22.9688 19.7032 22.8881 19.5085 22.7445 19.3649C22.6009 19.2213 22.4062 19.1406 22.2031 19.1406Z" fill="#913BFF"/>
<path d="M22.2031 25.2656H5.35938C5.15632 25.2656 4.96158 25.3463 4.818 25.4899C4.67441 25.6335 4.59375 25.8282 4.59375 26.0312C4.59375 26.2343 4.67441 26.429 4.818 26.5726C4.96158 26.7162 5.15632 26.7969 5.35938 26.7969H22.2031C22.4062 26.7969 22.6009 26.7162 22.7445 26.5726C22.8881 26.429 22.9688 26.2343 22.9688 26.0312C22.9688 25.8282 22.8881 25.6335 22.7445 25.4899C22.6009 25.3463 22.4062 25.2656 22.2031 25.2656Z" fill="#913BFF"/>
</g>
<defs>
<clipPath id="clip0_410_26493">
<rect width="49" height="49" fill="white"/>
</clipPath>
</defs>
</svg>
