<svg width="87" height="87" viewBox="0 0 87 87" fill="none" xmlns="http://www.w3.org/2000/svg">
<path d="M84.2812 28.5469V24.4688C84.2791 22.6668 83.5623 20.9392 82.2881 19.665C81.0139 18.3908 79.2864 17.674 77.4844 17.6719H50.2969C48.4949 17.674 46.7673 18.3908 45.4931 19.665C44.219 20.9392 43.5022 22.6668 43.5 24.4688V28.5469H84.2812Z" fill="#EEE5FD" fill-opacity="0.4"/>
<path d="M43.5 31.2656H84.2812V39.4219H43.5V31.2656Z" fill="#EEE5FD" fill-opacity="0.4"/>
<path d="M63.8906 65.25C66.1429 65.25 67.9688 63.4242 67.9688 61.1719C67.9688 58.9196 66.1429 57.0938 63.8906 57.0938C61.6383 57.0938 59.8125 58.9196 59.8125 61.1719C59.8125 63.4242 61.6383 65.25 63.8906 65.25Z" fill="#EEE5FD" fill-opacity="0.4"/>
<path d="M43.5 42.1406V80.8828C43.5 82.1447 44.0013 83.3548 44.8935 84.2471C45.7858 85.1394 46.996 85.6406 48.2578 85.6406C49.5197 85.6406 50.7298 85.1394 51.6221 84.2471C52.5144 83.3548 53.0156 82.1447 53.0156 80.8828C53.0156 80.7025 53.0872 80.5297 53.2147 80.4022C53.3422 80.2747 53.515 80.2031 53.6953 80.2031H74.0859C74.2662 80.2031 74.4391 80.2747 74.5665 80.4022C74.694 80.5297 74.7656 80.7025 74.7656 80.8828C74.7656 82.1447 75.2669 83.3548 76.1592 84.2471C77.0514 85.1394 78.2616 85.6406 79.5234 85.6406C80.7853 85.6406 81.9955 85.1394 82.8877 84.2471C83.78 83.3548 84.2812 82.1447 84.2812 80.8828V42.1406H43.5ZM63.8906 67.9688C62.5463 67.9688 61.2322 67.5701 60.1145 66.8233C58.9967 66.0764 58.1256 65.0149 57.6111 63.7729C57.0967 62.531 56.9621 61.1643 57.2243 59.8459C57.4866 58.5274 58.1339 57.3163 59.0845 56.3658C60.0351 55.4152 61.2462 54.7679 62.5646 54.5056C63.8831 54.2433 65.2497 54.3779 66.4917 54.8924C67.7336 55.4068 68.7952 56.278 69.542 57.3957C70.2889 58.5135 70.6875 59.8276 70.6875 61.1719C70.6853 62.9739 69.9685 64.7014 68.6944 65.9756C67.4202 67.2498 65.6926 67.9666 63.8906 67.9688V67.9688Z" fill="#EEE5FD" fill-opacity="0.4"/>
<path d="M59.8125 5.4375C59.8125 4.35591 59.3828 3.31863 58.618 2.55383C57.8532 1.78903 56.816 1.35938 55.7344 1.35938H6.79688C5.71529 1.35938 4.678 1.78903 3.91321 2.55383C3.14841 3.31863 2.71875 4.35591 2.71875 5.4375V21.75C2.72229 22.7565 3.10026 23.7256 3.77906 24.4688C3.10026 25.2119 2.72229 26.181 2.71875 27.1875V43.5C2.71875 44.5816 3.14841 45.6189 3.91321 46.3837C4.678 47.1485 5.71529 47.5781 6.79688 47.5781H25.8281V51.6562C25.8281 52.7378 26.2578 53.7751 27.0226 54.5399C27.7874 55.3047 28.8247 55.7344 29.9062 55.7344V59.8125H13.5938C13.5937 58.7309 13.1641 57.6936 12.3993 56.9288C11.6345 56.164 10.5972 55.7344 9.51562 55.7344H6.79688C5.71529 55.7344 4.678 56.164 3.91321 56.9288C3.14841 57.6936 2.71875 58.7309 2.71875 59.8125V62.5312C2.71875 63.6128 3.14841 64.6501 3.91321 65.4149C4.678 66.1797 5.71529 66.6094 6.79688 66.6094H9.51562C10.5972 66.6094 11.6345 66.1797 12.3993 65.4149C13.1641 64.6501 13.5938 63.6128 13.5938 62.5312H48.9375C48.9375 63.6128 49.3672 64.6501 50.132 65.4149C50.8968 66.1797 51.934 66.6094 53.0156 66.6094H55.7344C56.816 66.6094 57.8532 66.1797 58.618 65.4149C59.3828 64.6501 59.8125 63.6128 59.8125 62.5312V59.8125C59.8125 58.7309 59.3828 57.6936 58.618 56.9288C57.8532 56.164 56.816 55.7344 55.7344 55.7344H53.0156C51.934 55.7344 50.8968 56.164 50.132 56.9288C49.3672 57.6936 48.9375 58.7309 48.9375 59.8125H32.625V55.7344C33.7066 55.7344 34.7439 55.3047 35.5087 54.5399C36.2735 53.7751 36.7031 52.7378 36.7031 51.6562V47.5781H55.7344C56.816 47.5781 57.8532 47.1485 58.618 46.3837C59.3828 45.6189 59.8125 44.5816 59.8125 43.5V27.1875C59.809 26.181 59.431 25.2119 58.7522 24.4688C59.431 23.7256 59.809 22.7565 59.8125 21.75V5.4375ZM10.875 62.5312C10.875 62.8918 10.7318 63.2375 10.4768 63.4925C10.2219 63.7474 9.87615 63.8906 9.51562 63.8906H6.79688C6.43635 63.8906 6.09058 63.7474 5.83565 63.4925C5.58072 63.2375 5.4375 62.8918 5.4375 62.5312V59.8125C5.4375 59.452 5.58072 59.1062 5.83565 58.8513C6.09058 58.5963 6.43635 58.4531 6.79688 58.4531H9.51562C9.87615 58.4531 10.2219 58.5963 10.4768 58.8513C10.7318 59.1062 10.875 59.452 10.875 59.8125V62.5312ZM51.6562 59.8125C51.6562 59.452 51.7995 59.1062 52.0544 58.8513C52.3093 58.5963 52.6551 58.4531 53.0156 58.4531H55.7344C56.0949 58.4531 56.4407 58.5963 56.6956 58.8513C56.9505 59.1062 57.0938 59.452 57.0938 59.8125V62.5312C57.0938 62.8918 56.9505 63.2375 56.6956 63.4925C56.4407 63.7474 56.0949 63.8906 55.7344 63.8906H53.0156C52.6551 63.8906 52.3093 63.7474 52.0544 63.4925C51.7995 63.2375 51.6562 62.8918 51.6562 62.5312V59.8125ZM57.0938 5.4375V21.75C57.0938 22.1105 56.9505 22.4563 56.6956 22.7112C56.4407 22.9662 56.0949 23.1094 55.7344 23.1094H46.2188V4.07812H55.7344C56.0949 4.07812 56.4407 4.22134 56.6956 4.47628C56.9505 4.73121 57.0938 5.07697 57.0938 5.4375ZM5.4375 5.4375C5.4375 5.07697 5.58072 4.73121 5.83565 4.47628C6.09058 4.22134 6.43635 4.07812 6.79688 4.07812H43.5V23.1094H6.79688C6.43635 23.1094 6.09058 22.9662 5.83565 22.7112C5.58072 22.4563 5.4375 22.1105 5.4375 21.75V5.4375ZM5.4375 43.5V27.1875C5.4375 26.827 5.58072 26.4812 5.83565 26.2263C6.09058 25.9713 6.43635 25.8281 6.79688 25.8281H43.5V44.8594H6.79688C6.43635 44.8594 6.09058 44.7162 5.83565 44.4612C5.58072 44.2063 5.4375 43.8605 5.4375 43.5ZM33.9844 51.6562C33.9844 52.0168 33.8412 52.3625 33.5862 52.6175C33.3313 52.8724 32.9855 53.0156 32.625 53.0156H29.9062C29.5457 53.0156 29.2 52.8724 28.945 52.6175C28.6901 52.3625 28.5469 52.0168 28.5469 51.6562V47.5781H33.9844V51.6562ZM57.0938 43.5C57.0938 43.8605 56.9505 44.2063 56.6956 44.4612C56.4407 44.7162 56.0949 44.8594 55.7344 44.8594H46.2188V25.8281H55.7344C56.0949 25.8281 56.4407 25.9713 56.6956 26.2263C56.9505 26.4812 57.0938 26.827 57.0938 27.1875V43.5Z" fill="#913BFF"/>
<path d="M50.2969 9.51562H53.0156C53.3762 9.51562 53.7219 9.37241 53.9768 9.11747C54.2318 8.86254 54.375 8.51678 54.375 8.15625C54.375 7.79572 54.2318 7.44996 53.9768 7.19503C53.7219 6.94009 53.3762 6.79688 53.0156 6.79688H50.2969C49.9363 6.79688 49.5906 6.94009 49.3357 7.19503C49.0807 7.44996 48.9375 7.79572 48.9375 8.15625C48.9375 8.51678 49.0807 8.86254 49.3357 9.11747C49.5906 9.37241 49.9363 9.51562 50.2969 9.51562Z" fill="#913BFF"/>
<path d="M50.2969 14.9531H53.0156C53.3762 14.9531 53.7219 14.8099 53.9768 14.555C54.2318 14.3 54.375 13.9543 54.375 13.5938C54.375 13.2332 54.2318 12.8875 53.9768 12.6325C53.7219 12.3776 53.3762 12.2344 53.0156 12.2344H50.2969C49.9363 12.2344 49.5906 12.3776 49.3357 12.6325C49.0807 12.8875 48.9375 13.2332 48.9375 13.5938C48.9375 13.9543 49.0807 14.3 49.3357 14.555C49.5906 14.8099 49.9363 14.9531 50.2969 14.9531Z" fill="#913BFF"/>
<path d="M53.0156 17.6719H50.2969C49.9363 17.6719 49.5906 17.8151 49.3357 18.07C49.0807 18.325 48.9375 18.6707 48.9375 19.0312C48.9375 19.3918 49.0807 19.7375 49.3357 19.9925C49.5906 20.2474 49.9363 20.3906 50.2969 20.3906H53.0156C53.3762 20.3906 53.7219 20.2474 53.9768 19.9925C54.2318 19.7375 54.375 19.3918 54.375 19.0312C54.375 18.6707 54.2318 18.325 53.9768 18.07C53.7219 17.8151 53.3762 17.6719 53.0156 17.6719Z" fill="#913BFF"/>
<path d="M53.0156 28.5469H50.2969C49.9363 28.5469 49.5906 28.6901 49.3357 28.945C49.0807 29.2 48.9375 29.5457 48.9375 29.9062C48.9375 30.2668 49.0807 30.6125 49.3357 30.8675C49.5906 31.1224 49.9363 31.2656 50.2969 31.2656H53.0156C53.3762 31.2656 53.7219 31.1224 53.9768 30.8675C54.2318 30.6125 54.375 30.2668 54.375 29.9062C54.375 29.5457 54.2318 29.2 53.9768 28.945C53.7219 28.6901 53.3762 28.5469 53.0156 28.5469Z" fill="#913BFF"/>
<path d="M53.0156 33.9844H50.2969C49.9363 33.9844 49.5906 34.1276 49.3357 34.3825C49.0807 34.6375 48.9375 34.9832 48.9375 35.3438C48.9375 35.7043 49.0807 36.05 49.3357 36.305C49.5906 36.5599 49.9363 36.7031 50.2969 36.7031H53.0156C53.3762 36.7031 53.7219 36.5599 53.9768 36.305C54.2318 36.05 54.375 35.7043 54.375 35.3438C54.375 34.9832 54.2318 34.6375 53.9768 34.3825C53.7219 34.1276 53.3762 33.9844 53.0156 33.9844Z" fill="#913BFF"/>
<path d="M53.0156 39.4219H50.2969C49.9363 39.4219 49.5906 39.5651 49.3357 39.82C49.0807 40.075 48.9375 40.4207 48.9375 40.7812C48.9375 41.1418 49.0807 41.4875 49.3357 41.7425C49.5906 41.9974 49.9363 42.1406 50.2969 42.1406H53.0156C53.3762 42.1406 53.7219 41.9974 53.9768 41.7425C54.2318 41.4875 54.375 41.1418 54.375 40.7812C54.375 40.4207 54.2318 40.075 53.9768 39.82C53.7219 39.5651 53.3762 39.4219 53.0156 39.4219Z" fill="#913BFF"/>
<path d="M9.51562 14.9531H39.4219C39.7824 14.9531 40.1282 14.8099 40.3831 14.555C40.638 14.3 40.7812 13.9543 40.7812 13.5938C40.7812 13.2332 40.638 12.8875 40.3831 12.6325C40.1282 12.3776 39.7824 12.2344 39.4219 12.2344H9.51562C9.1551 12.2344 8.80933 12.3776 8.5544 12.6325C8.29947 12.8875 8.15625 13.2332 8.15625 13.5938C8.15625 13.9543 8.29947 14.3 8.5544 14.555C8.80933 14.8099 9.1551 14.9531 9.51562 14.9531Z" fill="#913BFF"/>
<path d="M40.7812 35.3438C40.7812 34.9832 40.638 34.6375 40.3831 34.3825C40.1282 34.1276 39.7824 33.9844 39.4219 33.9844H9.51562C9.1551 33.9844 8.80933 34.1276 8.5544 34.3825C8.29947 34.6375 8.15625 34.9832 8.15625 35.3438C8.15625 35.7043 8.29947 36.05 8.5544 36.305C8.80933 36.5599 9.1551 36.7031 9.51562 36.7031H39.4219C39.7824 36.7031 40.1282 36.5599 40.3831 36.305C40.638 36.05 40.7812 35.7043 40.7812 35.3438Z" fill="#913BFF"/>
</svg>
