<svg width="51" height="51" viewBox="0 0 51 51" fill="none" xmlns="http://www.w3.org/2000/svg">
<path d="M47.8125 12.75H30.2812C30.07 12.7507 29.8676 12.8345 29.7179 12.9835L20.1554 22.546C20.0064 22.6957 19.9225 22.8982 19.9219 23.1094V45.4219C19.9219 46.0559 20.1737 46.664 20.6221 47.1123C21.0704 47.5606 21.6785 47.8125 22.3125 47.8125H47.8125C48.4465 47.8125 49.0546 47.5606 49.5029 47.1123C49.9513 46.664 50.2031 46.0559 50.2031 45.4219V15.1406C50.2031 14.5066 49.9513 13.8985 49.5029 13.4502C49.0546 13.0019 48.4465 12.75 47.8125 12.75ZM29.4844 15.4705V21.5156C29.4844 21.727 29.4004 21.9297 29.251 22.0791C29.1015 22.2285 28.8988 22.3125 28.6875 22.3125H22.6424L29.4844 15.4705ZM44.625 43.0312H25.5C25.2887 43.0312 25.086 42.9473 24.9365 42.7979C24.7871 42.6484 24.7031 42.4457 24.7031 42.2344C24.7031 42.023 24.7871 41.8203 24.9365 41.6709C25.086 41.5215 25.2887 41.4375 25.5 41.4375H44.625C44.8363 41.4375 45.039 41.5215 45.1885 41.6709C45.3379 41.8203 45.4219 42.023 45.4219 42.2344C45.4219 42.4457 45.3379 42.6484 45.1885 42.7979C45.039 42.9473 44.8363 43.0312 44.625 43.0312ZM44.625 38.25H25.5C25.2887 38.25 25.086 38.166 24.9365 38.0166C24.7871 37.8672 24.7031 37.6645 24.7031 37.4531C24.7031 37.2418 24.7871 37.0391 24.9365 36.8896C25.086 36.7402 25.2887 36.6562 25.5 36.6562H44.625C44.8363 36.6562 45.039 36.7402 45.1885 36.8896C45.3379 37.0391 45.4219 37.2418 45.4219 37.4531C45.4219 37.6645 45.3379 37.8672 45.1885 38.0166C45.039 38.166 44.8363 38.25 44.625 38.25ZM44.625 33.4688H25.5C25.2887 33.4688 25.086 33.3848 24.9365 33.2354C24.7871 33.0859 24.7031 32.8832 24.7031 32.6719C24.7031 32.4605 24.7871 32.2578 24.9365 32.1084C25.086 31.959 25.2887 31.875 25.5 31.875H44.625C44.8363 31.875 45.039 31.959 45.1885 32.1084C45.3379 32.2578 45.4219 32.4605 45.4219 32.6719C45.4219 32.8832 45.3379 33.0859 45.1885 33.2354C45.039 33.3848 44.8363 33.4688 44.625 33.4688ZM44.625 28.6875H25.5C25.2887 28.6875 25.086 28.6035 24.9365 28.4541C24.7871 28.3047 24.7031 28.102 24.7031 27.8906C24.7031 27.6793 24.7871 27.4766 24.9365 27.3271C25.086 27.1777 25.2887 27.0938 25.5 27.0938H44.625C44.8363 27.0938 45.039 27.1777 45.1885 27.3271C45.3379 27.4766 45.4219 27.6793 45.4219 27.8906C45.4219 28.102 45.3379 28.3047 45.1885 28.4541C45.039 28.6035 44.8363 28.6875 44.625 28.6875ZM44.625 23.9062H35.0625C34.8512 23.9062 34.6485 23.8223 34.499 23.6729C34.3496 23.5234 34.2656 23.3207 34.2656 23.1094C34.2656 22.898 34.3496 22.6953 34.499 22.5459C34.6485 22.3965 34.8512 22.3125 35.0625 22.3125H44.625C44.8363 22.3125 45.039 22.3965 45.1885 22.5459C45.3379 22.6953 45.4219 22.898 45.4219 23.1094C45.4219 23.3207 45.3379 23.5234 45.1885 23.6729C45.039 23.8223 44.8363 23.9062 44.625 23.9062ZM44.625 19.125H35.0625C34.8512 19.125 34.6485 19.041 34.499 18.8916C34.3496 18.7422 34.2656 18.5395 34.2656 18.3281C34.2656 18.1168 34.3496 17.9141 34.499 17.7646C34.6485 17.6152 34.8512 17.5312 35.0625 17.5312H44.625C44.8363 17.5312 45.039 17.6152 45.1885 17.7646C45.3379 17.9141 45.4219 18.1168 45.4219 18.3281C45.4219 18.5395 45.3379 18.7422 45.1885 18.8916C45.039 19.041 44.8363 19.125 44.625 19.125Z" fill="#3D8DFD" fill-opacity="0.13"/>
<path d="M38.25 7.96876H35.3924L31.3116 3.88797C31.0902 3.66508 30.8266 3.4884 30.5364 3.36816C30.2461 3.24791 29.9348 3.18651 29.6206 3.18751C27.2627 3.19389 5.02031 3.18751 3.1875 3.18751C2.55347 3.18751 1.9454 3.43938 1.49707 3.88771C1.04874 4.33604 0.796875 4.9441 0.796875 5.57814V35.8594C0.796875 36.4934 1.04874 37.1015 1.49707 37.5498C1.9454 37.9981 2.55347 38.25 3.1875 38.25H38.25C38.884 38.25 39.4921 37.9981 39.9404 37.5498C40.3888 37.1015 40.6406 36.4934 40.6406 35.8594V10.3594C40.6406 9.72535 40.3888 9.11729 39.9404 8.66896C39.4921 8.22063 38.884 7.96876 38.25 7.96876ZM30.1848 5.01475L33.1388 7.96876H25.8299L22.6424 4.78126H29.6206C29.7254 4.78118 29.8292 4.80176 29.926 4.84182C30.0228 4.88189 30.1108 4.94065 30.1848 5.01475ZM20.6223 5.01475L23.5763 7.96876H16.2674L13.0799 4.78126H20.0581C20.1629 4.78118 20.2667 4.80176 20.3635 4.84182C20.4603 4.88189 20.5483 4.94065 20.6223 5.01475ZM39.0469 35.8594C39.0469 36.0707 38.9629 36.2734 38.8135 36.4229C38.664 36.5723 38.4613 36.6563 38.25 36.6563H3.1875C2.97616 36.6563 2.77347 36.5723 2.62402 36.4229C2.47458 36.2734 2.39062 36.0707 2.39062 35.8594V5.57814C2.39062 5.36679 2.47458 5.1641 2.62402 5.01466C2.77347 4.86522 2.97616 4.78126 3.1875 4.78126H10.8263L15.3741 9.32903C15.5235 9.47848 15.7262 9.56247 15.9375 9.56251H38.25C38.4613 9.56251 38.664 9.64647 38.8135 9.79591C38.9629 9.94535 39.0469 10.148 39.0469 10.3594V35.8594Z" fill="#3D8DFD"/>
<path d="M35.0625 15.1406H6.375C6.16366 15.1406 5.96097 15.2246 5.81152 15.374C5.66208 15.5235 5.57812 15.7262 5.57812 15.9375V32.6719C5.57812 32.8832 5.66208 33.0859 5.81152 33.2354C5.96097 33.3848 6.16366 33.4688 6.375 33.4688H35.0625C35.2738 33.4688 35.4765 33.3848 35.626 33.2354C35.7754 33.0859 35.8594 32.8832 35.8594 32.6719V15.9375C35.8594 15.7262 35.7754 15.5235 35.626 15.374C35.4765 15.2246 35.2738 15.1406 35.0625 15.1406ZM34.2656 31.875H7.17188V16.7344H34.2656V31.875Z" fill="#3D8DFD"/>
<path d="M31.0781 28.6875H25.5C25.2887 28.6875 25.086 28.7715 24.9365 28.9209C24.7871 29.0703 24.7031 29.273 24.7031 29.4844C24.7031 29.6957 24.7871 29.8984 24.9365 30.0479C25.086 30.1973 25.2887 30.2812 25.5 30.2812H31.0781C31.2895 30.2812 31.4922 30.1973 31.6416 30.0479C31.791 29.8984 31.875 29.6957 31.875 29.4844C31.875 29.273 31.791 29.0703 31.6416 28.9209C31.4922 28.7715 31.2895 28.6875 31.0781 28.6875Z" fill="#3D8DFD"/>
<path d="M23.1094 27.0938H31.0781C31.2895 27.0938 31.4922 27.0098 31.6416 26.8604C31.791 26.7109 31.875 26.5082 31.875 26.2969C31.875 26.0855 31.791 25.8828 31.6416 25.7334C31.4922 25.584 31.2895 25.5 31.0781 25.5H23.1094C22.898 25.5 22.6953 25.584 22.5459 25.7334C22.3965 25.8828 22.3125 26.0855 22.3125 26.2969C22.3125 26.5082 22.3965 26.7109 22.5459 26.8604C22.6953 27.0098 22.898 27.0938 23.1094 27.0938Z" fill="#3D8DFD"/>
</svg>
