<svg width="49" height="49" viewBox="0 0 49 49" fill="none" xmlns="http://www.w3.org/2000/svg">
<path d="M43.9719 31.5828C44.2596 29.9364 44.2596 28.2526 43.9719 26.6062L47.3047 22.3708C47.3994 22.2505 47.4559 22.1045 47.4668 21.9518C47.4777 21.7991 47.4426 21.6466 47.366 21.5141L45.0691 17.5328C44.9926 17.4003 44.8783 17.2938 44.7407 17.227C44.6031 17.1601 44.4487 17.136 44.2973 17.1577L38.9471 17.9302C37.6701 16.8611 36.2177 16.0211 34.6543 15.4472L32.6491 10.4339C32.5922 10.2919 32.494 10.1702 32.3672 10.0845C32.2404 9.99875 32.0909 9.95301 31.9378 9.95313H27.3441C27.1912 9.95316 27.0418 9.99898 26.9152 10.0847C26.7885 10.1704 26.6905 10.292 26.6336 10.4339L24.6284 15.4472C23.065 16.0211 21.6126 16.8611 20.3356 17.9302L14.9854 17.1592C14.834 17.1375 14.6796 17.1616 14.542 17.2285C14.4044 17.2954 14.2901 17.4019 14.2136 17.5343L11.9167 21.5156C11.8401 21.6481 11.805 21.8006 11.8159 21.9534C11.8268 22.1061 11.8833 22.252 11.978 22.3723L15.3123 26.6047C15.0236 28.251 15.0236 29.935 15.3123 31.5813L11.9795 35.8167C11.8848 35.937 11.8284 36.0829 11.8174 36.2357C11.8065 36.3884 11.8416 36.5409 11.9183 36.6734L14.2152 40.6547C14.2911 40.7876 14.4054 40.8945 14.5431 40.9614C14.6808 41.0283 14.8355 41.0522 14.9869 41.0298L20.3371 40.2589C21.6141 41.3279 23.0665 42.1679 24.6299 42.7418L26.6351 47.7551C26.692 47.897 26.7901 48.0187 26.9167 48.1044C27.0433 48.19 27.1927 48.2359 27.3456 48.2359H31.9394C32.0924 48.236 32.242 48.1903 32.3687 48.1046C32.4955 48.0189 32.5937 47.8971 32.6506 47.7551L34.6558 42.7418C36.2193 42.1679 37.6716 41.3279 38.9487 40.2589L44.2989 41.0298C44.4503 41.0515 44.6047 41.0274 44.7422 40.9605C44.8798 40.8937 44.9942 40.7871 45.0706 40.6547L47.3675 36.6734C47.4441 36.5409 47.4792 36.3884 47.4683 36.2357C47.4574 36.0829 47.4009 35.937 47.3062 35.8167L43.9719 31.5828ZM29.641 37.5156C27.9753 37.5156 26.347 37.0217 24.962 36.0963C23.5771 35.1709 22.4976 33.8556 21.8602 32.3167C21.2227 30.7778 21.056 29.0844 21.3809 27.4507C21.7059 25.817 22.508 24.3164 23.6858 23.1386C24.8636 21.9608 26.3643 21.1587 27.9979 20.8337C29.6316 20.5087 31.325 20.6755 32.8639 21.313C34.4028 21.9504 35.7181 23.0298 36.6435 24.4148C37.5689 25.7998 38.0628 27.4281 38.0628 29.0937C38.0602 31.3266 37.1721 33.4672 35.5932 35.046C34.0144 36.6248 31.8738 37.513 29.641 37.5156Z" fill="#EEE5FD"/>
<path d="M29.6411 35.9844C33.4467 35.9844 36.5317 32.8993 36.5317 29.0938C36.5317 25.2882 33.4467 22.2031 29.6411 22.2031C25.8355 22.2031 22.7505 25.2882 22.7505 29.0938C22.7505 32.8993 25.8355 35.9844 29.6411 35.9844Z" fill="#EEE5FD"/>
<path d="M31.3906 0.765625H3.82812C3.21896 0.765625 2.63474 1.00762 2.20399 1.43836C1.77324 1.86911 1.53125 2.45333 1.53125 3.0625V26.7969C1.53125 27.406 1.77324 27.9903 2.20399 28.421C2.63474 28.8518 3.21896 29.0938 3.82812 29.0938H31.3906C31.9998 29.0938 32.584 28.8518 33.0148 28.421C33.4455 27.9903 33.6875 27.406 33.6875 26.7969V3.0625C33.6875 2.45333 33.4455 1.86911 33.0148 1.43836C32.584 1.00762 31.9998 0.765625 31.3906 0.765625ZM32.1562 3.0625V4.59375H14.0523C13.8991 4.59428 13.7494 4.5486 13.6227 4.46268C13.4959 4.37677 13.398 4.25461 13.3418 4.11217L12.6152 2.29688H31.3906C31.5937 2.29688 31.7884 2.37754 31.932 2.52112C32.0756 2.6647 32.1562 2.85944 32.1562 3.0625ZM31.3906 27.5625H3.82812C3.62507 27.5625 3.43033 27.4818 3.28675 27.3383C3.14316 27.1947 3.0625 26.9999 3.0625 26.7969V3.0625C3.0625 2.85944 3.14316 2.6647 3.28675 2.52112C3.43033 2.37754 3.62507 2.29688 3.82812 2.29688H10.966L11.9192 4.68103C12.0886 5.10813 12.3827 5.47432 12.7631 5.73188C13.1436 5.98944 13.5928 6.12643 14.0523 6.125H32.1562V26.7969C32.1562 26.9999 32.0756 27.1947 31.932 27.3383C31.7884 27.4818 31.5937 27.5625 31.3906 27.5625Z" fill="#913BFF"/>
<path d="M11.8673 10.82C11.691 10.7194 11.482 10.6928 11.2862 10.7462C11.0903 10.7996 10.9237 10.9286 10.823 11.1048L7.76048 16.4642C7.69442 16.5799 7.65967 16.7107 7.65967 16.8439C7.65967 16.9771 7.69442 17.108 7.76048 17.2237L10.823 22.5831C10.9263 22.7543 11.0924 22.8783 11.2859 22.9286C11.4793 22.9789 11.6848 22.9515 11.8584 22.8523C12.032 22.7532 12.1599 22.59 12.2148 22.3978C12.2696 22.2055 12.2472 21.9994 12.1521 21.8236L9.30398 16.8439L12.149 11.8674C12.1995 11.7802 12.2322 11.6838 12.2454 11.5839C12.2585 11.484 12.2518 11.3825 12.2256 11.2852C12.1994 11.1879 12.1543 11.0967 12.0928 11.0169C12.0313 10.9371 11.9547 10.8702 11.8673 10.82Z" fill="#913BFF"/>
<path d="M24.3987 11.1016C24.2955 10.9304 24.1293 10.8064 23.9359 10.7561C23.7424 10.7058 23.5369 10.7331 23.3633 10.8323C23.1897 10.9315 23.0618 11.0947 23.007 11.2869C22.9521 11.4791 22.9746 11.6852 23.0696 11.8611L25.9147 16.8438L23.0696 21.8203C22.9746 21.9962 22.9521 22.2023 23.007 22.3945C23.0618 22.5868 23.1897 22.7499 23.3633 22.8491C23.5369 22.9483 23.7424 22.9757 23.9359 22.9253C24.1293 22.875 24.2955 22.751 24.3987 22.5798L27.4612 17.2205C27.5273 17.1048 27.5621 16.9739 27.5621 16.8407C27.5621 16.7075 27.5273 16.5766 27.4612 16.461L24.3987 11.1016Z" fill="#913BFF"/>
<path d="M20.2078 10.7807C20.0212 10.7007 19.8105 10.6981 19.6219 10.7735C19.4334 10.8489 19.2826 10.996 19.2025 11.1826L14.6088 21.9014C14.5675 21.994 14.545 22.094 14.5427 22.1954C14.5403 22.2969 14.5582 22.3978 14.5952 22.4922C14.6322 22.5867 14.6876 22.6729 14.7582 22.7458C14.8288 22.8186 14.9132 22.8767 15.0064 22.9167C15.0997 22.9567 15.1999 22.9778 15.3014 22.9786C15.4029 22.9795 15.5035 22.9602 15.5974 22.9219C15.6914 22.8836 15.7767 22.8269 15.8486 22.7553C15.9205 22.6837 15.9774 22.5985 16.016 22.5047L20.6098 11.7859C20.6897 11.5993 20.6923 11.3886 20.617 11.2001C20.5416 11.0115 20.3944 10.8607 20.2078 10.7807Z" fill="#913BFF"/>
</svg>
