<svg width="89" height="89" viewBox="0 0 89 89" fill="none" xmlns="http://www.w3.org/2000/svg">
<path d="M77.8945 43.1775C77.8961 42.6295 77.7888 42.0865 77.579 41.5802C77.3692 41.0739 77.0609 40.6143 76.6721 40.228L66.8404 30.3949C66.0455 29.6364 64.989 29.2131 63.8902 29.2131C62.7915 29.2131 61.7349 29.6364 60.94 30.3949L53.0732 38.2603C52.6858 38.6477 52.3784 39.1076 52.1687 39.6138C51.959 40.12 51.8511 40.6626 51.8511 41.2105C51.8511 41.7584 51.959 42.301 52.1687 42.8072C52.3784 43.3134 52.6858 43.7733 53.0732 44.1607L62.9063 53.9938C63.2938 54.3813 63.7537 54.6886 64.2599 54.8983C64.7661 55.108 65.3086 55.216 65.8566 55.216C66.4045 55.216 66.947 55.108 67.4532 54.8983C67.9594 54.6886 68.4194 54.3813 68.8068 53.9938L76.6721 46.127C77.0609 45.7407 77.3692 45.2811 77.579 44.7748C77.7888 44.2685 77.8961 43.7256 77.8945 43.1775Z" fill="#EEE5FD" fill-opacity="0.4"/>
<path d="M51.1069 46.1272C51.0791 46.0994 51.0596 46.0646 51.0318 46.0354L20.7648 74.6183C20.3598 75.0014 20.0356 75.4617 19.8115 75.9722C19.5874 76.4826 19.4678 77.0328 19.4599 77.5902C19.452 78.1477 19.5559 78.701 19.7654 79.2176C19.975 79.7342 20.286 80.2036 20.68 80.598L26.4664 86.3844C26.8609 86.7783 27.3303 87.0892 27.847 87.2986C28.3636 87.5081 28.917 87.6118 29.4744 87.6038C30.0319 87.5958 30.582 87.4761 31.0924 87.2518C31.6028 87.0276 32.0631 86.7033 32.4461 86.2982L61.0318 56.0423C61.0026 56.0145 60.9678 55.9951 60.94 55.9672L51.1069 46.1272Z" fill="#EEE5FD" fill-opacity="0.4"/>
<path d="M50.2238 37.3773C50.4811 36.9875 50.777 36.6246 51.1069 36.294L58.9736 28.4286C59.2497 28.1597 59.5478 27.9145 59.865 27.6957C53.1485 22.5217 44.8365 19.8545 36.3635 20.1544C36.0885 20.1544 35.8197 20.236 35.591 20.3888C35.3624 20.5416 35.1842 20.7588 35.079 21.0129C34.9738 21.2669 34.9462 21.5465 34.9998 21.8162C35.0535 22.0859 35.1859 22.3337 35.3803 22.5282L50.2238 37.3773Z" fill="#EEE5FD" fill-opacity="0.4"/>
<path d="M79.3729 47.2021C79.1531 47.519 78.9076 47.8172 78.6386 48.0935L70.7732 55.9603C70.4427 56.2903 70.0798 56.5861 69.6899 56.8433L84.539 71.6938C84.7335 71.8883 84.9813 72.0207 85.251 72.0743C85.5207 72.1279 85.8003 72.1004 86.0543 71.9952C86.3084 71.8899 86.5256 71.7117 86.6784 71.4831C86.8312 71.2545 86.9128 70.9857 86.9128 70.7107C87.2874 62.2255 84.6128 53.8865 79.3729 47.2021Z" fill="#EEE5FD" fill-opacity="0.4"/>
<path d="M31.2891 1.39062C14.9131 1.39062 2.08594 6.88777 2.08594 13.9062V47.2812C2.08594 54.2997 14.9131 59.7969 31.2891 59.7969C47.6651 59.7969 60.4922 54.2997 60.4922 47.2812V13.9062C60.4922 6.88777 47.6637 1.39062 31.2891 1.39062ZM57.7109 30.5938C57.7109 35.1981 46.8641 40.3281 31.2891 40.3281C15.7141 40.3281 4.86719 35.1981 4.86719 30.5938V19.2935C9.48823 23.5391 19.4465 26.4219 31.2891 26.4219C43.1316 26.4219 53.0899 23.5391 57.7109 19.2935V30.5938ZM31.2891 4.17188C46.8641 4.17188 57.7109 9.30189 57.7109 13.9062C57.7109 18.5106 46.8641 23.6406 31.2891 23.6406C15.7141 23.6406 4.86719 18.5106 4.86719 13.9062C4.86719 9.30189 15.7141 4.17188 31.2891 4.17188ZM31.2891 57.0156C15.7141 57.0156 4.86719 51.8856 4.86719 47.2812V35.981C9.48823 40.2266 19.4465 43.1094 31.2891 43.1094C43.1316 43.1094 53.0899 40.2266 57.7109 35.981V47.2812C57.7109 51.8856 46.8641 57.0156 31.2891 57.0156Z" fill="#913BFF" fill-opacity="0.1"/>
<path d="M9.84956 16.2467C13.3678 18.4758 20.848 20.8594 31.2888 20.8594C41.7296 20.8594 49.2098 18.4758 52.7281 16.2467C53.1218 15.9961 53.4459 15.6502 53.6704 15.2411C53.895 14.8321 54.0127 14.3729 54.0127 13.9062C54.0127 13.4396 53.895 12.9804 53.6704 12.5714C53.4459 12.1623 53.1218 11.8164 52.7281 11.5658C49.2098 9.33666 41.7296 6.95312 31.2888 6.95312C20.848 6.95312 13.3678 9.33666 9.84956 11.5658C9.45587 11.8164 9.13175 12.1623 8.90721 12.5714C8.68266 12.9804 8.56494 13.4396 8.56494 13.9062C8.56494 14.3729 8.68266 14.8321 8.90721 15.2411C9.13175 15.6502 9.45587 15.9961 9.84956 16.2467ZM31.2888 9.73438C43.9991 9.73438 50.1387 13.2179 51.2401 13.8965C50.1387 14.6016 43.9991 18.0781 31.2888 18.0781C18.5785 18.0781 12.4403 14.6016 11.3375 13.916C12.4403 13.2179 18.5785 9.73438 31.2888 9.73438Z" fill="#913BFF" fill-opacity="0.1"/>
<path d="M15.0021 29.8177C14.8271 29.7651 14.6435 29.7475 14.4618 29.7658C14.28 29.7842 14.1036 29.8382 13.9427 29.9247C13.7818 30.0112 13.6396 30.1286 13.524 30.2701C13.4085 30.4116 13.3219 30.5745 13.2693 30.7494C13.2168 30.9244 13.1991 31.108 13.2175 31.2897C13.2359 31.4715 13.2898 31.6478 13.3764 31.8087C13.4629 31.9696 13.5802 32.1119 13.7217 32.2275C13.8632 32.343 14.0261 32.4295 14.2011 32.4821C19.7585 34.0568 25.5132 34.8257 31.2891 34.7655C37.065 34.8257 42.8196 34.0568 48.3771 32.4821C48.7304 32.3759 49.0271 32.1337 49.2018 31.8087C49.3765 31.4838 49.415 31.1027 49.3088 30.7494C49.2026 30.3961 48.9603 30.0994 48.6354 29.9247C48.3104 29.75 47.9294 29.7115 47.5761 29.8177C42.2786 31.3151 36.7937 32.0447 31.2891 31.9843C25.7844 32.0447 20.2995 31.3151 15.0021 29.8177Z" fill="#913BFF" fill-opacity="0.1"/>
<path d="M47.5761 46.5052C42.2786 48.0026 36.7937 48.7322 31.2891 48.6718C25.7844 48.7322 20.2995 48.0026 15.0021 46.5052C14.6487 46.399 14.2677 46.4375 13.9427 46.6122C13.6178 46.7869 13.3756 47.0836 13.2693 47.4369C13.1631 47.7902 13.2016 48.1713 13.3764 48.4962C13.5511 48.8212 13.8477 49.0634 14.2011 49.1696C19.7585 50.7443 25.5132 51.5132 31.2891 51.453C37.065 51.5132 42.8196 50.7443 48.3771 49.1696C48.552 49.117 48.7149 49.0305 48.8564 48.915C48.9979 48.7994 49.1153 48.6571 49.2018 48.4962C49.2883 48.3353 49.3423 48.159 49.3606 47.9772C49.379 47.7955 49.3614 47.6119 49.3088 47.4369C49.2562 47.262 49.1697 47.0991 49.0541 46.9576C48.9386 46.8161 48.7963 46.6987 48.6354 46.6122C48.4745 46.5257 48.2981 46.4717 48.1164 46.4533C47.9346 46.435 47.751 46.4526 47.5761 46.5052Z" fill="#913BFF" fill-opacity="0.1"/>
</svg>
