<svg width="51" height="51" viewBox="0 0 51 51" fill="none" xmlns="http://www.w3.org/2000/svg">
<g clip-path="url(#clip0_233_6439)">
<path d="M47.8125 19.9219H17.5312C16.8972 19.9219 16.2892 20.1737 15.8408 20.6221C15.3925 21.0704 15.1406 21.6785 15.1406 22.3125V47.8125C15.1406 48.4465 15.3925 49.0546 15.8408 49.5029C16.2892 49.9513 16.8972 50.2031 17.5312 50.2031H47.8125C48.4465 50.2031 49.0546 49.9513 49.5029 49.5029C49.9513 49.0546 50.2031 48.4465 50.2031 47.8125V22.3125C50.2031 21.6785 49.9513 21.0704 49.5029 20.6221C49.0546 20.1737 48.4465 19.9219 47.8125 19.9219ZM27.0938 45.4219H20.7188C20.5074 45.4219 20.3047 45.3379 20.1553 45.1885C20.0058 45.039 19.9219 44.8363 19.9219 44.625C19.9219 44.4137 20.0058 44.211 20.1553 44.0615C20.3047 43.9121 20.5074 43.8281 20.7188 43.8281H27.0938C27.3051 43.8281 27.5078 43.9121 27.6572 44.0615C27.8067 44.211 27.8906 44.4137 27.8906 44.625C27.8906 44.8363 27.8067 45.039 27.6572 45.1885C27.5078 45.3379 27.3051 45.4219 27.0938 45.4219ZM26.0634 39.2804C26.2085 39.4307 26.2889 39.6319 26.2871 39.8409C26.2852 40.0498 26.2014 40.2497 26.0537 40.3974C25.9059 40.5452 25.7061 40.629 25.4971 40.6308C25.2882 40.6326 25.0869 40.5523 24.9366 40.4071L20.1554 35.6259C20.006 35.4765 19.922 35.2738 19.922 35.0625C19.922 34.8512 20.006 34.6485 20.1554 34.4991L24.9366 29.7179C25.0869 29.5727 25.2882 29.4924 25.4971 29.4942C25.7061 29.496 25.9059 29.5798 26.0537 29.7276C26.2014 29.8753 26.2852 30.0752 26.2871 30.2841C26.2889 30.4931 26.2085 30.6943 26.0634 30.8446L21.8455 35.0625L26.0634 39.2804ZM38.25 45.4219H30.2812C30.0699 45.4219 29.8672 45.3379 29.7178 45.1885C29.5683 45.039 29.4844 44.8363 29.4844 44.625C29.4844 44.4137 29.5683 44.211 29.7178 44.0615C29.8672 43.9121 30.0699 43.8281 30.2812 43.8281H38.25C38.4613 43.8281 38.664 43.9121 38.8135 44.0615C38.9629 44.211 39.0469 44.4137 39.0469 44.625C39.0469 44.8363 38.9629 45.039 38.8135 45.1885C38.664 45.3379 38.4613 45.4219 38.25 45.4219ZM29.5641 39.4875L34.3453 29.925C34.4398 29.7359 34.6055 29.592 34.8061 29.5251C35.0066 29.4581 35.2256 29.4736 35.4147 29.568C35.6039 29.6625 35.7477 29.8283 35.8147 30.0288C35.8816 30.2294 35.8662 30.4483 35.7717 30.6375L30.9905 40.2C30.9437 40.2936 30.8789 40.3771 30.7999 40.4458C30.7208 40.5144 30.629 40.5668 30.5297 40.5999C30.4304 40.6331 30.3255 40.6464 30.2211 40.639C30.1167 40.6316 30.0147 40.6037 29.9211 40.557C29.8274 40.5102 29.7439 40.4454 29.6752 40.3664C29.6066 40.2873 29.5542 40.1955 29.5211 40.0962C29.4879 39.9969 29.4747 39.892 29.482 39.7876C29.4894 39.6832 29.5173 39.5812 29.5641 39.4875ZM44.625 45.4219H41.4375C41.2262 45.4219 41.0235 45.3379 40.874 45.1885C40.7246 45.039 40.6406 44.8363 40.6406 44.625C40.6406 44.4137 40.7246 44.211 40.874 44.0615C41.0235 43.9121 41.2262 43.8281 41.4375 43.8281H44.625C44.8363 43.8281 45.039 43.9121 45.1885 44.0615C45.3379 44.211 45.4219 44.4137 45.4219 44.625C45.4219 44.8363 45.3379 45.039 45.1885 45.1885C45.039 45.3379 44.8363 45.4219 44.625 45.4219ZM45.1884 35.6259L40.4071 40.4071C40.2568 40.5523 40.0556 40.6326 39.8466 40.6308C39.6377 40.629 39.4378 40.5452 39.2901 40.3974C39.1423 40.2497 39.0585 40.0498 39.0567 39.8409C39.0549 39.6319 39.1352 39.4307 39.2804 39.2804L43.4982 35.0625L39.2804 30.8446C39.1352 30.6943 39.0549 30.4931 39.0567 30.2841C39.0585 30.0752 39.1423 29.8753 39.2901 29.7276C39.4378 29.5798 39.6377 29.496 39.8466 29.4942C40.0556 29.4924 40.2568 29.5727 40.4071 29.7179L45.1884 34.4991C45.3378 34.6485 45.4217 34.8512 45.4217 35.0625C45.4217 35.2738 45.3378 35.4765 45.1884 35.6259ZM48.6094 24.7031H16.7344V22.3125C16.7344 22.1012 16.8183 21.8985 16.9678 21.749C17.1172 21.5996 17.3199 21.5156 17.5312 21.5156H47.8125C48.0238 21.5156 48.2265 21.5996 48.376 21.749C48.5254 21.8985 48.6094 22.1012 48.6094 22.3125V24.7031Z" fill="#3D8DFD" fill-opacity="0.13"/>
<path d="M38.25 0.796875H3.1875C2.55347 0.796875 1.9454 1.04874 1.49707 1.49707C1.04874 1.9454 0.796875 2.55347 0.796875 3.1875V28.6875C0.796875 29.3215 1.04874 29.9296 1.49707 30.3779C1.9454 30.8263 2.55347 31.0781 3.1875 31.0781H38.25C38.884 31.0781 39.4921 30.8263 39.9404 30.3779C40.3888 29.9296 40.6406 29.3215 40.6406 28.6875V3.1875C40.6406 2.55347 40.3888 1.9454 39.9404 1.49707C39.4921 1.04874 38.884 0.796875 38.25 0.796875ZM24.6234 17.4444L23.5604 15.8506C23.4148 15.6321 23.2174 15.4529 22.9857 15.329C22.7541 15.2051 22.4955 15.1404 22.2328 15.1406H15.9789L17.5727 11.9531H26.1917L28.1177 15.1637C28.26 15.3991 28.4604 15.594 28.6998 15.7295C28.9391 15.865 29.2093 15.9367 29.4844 15.9375H39.0469V20.7188H29.4844C29.2093 20.7196 28.9391 20.7912 28.6998 20.9267C28.4604 21.0623 28.26 21.2571 28.1177 21.4925L26.1909 24.7031H17.5727L15.9789 21.5156H22.2328C22.4952 21.5156 22.7535 21.4507 22.9848 21.3269C23.2162 21.203 23.4133 21.024 23.5588 20.8056L24.6218 19.2119C24.7974 18.9506 24.8913 18.6431 24.8916 18.3284C24.8918 18.0136 24.7985 17.7059 24.6234 17.4444ZM3.1875 2.39062H38.25C38.4613 2.39062 38.664 2.47458 38.8135 2.62402C38.9629 2.77347 39.0469 2.97616 39.0469 3.1875V5.57812H2.39062V3.1875C2.39062 2.97616 2.47458 2.77347 2.62402 2.62402C2.77347 2.47458 2.97616 2.39062 3.1875 2.39062ZM38.25 29.4844H3.1875C2.97616 29.4844 2.77347 29.4004 2.62402 29.251C2.47458 29.1015 2.39062 28.8988 2.39062 28.6875V7.17188H39.0469V14.3438H29.4844L27.5575 11.1315C27.415 10.8965 27.2144 10.7021 26.9751 10.5669C26.7358 10.4317 26.4658 10.3602 26.1909 10.3594H17.5727C17.2765 10.3583 16.986 10.4402 16.734 10.5959C16.482 10.7515 16.2787 10.9746 16.1471 11.2399L14.5533 14.4274C14.4317 14.6704 14.3743 14.9405 14.3864 15.212C14.3986 15.4834 14.48 15.7473 14.6228 15.9784C14.7657 16.2096 14.9653 16.4004 15.2026 16.5327C15.44 16.665 15.7072 16.7344 15.9789 16.7344H22.2328L23.2958 18.3281L22.2328 19.9219H15.9789C15.7067 19.9215 15.4388 19.9908 15.2009 20.1234C14.9631 20.2559 14.7631 20.4471 14.6202 20.6789C14.4772 20.9106 14.396 21.1751 14.3843 21.4471C14.3726 21.7192 14.4308 21.9897 14.5533 22.2328L16.1471 25.4203C16.2791 25.685 16.4826 25.9074 16.7346 26.0623C16.9866 26.2173 17.2769 26.2985 17.5727 26.2969H26.1909C26.466 26.296 26.7364 26.2244 26.9758 26.0889C27.2153 25.9534 27.4159 25.7585 27.5583 25.5231L29.4844 22.3125H39.0469V28.6875C39.0469 28.8988 38.9629 29.1015 38.8135 29.251C38.664 29.4004 38.4613 29.4844 38.25 29.4844Z" fill="#3D8DFD"/>
<path d="M13.5469 10.3594H6.375C6.16366 10.3594 5.96097 10.4433 5.81152 10.5928C5.66208 10.7422 5.57812 10.9449 5.57812 11.1562C5.57812 11.3676 5.66208 11.5703 5.81152 11.7197C5.96097 11.8692 6.16366 11.9531 6.375 11.9531H13.5469C13.7582 11.9531 13.9609 11.8692 14.1104 11.7197C14.2598 11.5703 14.3438 11.3676 14.3438 11.1562C14.3438 10.9449 14.2598 10.7422 14.1104 10.5928C13.9609 10.4433 13.7582 10.3594 13.5469 10.3594Z" fill="#3D8DFD"/>
<path d="M6.375 16.7344H11.1562C11.3676 16.7344 11.5703 16.6504 11.7197 16.501C11.8692 16.3515 11.9531 16.1488 11.9531 15.9375C11.9531 15.7262 11.8692 15.5235 11.7197 15.374C11.5703 15.2246 11.3676 15.1406 11.1562 15.1406H6.375C6.16366 15.1406 5.96097 15.2246 5.81152 15.374C5.66208 15.5235 5.57812 15.7262 5.57812 15.9375C5.57812 16.1488 5.66208 16.3515 5.81152 16.501C5.96097 16.6504 6.16366 16.7344 6.375 16.7344Z" fill="#3D8DFD"/>
<path d="M6.375 21.5156H11.1562C11.3676 21.5156 11.5703 21.4317 11.7197 21.2822C11.8692 21.1328 11.9531 20.9301 11.9531 20.7188C11.9531 20.5074 11.8692 20.3047 11.7197 20.1553C11.5703 20.0058 11.3676 19.9219 11.1562 19.9219H6.375C6.16366 19.9219 5.96097 20.0058 5.81152 20.1553C5.66208 20.3047 5.57812 20.5074 5.57812 20.7188C5.57812 20.9301 5.66208 21.1328 5.81152 21.2822C5.96097 21.4317 6.16366 21.5156 6.375 21.5156Z" fill="#3D8DFD"/>
<path d="M13.5469 24.7031H6.375C6.16366 24.7031 5.96097 24.7871 5.81152 24.9365C5.66208 25.086 5.57812 25.2887 5.57812 25.5C5.57812 25.7113 5.66208 25.914 5.81152 26.0635C5.96097 26.2129 6.16366 26.2969 6.375 26.2969H13.5469C13.7582 26.2969 13.9609 26.2129 14.1104 26.0635C14.2598 25.914 14.3438 25.7113 14.3438 25.5C14.3438 25.2887 14.2598 25.086 14.1104 24.9365C13.9609 24.7871 13.7582 24.7031 13.5469 24.7031Z" fill="#3D8DFD"/>
</g>
<defs>
<clipPath id="clip0_233_6439">
<rect width="51" height="51" fill="white"/>
</clipPath>
</defs>
</svg>
