<svg width="49" height="49" viewBox="0 0 49 49" fill="none" xmlns="http://www.w3.org/2000/svg">
<path d="M42.8859 23.772C42.8867 23.4703 42.8277 23.1713 42.7122 22.8926C42.5967 22.6138 42.4269 22.3608 42.2129 22.1481L36.7999 16.7344C36.3623 16.3167 35.7806 16.0837 35.1757 16.0837C34.5707 16.0837 33.989 16.3167 33.5514 16.7344L29.2202 21.0648C29.0069 21.278 28.8377 21.5313 28.7222 21.81C28.6068 22.0887 28.5474 22.3874 28.5474 22.689C28.5474 22.9907 28.6068 23.2894 28.7222 23.5681C28.8377 23.8468 29.0069 24.1 29.2202 24.3133L34.634 29.727C34.8473 29.9404 35.1005 30.1096 35.3792 30.225C35.6579 30.3405 35.9566 30.3999 36.2582 30.3999C36.5599 30.3999 36.8586 30.3405 37.1373 30.225C37.416 30.1096 37.6692 29.9404 37.8825 29.727L42.2129 25.3959C42.4269 25.1832 42.5967 24.9302 42.7122 24.6514C42.8277 24.3727 42.8867 24.0737 42.8859 23.772Z" fill="#EEE5FD"/>
<path d="M28.1377 25.3957C28.1224 25.3804 28.1117 25.3613 28.0964 25.3452L11.4325 41.0819C11.2095 41.2928 11.0311 41.5462 10.9077 41.8273C10.7843 42.1083 10.7185 42.4112 10.7141 42.7181C10.7097 43.025 10.7669 43.3297 10.8823 43.6141C10.9977 43.8985 11.1689 44.1569 11.3858 44.3741L14.5716 47.5598C14.7888 47.7767 15.0472 47.9479 15.3317 48.0632C15.6161 48.1785 15.9208 48.2356 16.2277 48.2312C16.5346 48.2268 16.8375 48.1609 17.1185 48.0374C17.3995 47.9139 17.653 47.7354 17.8638 47.5124L33.602 30.8547C33.5859 30.8393 33.5668 30.8286 33.5515 30.8133L28.1377 25.3957Z" fill="#EEE5FD"/>
<path d="M27.6513 20.5786C27.793 20.364 27.9559 20.1641 28.1375 19.9821L32.4686 15.6518C32.6206 15.5037 32.7848 15.3687 32.9594 15.2483C29.2615 12.3997 24.6853 10.9312 20.0203 11.0963C19.8689 11.0963 19.7209 11.1412 19.5951 11.2254C19.4692 11.3095 19.3711 11.4291 19.3132 11.5689C19.2552 11.7088 19.2401 11.8627 19.2696 12.0112C19.2991 12.1597 19.372 12.2961 19.479 12.4032L27.6513 20.5786Z" fill="#EEE5FD"/>
<path d="M43.6997 25.9878C43.5787 26.1623 43.4435 26.3264 43.2955 26.4786L38.9651 30.8097C38.7831 30.9914 38.5833 31.1543 38.3687 31.2959L46.544 39.472C46.6511 39.579 46.7875 39.6519 46.936 39.6814C47.0845 39.711 47.2384 39.6958 47.3783 39.6379C47.5181 39.5799 47.6377 39.4818 47.7218 39.356C47.806 39.2301 47.8509 39.0821 47.8509 38.9307C48.0572 34.2591 46.5846 29.6679 43.6997 25.9878Z" fill="#EEE5FD"/>
<path d="M17.2266 0.765625C8.21056 0.765625 1.14844 3.79214 1.14844 7.65625V26.0312C1.14844 29.8954 8.21056 32.9219 17.2266 32.9219C26.2426 32.9219 33.3047 29.8954 33.3047 26.0312V7.65625C33.3047 3.79214 26.2418 0.765625 17.2266 0.765625ZM31.7734 16.8438C31.7734 19.3787 25.8016 22.2031 17.2266 22.2031C8.65156 22.2031 2.67969 19.3787 2.67969 16.8438V10.6223C5.22386 12.9597 10.7065 14.5469 17.2266 14.5469C23.7466 14.5469 29.2293 12.9597 31.7734 10.6223V16.8438ZM17.2266 2.29688C25.8016 2.29688 31.7734 5.12127 31.7734 7.65625C31.7734 10.1912 25.8016 13.0156 17.2266 13.0156C8.65156 13.0156 2.67969 10.1912 2.67969 7.65625C2.67969 5.12127 8.65156 2.29688 17.2266 2.29688ZM17.2266 31.3906C8.65156 31.3906 2.67969 28.5662 2.67969 26.0312V19.8098C5.22386 22.1472 10.7065 23.7344 17.2266 23.7344C23.7466 23.7344 29.2293 22.1472 31.7734 19.8098V26.0312C31.7734 28.5662 25.8016 31.3906 17.2266 31.3906Z" fill="#913BFF"/>
<path d="M5.42308 8.9448C7.36011 10.1721 11.4784 11.4844 17.2267 11.4844C22.975 11.4844 27.0933 10.1721 29.0304 8.9448C29.2471 8.80684 29.4256 8.61643 29.5492 8.39119C29.6728 8.16596 29.7376 7.91318 29.7376 7.65625C29.7376 7.39932 29.6728 7.14654 29.5492 6.92131C29.4256 6.69607 29.2471 6.50566 29.0304 6.3677C27.0933 5.14041 22.975 3.82812 17.2267 3.82812C11.4784 3.82812 7.36011 5.14041 5.42308 6.3677C5.20633 6.50566 5.02789 6.69607 4.90426 6.92131C4.78063 7.14654 4.71582 7.39932 4.71582 7.65625C4.71582 7.91318 4.78063 8.16596 4.90426 8.39119C5.02789 8.61643 5.20633 8.80684 5.42308 8.9448ZM17.2267 5.35938C24.2245 5.35938 27.6048 7.27727 28.2111 7.65089C27.6048 8.03906 24.2245 9.95312 17.2267 9.95312C10.2289 9.95312 6.84944 8.03906 6.2423 7.66161C6.84944 7.27727 10.2289 5.35938 17.2267 5.35938Z" fill="#913BFF"/>
<path d="M8.25935 16.4165C8.16303 16.3875 8.06194 16.3778 7.96187 16.3879C7.8618 16.398 7.76471 16.4277 7.67612 16.4754C7.58754 16.523 7.5092 16.5876 7.44559 16.6655C7.38198 16.7434 7.33433 16.8331 7.30538 16.9294C7.27642 17.0258 7.26672 17.1268 7.27683 17.2269C7.28693 17.327 7.31665 17.4241 7.36429 17.5127C7.41192 17.6012 7.47654 17.6796 7.55444 17.7432C7.63235 17.8068 7.72202 17.8544 7.81835 17.8834C10.8781 18.7503 14.0464 19.1737 17.2263 19.1406C20.4063 19.1737 23.5746 18.7503 26.6343 17.8834C26.8289 17.8249 26.9922 17.6916 27.0884 17.5127C27.1846 17.3338 27.2058 17.124 27.1473 16.9294C27.0888 16.7349 26.9555 16.5716 26.7766 16.4754C26.5977 16.3792 26.3879 16.358 26.1933 16.4165C23.2768 17.2409 20.257 17.6426 17.2263 17.6093C14.1957 17.6426 11.1759 17.2409 8.25935 16.4165Z" fill="#913BFF"/>
<path d="M26.1933 25.604C23.2768 26.4284 20.257 26.8301 17.2263 26.7968C14.1957 26.8301 11.1759 26.4284 8.25935 25.604C8.06482 25.5455 7.85503 25.5667 7.67612 25.6629C7.49722 25.7591 7.36386 25.9224 7.30538 26.1169C7.2469 26.3115 7.26809 26.5212 7.36429 26.7002C7.46049 26.8791 7.62382 27.0124 7.81835 27.0709C10.8781 27.9378 14.0464 28.3612 17.2263 28.3281C20.4063 28.3612 23.5746 27.9378 26.6343 27.0709C26.7307 27.0419 26.8203 26.9943 26.8982 26.9307C26.9762 26.8671 27.0408 26.7887 27.0884 26.7002C27.136 26.6116 27.1658 26.5145 27.1759 26.4144C27.186 26.3143 27.1763 26.2133 27.1473 26.1169C27.1184 26.0206 27.0707 25.9309 27.0071 25.853C26.9435 25.7751 26.8652 25.7105 26.7766 25.6629C26.688 25.6152 26.5909 25.5855 26.4908 25.5754C26.3907 25.5653 26.2897 25.575 26.1933 25.604Z" fill="#913BFF"/>
</svg>
