<svg width="83" height="83" viewBox="0 0 83 83" fill="none" xmlns="http://www.w3.org/2000/svg">
<path opacity="0.4" d="M80.9172 28.6362L53.6828 16.9643C53.5214 16.8951 53.3475 16.8594 53.1719 16.8594C52.9962 16.8594 52.8224 16.8951 52.6609 16.9643L25.4265 28.6362C25.1933 28.7361 24.9945 28.9023 24.8548 29.1142C24.7151 29.326 24.6407 29.5742 24.6406 29.828V40.8877C24.6735 49.714 27.3708 58.3246 32.3793 65.5922C37.3877 72.8598 44.4739 78.4458 52.7102 81.6187C53.0076 81.732 53.3362 81.732 53.6336 81.6187C61.8698 78.4458 68.956 72.8598 73.9645 65.5922C78.973 58.3246 81.6702 49.714 81.7031 40.8877V29.828C81.7031 29.5742 81.6286 29.326 81.4889 29.1142C81.3492 28.9023 81.1505 28.7361 80.9172 28.6362ZM65.6504 45.3905L52.2044 56.5553C51.8488 56.8494 51.4098 57.0245 50.9493 57.056C50.4889 57.0874 50.0302 56.9735 49.6379 56.7304L40.9372 51.3224C40.6705 51.1805 40.4359 50.9854 40.2478 50.7491C40.0598 50.5129 39.9222 50.2405 39.8438 49.9488C39.7653 49.6572 39.7476 49.3526 39.7917 49.0538C39.8359 48.7551 39.9409 48.4686 40.1004 48.2121C40.2598 47.9556 40.4702 47.7346 40.7186 47.5628C40.967 47.391 41.248 47.2721 41.5443 47.2134C41.8405 47.1547 42.1456 47.1575 42.4408 47.2216C42.7359 47.2857 43.0147 47.4098 43.2599 47.5861L50.6131 52.1576L62.8401 42.0069C63.2932 41.6816 63.8529 41.5401 64.4062 41.611C64.9596 41.682 65.4654 41.96 65.8219 42.3892C66.1783 42.8183 66.3588 43.3666 66.327 43.9236C66.2952 44.4805 66.0534 45.0047 65.6504 45.3905V45.3905Z" fill="#EEE5FD" fill-opacity="0.4"/>
<path d="M41.5 1.29688H5.1875C4.15564 1.29688 3.16605 1.70678 2.43641 2.43641C1.70678 3.16605 1.29688 4.15564 1.29688 5.1875V51.875C1.29688 52.9069 1.70678 53.8965 2.43641 54.6261C3.16605 55.3557 4.15564 55.7656 5.1875 55.7656H41.5C42.5319 55.7656 43.5215 55.3557 44.2511 54.6261C44.9807 53.8965 45.3906 52.9069 45.3906 51.875V5.1875C45.3906 4.15564 44.9807 3.16605 44.2511 2.43641C43.5215 1.70678 42.5319 1.29688 41.5 1.29688V1.29688ZM42.7969 51.875C42.7969 52.219 42.6602 52.5488 42.417 52.792C42.1738 53.0352 41.844 53.1719 41.5 53.1719H5.1875C4.84355 53.1719 4.51368 53.0352 4.27047 52.792C4.02726 52.5488 3.89063 52.219 3.89062 51.875V5.1875C3.89062 4.84355 4.02726 4.51368 4.27047 4.27047C4.51368 4.02726 4.84355 3.89063 5.1875 3.89062H41.5C41.844 3.89063 42.1738 4.02726 42.417 4.27047C42.6602 4.51368 42.7969 4.84355 42.7969 5.1875V51.875Z" fill="#913BFF"/>
<path d="M10.375 24.6406H18.1562C18.8442 24.6406 19.5039 24.3674 19.9903 23.8809C20.4767 23.3945 20.75 22.7348 20.75 22.0469V20.75C20.7475 19.6513 20.4651 18.5714 19.9297 17.6121C19.3942 16.6528 18.6232 15.8457 17.6894 15.2668C18.4044 14.4514 18.8006 13.4049 18.8047 12.3203C18.8047 11.1165 18.3265 9.96195 17.4752 9.11071C16.624 8.25947 15.4695 7.78125 14.2656 7.78125C13.0618 7.78125 11.9073 8.25947 11.056 9.11071C10.2048 9.96195 9.72656 11.1165 9.72656 12.3203C9.73069 13.4049 10.1268 14.4514 10.8419 15.2668C9.90807 15.8457 9.13708 16.6528 8.6016 17.6121C8.06612 18.5714 7.7838 19.6513 7.78125 20.75V22.0469C7.78125 22.7348 8.05452 23.3945 8.54094 23.8809C9.02736 24.3674 9.68709 24.6406 10.375 24.6406ZM12.3203 12.3203C12.3203 11.9356 12.4344 11.5595 12.6482 11.2396C12.8619 10.9197 13.1657 10.6703 13.5212 10.5231C13.8766 10.3758 14.2678 10.3373 14.6451 10.4124C15.0225 10.4874 15.3691 10.6727 15.6412 10.9448C15.9132 11.2168 16.0985 11.5634 16.1736 11.9408C16.2486 12.3182 16.2101 12.7093 16.0629 13.0648C15.9156 13.4202 15.6663 13.724 15.3464 13.9378C15.0265 14.1515 14.6504 14.2656 14.2656 14.2656C13.7497 14.2656 13.2549 14.0607 12.8901 13.6959C12.5253 13.331 12.3203 12.8362 12.3203 12.3203ZM10.375 20.75C10.375 19.7181 10.7849 18.7285 11.5145 17.9989C12.2442 17.2693 13.2338 16.8594 14.2656 16.8594C15.2975 16.8594 16.2871 17.2693 17.0167 17.9989C17.7463 18.7285 18.1562 19.7181 18.1562 20.75V22.0469H10.375V20.75Z" fill="#913BFF"/>
<path d="M37.6094 11.6719H25.9375C25.5935 11.6719 25.2637 11.8085 25.0205 12.0517C24.7773 12.2949 24.6406 12.6248 24.6406 12.9688C24.6406 13.3127 24.7773 13.6426 25.0205 13.8858C25.2637 14.129 25.5935 14.2656 25.9375 14.2656H37.6094C37.9533 14.2656 38.2832 14.129 38.5264 13.8858C38.7696 13.6426 38.9062 13.3127 38.9062 12.9688C38.9062 12.6248 38.7696 12.2949 38.5264 12.0517C38.2832 11.8085 37.9533 11.6719 37.6094 11.6719Z" fill="#913BFF"/>
<path d="M37.6094 22.0469H25.9375C25.5935 22.0469 25.2637 22.1835 25.0205 22.4267C24.7773 22.6699 24.6406 22.9998 24.6406 23.3438C24.6406 23.6877 24.7773 24.0176 25.0205 24.2608C25.2637 24.504 25.5935 24.6406 25.9375 24.6406H37.6094C37.9533 24.6406 38.2832 24.504 38.5264 24.2608C38.7696 24.0176 38.9062 23.6877 38.9062 23.3438C38.9062 22.9998 38.7696 22.6699 38.5264 22.4267C38.2832 22.1835 37.9533 22.0469 37.6094 22.0469Z" fill="#913BFF"/>
<path d="M37.6094 32.4219H9.07812C8.73417 32.4219 8.40431 32.5585 8.1611 32.8017C7.91788 33.0449 7.78125 33.3748 7.78125 33.7188C7.78125 34.0627 7.91788 34.3926 8.1611 34.6358C8.40431 34.879 8.73417 35.0156 9.07812 35.0156H37.6094C37.9533 35.0156 38.2832 34.879 38.5264 34.6358C38.7696 34.3926 38.9062 34.0627 38.9062 33.7188C38.9062 33.3748 38.7696 33.0449 38.5264 32.8017C38.2832 32.5585 37.9533 32.4219 37.6094 32.4219Z" fill="#913BFF"/>
<path d="M37.6094 42.7969H9.07812C8.73417 42.7969 8.40431 42.9335 8.1611 43.1767C7.91788 43.4199 7.78125 43.7498 7.78125 44.0938C7.78125 44.4377 7.91788 44.7676 8.1611 45.0108C8.40431 45.254 8.73417 45.3906 9.07812 45.3906H37.6094C37.9533 45.3906 38.2832 45.254 38.5264 45.0108C38.7696 44.7676 38.9062 44.4377 38.9062 44.0938C38.9062 43.7498 38.7696 43.4199 38.5264 43.1767C38.2832 42.9335 37.9533 42.7969 37.6094 42.7969Z" fill="#913BFF"/>
</svg>
