<svg width="64" height="64" viewBox="0 0 64 64" fill="none" xmlns="http://www.w3.org/2000/svg">
<path d="M46.0001 54.9311V49.4141L42.1001 53.3141C43.2307 54.1946 44.5782 54.7533 46.0001 54.9311Z" fill="#EAE6F9"/>
<path d="M39 46.9998C38.9998 48.7758 39.594 50.5008 40.688 51.8999L46 46.5858V39.0688C44.0685 39.3139 42.2924 40.2543 41.0041 41.714C39.7157 43.1737 39.0032 45.0529 39 46.9998Z" fill="#EAE6F9"/>
<path d="M48 39.0688V54.9308C49.9327 54.6887 51.7104 53.7492 52.9993 52.2888C54.2881 50.8284 54.9994 48.9476 54.9994 46.9998C54.9994 45.0521 54.2881 43.1713 52.9993 41.7109C51.7104 40.2505 49.9327 39.311 48 39.0688Z" fill="#EAE6F9"/>
<path d="M60 25H22C21.2044 25 20.4413 25.3161 19.8787 25.8787C19.3161 26.4413 19 27.2044 19 28V60C19 60.7957 19.3161 61.5587 19.8787 62.1213C20.4413 62.6839 21.2044 63 22 63H60C60.7957 63 61.5587 62.6839 62.1213 62.1213C62.6839 61.5587 63 60.7957 63 60V28C63 27.2044 62.6839 26.4413 62.1213 25.8787C61.5587 25.3161 60.7957 25 60 25ZM32 57H26C25.7348 57 25.4804 56.8946 25.2929 56.7071C25.1054 56.5196 25 56.2652 25 56C25 55.7348 25.1054 55.4804 25.2929 55.2929C25.4804 55.1054 25.7348 55 26 55H32C32.2652 55 32.5196 55.1054 32.7071 55.2929C32.8946 55.4804 33 55.7348 33 56C33 56.2652 32.8946 56.5196 32.7071 56.7071C32.5196 56.8946 32.2652 57 32 57ZM32 51H26C25.7348 51 25.4804 50.8946 25.2929 50.7071C25.1054 50.5196 25 50.2652 25 50C25 49.7348 25.1054 49.4804 25.2929 49.2929C25.4804 49.1054 25.7348 49 26 49H32C32.2652 49 32.5196 49.1054 32.7071 49.2929C32.8946 49.4804 33 49.7348 33 50C33 50.2652 32.8946 50.5196 32.7071 50.7071C32.5196 50.8946 32.2652 51 32 51ZM32 45H26C25.7348 45 25.4804 44.8946 25.2929 44.7071C25.1054 44.5196 25 44.2652 25 44C25 43.7348 25.1054 43.4804 25.2929 43.2929C25.4804 43.1054 25.7348 43 26 43H32C32.2652 43 32.5196 43.1054 32.7071 43.2929C32.8946 43.4804 33 43.7348 33 44C33 44.2652 32.8946 44.5196 32.7071 44.7071C32.5196 44.8946 32.2652 45 32 45ZM32 39H26C25.7348 39 25.4804 38.8946 25.2929 38.7071C25.1054 38.5196 25 38.2652 25 38C25 37.7348 25.1054 37.4804 25.2929 37.2929C25.4804 37.1054 25.7348 37 26 37H32C32.2652 37 32.5196 37.1054 32.7071 37.2929C32.8946 37.4804 33 37.7348 33 38C33 38.2652 32.8946 38.5196 32.7071 38.7071C32.5196 38.8946 32.2652 39 32 39ZM47 57C45.0222 57 43.0888 56.4135 41.4443 55.3147C39.7998 54.2159 38.5181 52.6541 37.7612 50.8268C37.0043 48.9996 36.8063 46.9889 37.1921 45.0491C37.578 43.1093 38.5304 41.3275 39.9289 39.9289C41.3275 38.5304 43.1093 37.578 45.0491 37.1921C46.9889 36.8063 48.9996 37.0043 50.8268 37.7612C52.6541 38.5181 54.2159 39.7998 55.3147 41.4443C56.4135 43.0888 57 45.0222 57 47C56.9971 49.6513 55.9426 52.1931 54.0679 54.0679C52.1931 55.9426 49.6513 56.9971 47 57ZM61 31H21V28C21 27.7348 21.1054 27.4804 21.2929 27.2929C21.4804 27.1054 21.7348 27 22 27H60C60.2652 27 60.5196 27.1054 60.7071 27.2929C60.8946 27.4804 61 27.7348 61 28V31Z" fill="#EAE6F9"/>
<path d="M38 13.986V12.535L40.555 10.835C40.7757 10.6878 40.9288 10.459 40.9808 10.1989C41.0327 9.93876 40.9792 9.66866 40.832 9.448C40.6848 9.22734 40.456 9.07419 40.1959 9.02224C39.9358 8.97029 39.6657 9.0238 39.445 9.171L36.445 11.171C36.3085 11.2621 36.1965 11.3853 36.1189 11.5299C36.0413 11.6745 36.0005 11.8359 36 12V13.432C31.4511 12.4404 26.696 13.1693 22.653 15.478L17.853 7.485C17.7645 7.33767 17.6395 7.21564 17.4901 7.13068C17.3407 7.04573 17.1719 7.00072 17 7H12C11.7348 7 11.4804 7.10536 11.2929 7.29289C11.1054 7.48043 11 7.73478 11 8C11 8.26522 11.1054 8.51957 11.2929 8.70711C11.4804 8.89464 11.7348 9 12 9H16.434L20.97 16.56C18.8385 18.0745 17.0436 20.014 15.6984 22.2563C14.3533 24.4986 13.487 26.9951 13.1541 29.5887C12.8211 32.1822 13.0288 34.8166 13.764 37.3259C14.4993 39.8353 15.7461 42.1652 17.426 44.169L15.764 45H12C11.7348 45 11.4804 45.1054 11.2929 45.2929C11.1054 45.4804 11 45.7348 11 46C11 46.2652 11.1054 46.5196 11.2929 46.7071C11.4804 46.8946 11.7348 47 12 47H16C16.1547 47.0017 16.3077 46.9675 16.447 46.9L18.858 45.694C20.9124 47.6669 23.3844 49.1522 26.0909 50.04C28.7973 50.9277 31.6688 51.1951 34.4926 50.8223C37.3165 50.4495 40.0202 49.4461 42.4036 47.8865C44.7869 46.3268 46.7888 44.2509 48.2609 41.8124C49.7329 39.374 50.6375 36.6356 50.9075 33.8001C51.1774 30.9646 50.8059 28.1047 49.8205 25.4323C48.8351 22.7599 47.2609 20.3434 45.2147 18.362C43.1685 16.3806 40.7027 14.885 38 13.986ZM22 18.281L25.141 23.515C25.28 23.7372 25.5007 23.8959 25.7556 23.957C26.0105 24.0181 26.2791 23.9767 26.5038 23.8417C26.7284 23.7067 26.8911 23.4889 26.9568 23.2351C27.0225 22.9814 26.9859 22.712 26.855 22.485L23.68 17.19C25.9248 15.9277 28.4287 15.196 31 15.051V31.434L16.944 39.867C15.0487 36.2627 14.5166 32.0958 15.4453 28.1309C16.374 24.1659 18.7012 20.6688 22 18.281ZM26.9 40.553C26.8413 40.4354 26.7601 40.3306 26.6609 40.2444C26.5617 40.1583 26.4465 40.0925 26.3218 40.0509C26.1972 40.0093 26.0656 39.9927 25.9345 40.0019C25.8035 40.0112 25.6755 40.0462 25.558 40.105L19.286 43.241C18.8155 42.7163 18.3779 42.1629 17.976 41.584L31 33.766V48.949C27.2144 48.7305 23.6124 47.2452 20.773 44.732L26.447 41.9C26.5656 41.8418 26.6716 41.7607 26.7587 41.6613C26.8458 41.5619 26.9123 41.4462 26.9544 41.321C26.9965 41.1957 27.0134 41.0634 27.0041 40.9315C26.9947 40.7997 26.9594 40.6711 26.9 40.553ZM33 48.949V15.049C34.0113 15.107 35.0153 15.2556 36 15.493V20C36 20.2652 36.1054 20.5196 36.2929 20.7071C36.4804 20.8946 36.7348 21 37 21C37.2652 21 37.5196 20.8946 37.7071 20.7071C37.8946 20.5196 38 20.2652 38 20V16.114C41.6422 17.4841 44.7031 20.0639 46.6701 23.4215C48.6371 26.7791 49.3909 30.7105 48.805 34.5575C48.2192 38.4045 46.3295 41.9335 43.4522 44.5534C40.575 47.1733 36.8849 48.7251 33 48.949Z" fill="#913BFF"/>
<path d="M3 47H7C7.53043 47 8.03914 46.7893 8.41421 46.4142C8.78929 46.0391 9 45.5304 9 45V41C9 40.4696 8.78929 39.9609 8.41421 39.5858C8.03914 39.2107 7.53043 39 7 39H3C2.46957 39 1.96086 39.2107 1.58579 39.5858C1.21071 39.9609 1 40.4696 1 41V45C1 45.5304 1.21071 46.0391 1.58579 46.4142C1.96086 46.7893 2.46957 47 3 47ZM3 41H7V45H3V41Z" fill="#913BFF"/>
<path d="M2 51H8C8.26522 51 8.51957 50.8946 8.70711 50.7071C8.89464 50.5196 9 50.2652 9 50C9 49.7348 8.89464 49.4804 8.70711 49.2929C8.51957 49.1054 8.26522 49 8 49H2C1.73478 49 1.48043 49.1054 1.29289 49.2929C1.10536 49.4804 1 49.7348 1 50C1 50.2652 1.10536 50.5196 1.29289 50.7071C1.48043 50.8946 1.73478 51 2 51Z" fill="#913BFF"/>
<path d="M3 9H7C7.53043 9 8.03914 8.78929 8.41421 8.41421C8.78929 8.03914 9 7.53043 9 7V3C9 2.46957 8.78929 1.96086 8.41421 1.58579C8.03914 1.21071 7.53043 1 7 1H3C2.46957 1 1.96086 1.21071 1.58579 1.58579C1.21071 1.96086 1 2.46957 1 3V7C1 7.53043 1.21071 8.03914 1.58579 8.41421C1.96086 8.78929 2.46957 9 3 9ZM3 3H7V7H3V3Z" fill="#913BFF"/>
<path d="M2 13H8C8.26522 13 8.51957 12.8946 8.70711 12.7071C8.89464 12.5196 9 12.2652 9 12C9 11.7348 8.89464 11.4804 8.70711 11.2929C8.51957 11.1054 8.26522 11 8 11H2C1.73478 11 1.48043 11.1054 1.29289 11.2929C1.10536 11.4804 1 11.7348 1 12C1 12.2652 1.10536 12.5196 1.29289 12.7071C1.48043 12.8946 1.73478 13 2 13Z" fill="#913BFF"/>
<path d="M49 3H45C44.4696 3 43.9609 3.21071 43.5858 3.58579C43.2107 3.96086 43 4.46957 43 5V9C43 9.53043 43.2107 10.0391 43.5858 10.4142C43.9609 10.7893 44.4696 11 45 11H49C49.5304 11 50.0391 10.7893 50.4142 10.4142C50.7893 10.0391 51 9.53043 51 9V5C51 4.46957 50.7893 3.96086 50.4142 3.58579C50.0391 3.21071 49.5304 3 49 3ZM45 9V5H49V9H45Z" fill="#913BFF"/>
<path d="M50 13H44C43.7348 13 43.4804 13.1054 43.2929 13.2929C43.1054 13.4804 43 13.7348 43 14C43 14.2652 43.1054 14.5196 43.2929 14.7071C43.4804 14.8946 43.7348 15 44 15H50C50.2652 15 50.5196 14.8946 50.7071 14.7071C50.8946 14.5196 51 14.2652 51 14C51 13.7348 50.8946 13.4804 50.7071 13.2929C50.5196 13.1054 50.2652 13 50 13Z" fill="#913BFF"/>
</svg>
