<svg width="49" height="49" viewBox="0 0 49 49" fill="none" xmlns="http://www.w3.org/2000/svg">
<path d="M22.9688 29.8594H15.3125C14.8897 29.8594 14.5469 30.2022 14.5469 30.625V45.9375C14.5469 46.3603 14.8897 46.7031 15.3125 46.7031H22.9688C23.3916 46.7031 23.7344 46.3603 23.7344 45.9375V30.625C23.7344 30.2022 23.3916 29.8594 22.9688 29.8594Z" fill="#EEE5FD"/>
<path d="M35.2188 22.2031H27.5625C27.1397 22.2031 26.7969 22.5459 26.7969 22.9688V45.9375C26.7969 46.3603 27.1397 46.7031 27.5625 46.7031H35.2188C35.6416 46.7031 35.9844 46.3603 35.9844 45.9375V22.9688C35.9844 22.5459 35.6416 22.2031 35.2188 22.2031Z" fill="#EEE5FD"/>
<path d="M47.4688 14.5469H39.8125C39.3897 14.5469 39.0469 14.8897 39.0469 15.3125V45.9375C39.0469 46.3603 39.3897 46.7031 39.8125 46.7031H47.4688C47.8916 46.7031 48.2344 46.3603 48.2344 45.9375V15.3125C48.2344 14.8897 47.8916 14.5469 47.4688 14.5469Z" fill="#EEE5FD"/>
<path d="M26.0252 2.2969C23.5157 2.29225 21.0586 3.01434 18.9507 4.37594C16.8427 5.73754 15.1741 7.68039 14.1465 9.96978C13.1188 12.2592 12.7761 14.7972 13.1596 17.2771C13.5432 19.7571 14.6366 22.073 16.3079 23.9449L14.6534 25.5987L14.1113 25.0574C13.6806 24.6268 13.0965 24.3849 12.4874 24.3849C11.8784 24.3849 11.2943 24.6268 10.8635 25.0574L1.66302 34.261C1.08889 34.8353 0.766357 35.6141 0.766357 36.4262C0.766357 37.2382 1.08889 38.017 1.66302 38.5913L2.74638 39.6739C3.32068 40.2481 4.0995 40.5706 4.91156 40.5706C5.72363 40.5706 6.50245 40.2481 7.07675 39.6739L16.2803 30.4719C16.7109 30.0412 16.9528 29.4571 16.9528 28.848C16.9528 28.239 16.7109 27.6548 16.2803 27.2241L15.739 26.6821L17.3935 25.0283C18.9686 26.4276 20.8601 27.4233 22.9051 27.9298C24.9502 28.4363 27.0877 28.4385 29.1338 27.9361C31.1799 27.4337 33.0733 26.4418 34.6513 25.0458C36.2292 23.6497 37.4444 21.8912 38.1923 19.9216C38.9402 17.9519 39.1985 15.8301 38.9449 13.7385C38.6913 11.647 37.9334 9.64832 36.7365 7.91448C35.5396 6.18064 33.9393 4.76351 32.0735 3.78496C30.2077 2.80642 28.1321 2.29576 26.0252 2.2969ZM5.99416 38.5913C5.70257 38.8699 5.31482 39.0253 4.91156 39.0253C4.5083 39.0253 4.12056 38.8699 3.82897 38.5913L2.74561 37.5088C2.45854 37.2216 2.29728 36.8322 2.29728 36.4262C2.29728 36.0201 2.45854 35.6307 2.74561 35.3436L9.784 28.3052L13.0325 31.5537L5.99416 38.5913ZM15.1977 29.3885L14.1151 30.4719L10.8666 27.2233L11.9492 26.1408C12.0928 25.9972 12.2875 25.9166 12.4905 25.9166C12.6935 25.9166 12.8882 25.9972 13.0318 26.1408L15.1977 28.3067C15.341 28.4503 15.4215 28.6448 15.4215 28.8476C15.4215 29.0505 15.341 29.245 15.1977 29.3885ZM26.0252 26.7969C23.7538 26.7969 21.5334 26.1234 19.6448 24.8614C17.7562 23.5995 16.2842 21.8059 15.415 19.7074C14.5458 17.6089 14.3184 15.2998 14.7615 13.072C15.2046 10.8443 16.2984 8.79796 17.9045 7.19184C19.5106 5.58572 21.557 4.49194 23.7847 4.04882C26.0125 3.60569 28.3216 3.83312 30.4201 4.70234C32.5186 5.57157 34.3122 7.04355 35.5741 8.93215C36.836 10.8207 37.5096 13.0411 37.5096 15.3125C37.5061 18.3573 36.2951 21.2764 34.1421 23.4294C31.9891 25.5824 29.07 26.7935 26.0252 26.7969Z" fill="#913BFF"/>
<path d="M33.1019 13.0385L30.0394 12.2729C29.843 12.2252 29.6357 12.2571 29.4627 12.3616C29.2897 12.4661 29.1651 12.6348 29.116 12.8308C29.0669 13.0269 29.0973 13.2344 29.2006 13.4081C29.3038 13.5819 29.4716 13.7077 29.6673 13.7582L31.2675 14.1586L28.3696 16.5734L24.2704 12.4743C24.1354 12.3391 23.9548 12.2593 23.764 12.2506C23.5732 12.2418 23.386 12.3046 23.2391 12.4268L18.6454 16.2549C18.4892 16.3849 18.3911 16.5715 18.3726 16.7739C18.3541 16.9762 18.4167 17.1775 18.5466 17.3337C18.6766 17.4898 18.8632 17.588 19.0655 17.6065C19.2678 17.625 19.4692 17.5624 19.6254 17.4325L23.6832 14.0515L27.7823 18.1506C27.9173 18.2857 28.098 18.3655 28.2888 18.3743C28.4796 18.3831 28.6668 18.3202 28.8136 18.1981L32.1518 15.4158V16.8437C32.1518 17.0468 32.2324 17.2415 32.376 17.3851C32.5196 17.5287 32.7143 17.6093 32.9174 17.6093C33.1205 17.6093 33.3152 17.5287 33.4588 17.3851C33.6024 17.2415 33.683 17.0468 33.683 16.8437V13.7812C33.6829 13.6103 33.6257 13.4444 33.5204 13.3098C33.4151 13.1752 33.2678 13.0797 33.1019 13.0385Z" fill="#913BFF"/>
</svg>
