<svg width="49" height="49" viewBox="0 0 49 49" fill="none" xmlns="http://www.w3.org/2000/svg">
<path d="M47.4688 16.0781V13.7812C47.4675 12.7663 47.0638 11.7933 46.3462 11.0757C45.6285 10.3581 44.6555 9.95434 43.6406 9.95312H28.3281C27.3132 9.95434 26.3402 10.3581 25.6226 11.0757C24.9049 11.7933 24.5012 12.7663 24.5 13.7812V16.0781H47.4688Z" fill="#EEE5FD"/>
<path d="M24.5 17.6094H47.4688V22.2031H24.5V17.6094Z" fill="#EEE5FD"/>
<path d="M35.9844 36.75C37.2529 36.75 38.2812 35.7217 38.2812 34.4531C38.2812 33.1846 37.2529 32.1562 35.9844 32.1562C34.7158 32.1562 33.6875 33.1846 33.6875 34.4531C33.6875 35.7217 34.7158 36.75 35.9844 36.75Z" fill="#EEE5FD"/>
<path d="M24.5 23.7344V45.5547C24.5 46.2654 24.7823 46.947 25.2849 47.4495C25.7874 47.9521 26.469 48.2344 27.1797 48.2344C27.8904 48.2344 28.572 47.9521 29.0745 47.4495C29.5771 46.947 29.8594 46.2654 29.8594 45.5547C29.8594 45.4532 29.8997 45.3558 29.9715 45.284C30.0433 45.2122 30.1407 45.1719 30.2422 45.1719H41.7266C41.8281 45.1719 41.9255 45.2122 41.9973 45.284C42.069 45.3558 42.1094 45.4532 42.1094 45.5547C42.1094 46.2654 42.3917 46.947 42.8942 47.4495C43.3968 47.9521 44.0784 48.2344 44.7891 48.2344C45.4998 48.2344 46.1813 47.9521 46.6839 47.4495C47.1864 46.947 47.4688 46.2654 47.4688 45.5547V23.7344H24.5ZM35.9844 38.2812C35.2272 38.2812 34.4871 38.0567 33.8576 37.6361C33.2281 37.2155 32.7374 36.6176 32.4476 35.9181C32.1579 35.2186 32.0821 34.4489 32.2298 33.7063C32.3775 32.9637 32.7421 32.2816 33.2775 31.7462C33.8129 31.2109 34.495 30.8463 35.2375 30.6986C35.9801 30.5508 36.7498 30.6267 37.4493 30.9164C38.1488 31.2061 38.7467 31.6968 39.1673 32.3263C39.588 32.9559 39.8125 33.696 39.8125 34.4531C39.8113 35.468 39.4076 36.441 38.6899 37.1587C37.9723 37.8763 36.9993 38.28 35.9844 38.2812Z" fill="#EEE5FD"/>
<path d="M33.6875 3.0625C33.6875 2.45333 33.4455 1.86911 33.0148 1.43836C32.584 1.00762 31.9998 0.765625 31.3906 0.765625H3.82812C3.21896 0.765625 2.63474 1.00762 2.20399 1.43836C1.77324 1.86911 1.53125 2.45333 1.53125 3.0625V12.25C1.53324 12.8169 1.74612 13.3627 2.12844 13.7812C1.74612 14.1998 1.53324 14.7456 1.53125 15.3125V24.5C1.53125 25.1092 1.77324 25.6934 2.20399 26.1241C2.63474 26.5549 3.21896 26.7969 3.82812 26.7969H14.5469V29.0938C14.5469 29.7029 14.7889 30.2871 15.2196 30.7179C15.6504 31.1486 16.2346 31.3906 16.8438 31.3906V33.6875H7.65625C7.65625 33.0783 7.41426 32.4941 6.98351 32.0634C6.55276 31.6326 5.96854 31.3906 5.35938 31.3906H3.82812C3.21896 31.3906 2.63474 31.6326 2.20399 32.0634C1.77324 32.4941 1.53125 33.0783 1.53125 33.6875V35.2188C1.53125 35.8279 1.77324 36.4121 2.20399 36.8429C2.63474 37.2736 3.21896 37.5156 3.82812 37.5156H5.35938C5.96854 37.5156 6.55276 37.2736 6.98351 36.8429C7.41426 36.4121 7.65625 35.8279 7.65625 35.2188H27.5625C27.5625 35.8279 27.8045 36.4121 28.2352 36.8429C28.666 37.2736 29.2502 37.5156 29.8594 37.5156H31.3906C31.9998 37.5156 32.584 37.2736 33.0148 36.8429C33.4455 36.4121 33.6875 35.8279 33.6875 35.2188V33.6875C33.6875 33.0783 33.4455 32.4941 33.0148 32.0634C32.584 31.6326 31.9998 31.3906 31.3906 31.3906H29.8594C29.2502 31.3906 28.666 31.6326 28.2352 32.0634C27.8045 32.4941 27.5625 33.0783 27.5625 33.6875H18.375V31.3906C18.9842 31.3906 19.5684 31.1486 19.9991 30.7179C20.4299 30.2871 20.6719 29.7029 20.6719 29.0938V26.7969H31.3906C31.9998 26.7969 32.584 26.5549 33.0148 26.1241C33.4455 25.6934 33.6875 25.1092 33.6875 24.5V15.3125C33.6855 14.7456 33.4726 14.1998 33.0903 13.7812C33.4726 13.3627 33.6855 12.8169 33.6875 12.25V3.0625ZM6.125 35.2188C6.125 35.4218 6.04434 35.6165 5.90075 35.7601C5.75717 35.9037 5.56243 35.9844 5.35938 35.9844H3.82812C3.62507 35.9844 3.43033 35.9037 3.28675 35.7601C3.14316 35.6165 3.0625 35.4218 3.0625 35.2188V33.6875C3.0625 33.4844 3.14316 33.2897 3.28675 33.1461C3.43033 33.0025 3.62507 32.9219 3.82812 32.9219H5.35938C5.56243 32.9219 5.75717 33.0025 5.90075 33.1461C6.04434 33.2897 6.125 33.4844 6.125 33.6875V35.2188ZM29.0938 33.6875C29.0938 33.4844 29.1744 33.2897 29.318 33.1461C29.4616 33.0025 29.6563 32.9219 29.8594 32.9219H31.3906C31.5937 32.9219 31.7884 33.0025 31.932 33.1461C32.0756 33.2897 32.1562 33.4844 32.1562 33.6875V35.2188C32.1562 35.4218 32.0756 35.6165 31.932 35.7601C31.7884 35.9037 31.5937 35.9844 31.3906 35.9844H29.8594C29.6563 35.9844 29.4616 35.9037 29.318 35.7601C29.1744 35.6165 29.0938 35.4218 29.0938 35.2188V33.6875ZM32.1562 3.0625V12.25C32.1562 12.4531 32.0756 12.6478 31.932 12.7914C31.7884 12.935 31.5937 13.0156 31.3906 13.0156H26.0312V2.29688H31.3906C31.5937 2.29688 31.7884 2.37754 31.932 2.52112C32.0756 2.6647 32.1562 2.85944 32.1562 3.0625ZM3.0625 3.0625C3.0625 2.85944 3.14316 2.6647 3.28675 2.52112C3.43033 2.37754 3.62507 2.29688 3.82812 2.29688H24.5V13.0156H3.82812C3.62507 13.0156 3.43033 12.935 3.28675 12.7914C3.14316 12.6478 3.0625 12.4531 3.0625 12.25V3.0625ZM3.0625 24.5V15.3125C3.0625 15.1094 3.14316 14.9147 3.28675 14.7711C3.43033 14.6275 3.62507 14.5469 3.82812 14.5469H24.5V25.2656H3.82812C3.62507 25.2656 3.43033 25.185 3.28675 25.0414C3.14316 24.8978 3.0625 24.7031 3.0625 24.5ZM19.1406 29.0938C19.1406 29.2968 19.06 29.4915 18.9164 29.6351C18.7728 29.7787 18.5781 29.8594 18.375 29.8594H16.8438C16.6407 29.8594 16.446 29.7787 16.3024 29.6351C16.1588 29.4915 16.0781 29.2968 16.0781 29.0938V26.7969H19.1406V29.0938ZM32.1562 24.5C32.1562 24.7031 32.0756 24.8978 31.932 25.0414C31.7884 25.185 31.5937 25.2656 31.3906 25.2656H26.0312V14.5469H31.3906C31.5937 14.5469 31.7884 14.6275 31.932 14.7711C32.0756 14.9147 32.1562 15.1094 32.1562 15.3125V24.5Z" fill="#913BFF"/>
<path d="M28.3281 5.35938H29.8594C30.0624 5.35938 30.2572 5.27871 30.4008 5.13513C30.5443 4.99155 30.625 4.79681 30.625 4.59375C30.625 4.39069 30.5443 4.19595 30.4008 4.05237C30.2572 3.90879 30.0624 3.82812 29.8594 3.82812H28.3281C28.1251 3.82812 27.9303 3.90879 27.7867 4.05237C27.6432 4.19595 27.5625 4.39069 27.5625 4.59375C27.5625 4.79681 27.6432 4.99155 27.7867 5.13513C27.9303 5.27871 28.1251 5.35938 28.3281 5.35938Z" fill="#913BFF"/>
<path d="M28.3281 8.42188H29.8594C30.0624 8.42188 30.2572 8.34121 30.4008 8.19763C30.5443 8.05405 30.625 7.85931 30.625 7.65625C30.625 7.45319 30.5443 7.25845 30.4008 7.11487C30.2572 6.97129 30.0624 6.89062 29.8594 6.89062H28.3281C28.1251 6.89062 27.9303 6.97129 27.7867 7.11487C27.6432 7.25845 27.5625 7.45319 27.5625 7.65625C27.5625 7.85931 27.6432 8.05405 27.7867 8.19763C27.9303 8.34121 28.1251 8.42188 28.3281 8.42188Z" fill="#913BFF"/>
<path d="M29.8594 9.95312H28.3281C28.1251 9.95312 27.9303 10.0338 27.7867 10.1774C27.6432 10.321 27.5625 10.5157 27.5625 10.7188C27.5625 10.9218 27.6432 11.1165 27.7867 11.2601C27.9303 11.4037 28.1251 11.4844 28.3281 11.4844H29.8594C30.0624 11.4844 30.2572 11.4037 30.4008 11.2601C30.5443 11.1165 30.625 10.9218 30.625 10.7188C30.625 10.5157 30.5443 10.321 30.4008 10.1774C30.2572 10.0338 30.0624 9.95312 29.8594 9.95312Z" fill="#913BFF"/>
<path d="M29.8594 16.0781H28.3281C28.1251 16.0781 27.9303 16.1588 27.7867 16.3024C27.6432 16.446 27.5625 16.6407 27.5625 16.8438C27.5625 17.0468 27.6432 17.2415 27.7867 17.3851C27.9303 17.5287 28.1251 17.6094 28.3281 17.6094H29.8594C30.0624 17.6094 30.2572 17.5287 30.4008 17.3851C30.5443 17.2415 30.625 17.0468 30.625 16.8438C30.625 16.6407 30.5443 16.446 30.4008 16.3024C30.2572 16.1588 30.0624 16.0781 29.8594 16.0781Z" fill="#913BFF"/>
<path d="M29.8594 19.1406H28.3281C28.1251 19.1406 27.9303 19.2213 27.7867 19.3649C27.6432 19.5085 27.5625 19.7032 27.5625 19.9062C27.5625 20.1093 27.6432 20.304 27.7867 20.4476C27.9303 20.5912 28.1251 20.6719 28.3281 20.6719H29.8594C30.0624 20.6719 30.2572 20.5912 30.4008 20.4476C30.5443 20.304 30.625 20.1093 30.625 19.9062C30.625 19.7032 30.5443 19.5085 30.4008 19.3649C30.2572 19.2213 30.0624 19.1406 29.8594 19.1406Z" fill="#913BFF"/>
<path d="M29.8594 22.2031H28.3281C28.1251 22.2031 27.9303 22.2838 27.7867 22.4274C27.6432 22.571 27.5625 22.7657 27.5625 22.9688C27.5625 23.1718 27.6432 23.3665 27.7867 23.5101C27.9303 23.6537 28.1251 23.7344 28.3281 23.7344H29.8594C30.0624 23.7344 30.2572 23.6537 30.4008 23.5101C30.5443 23.3665 30.625 23.1718 30.625 22.9688C30.625 22.7657 30.5443 22.571 30.4008 22.4274C30.2572 22.2838 30.0624 22.2031 29.8594 22.2031Z" fill="#913BFF"/>
<path d="M5.35938 8.42188H22.2031C22.4062 8.42188 22.6009 8.34121 22.7445 8.19763C22.8881 8.05405 22.9688 7.85931 22.9688 7.65625C22.9688 7.45319 22.8881 7.25845 22.7445 7.11487C22.6009 6.97129 22.4062 6.89062 22.2031 6.89062H5.35938C5.15632 6.89062 4.96158 6.97129 4.818 7.11487C4.67441 7.25845 4.59375 7.45319 4.59375 7.65625C4.59375 7.85931 4.67441 8.05405 4.818 8.19763C4.96158 8.34121 5.15632 8.42188 5.35938 8.42188Z" fill="#913BFF"/>
<path d="M22.9688 19.9062C22.9688 19.7032 22.8881 19.5085 22.7445 19.3649C22.6009 19.2213 22.4062 19.1406 22.2031 19.1406H5.35938C5.15632 19.1406 4.96158 19.2213 4.818 19.3649C4.67441 19.5085 4.59375 19.7032 4.59375 19.9062C4.59375 20.1093 4.67441 20.304 4.818 20.4476C4.96158 20.5912 5.15632 20.6719 5.35938 20.6719H22.2031C22.4062 20.6719 22.6009 20.5912 22.7445 20.4476C22.8881 20.304 22.9688 20.1093 22.9688 19.9062Z" fill="#913BFF"/>
</svg>
