<svg width="64" height="64" viewBox="0 0 64 64" fill="none" xmlns="http://www.w3.org/2000/svg">
<path d="M39 51H43V54H39V51Z" fill="#EAE6F9"/>
<path d="M27 51H31V54H27V51Z" fill="#EAE6F9"/>
<path d="M60 25H22C21.2044 25 20.4413 25.3161 19.8787 25.8787C19.3161 26.4413 19 27.2044 19 28V60C19 60.7957 19.3161 61.5587 19.8787 62.1213C20.4413 62.6839 21.2044 63 22 63H60C60.7957 63 61.5587 62.6839 62.1213 62.1213C62.6839 61.5587 63 60.7957 63 60V28C63 27.2044 62.6839 26.4413 62.1213 25.8787C61.5587 25.3161 60.7957 25 60 25ZM57 55C57 55.2652 56.8946 55.5196 56.7071 55.7071C56.5196 55.8946 56.2652 56 56 56H50C49.7348 56 49.4804 55.8946 49.2929 55.7071C49.1054 55.5196 49 55.2652 49 55V50C49 49.7348 49.1054 49.4804 49.2929 49.2929C49.4804 49.1054 49.7348 49 50 49H52V47H42V49H44C44.2652 49 44.5196 49.1054 44.7071 49.2929C44.8946 49.4804 45 49.7348 45 50V55C45 55.2652 44.8946 55.5196 44.7071 55.7071C44.5196 55.8946 44.2652 56 44 56H38C37.7348 56 37.4804 55.8946 37.2929 55.7071C37.1054 55.5196 37 55.2652 37 55V50C37 49.7348 37.1054 49.4804 37.2929 49.2929C37.4804 49.1054 37.7348 49 38 49H40V47H30V49H32C32.2652 49 32.5196 49.1054 32.7071 49.2929C32.8946 49.4804 33 49.7348 33 50V55C33 55.2652 32.8946 55.5196 32.7071 55.7071C32.5196 55.8946 32.2652 56 32 56H26C25.7348 56 25.4804 55.8946 25.2929 55.7071C25.1054 55.5196 25 55.2652 25 55V50C25 49.7348 25.1054 49.4804 25.2929 49.2929C25.4804 49.1054 25.7348 49 26 49H28V46C28 45.7348 28.1054 45.4804 28.2929 45.2929C28.4804 45.1054 28.7348 45 29 45H40V43H34C33.7348 43 33.4804 42.8946 33.2929 42.7071C33.1054 42.5196 33 42.2652 33 42V37C33 36.7348 33.1054 36.4804 33.2929 36.2929C33.4804 36.1054 33.7348 36 34 36H48C48.2652 36 48.5196 36.1054 48.7071 36.2929C48.8946 36.4804 49 36.7348 49 37V42C49 42.2652 48.8946 42.5196 48.7071 42.7071C48.5196 42.8946 48.2652 43 48 43H42V45H53C53.2652 45 53.5196 45.1054 53.7071 45.2929C53.8946 45.4804 54 45.7348 54 46V49H56C56.2652 49 56.5196 49.1054 56.7071 49.2929C56.8946 49.4804 57 49.7348 57 50V55ZM61 31H21V28C21 27.7348 21.1054 27.4804 21.2929 27.2929C21.4804 27.1054 21.7348 27 22 27H60C60.2652 27 60.5196 27.1054 60.7071 27.2929C60.8946 27.4804 61 27.7348 61 28V31Z" fill="#EAE6F9"/>
<path d="M35 38H47V41H35V38Z" fill="#EAE6F9"/>
<path d="M51 51H55V54H51V51Z" fill="#EAE6F9"/>
<path d="M48 1H40C39.2043 1 38.4413 1.31607 37.8787 1.87868C37.3161 2.44129 37 3.20435 37 4V12C37 12.7956 37.3161 13.5587 37.8787 14.1213C38.4413 14.6839 39.2043 15 40 15H43V19H27V15H30C30.7956 15 31.5587 14.6839 32.1213 14.1213C32.6839 13.5587 33 12.7956 33 12V4C33 3.20435 32.6839 2.44129 32.1213 1.87868C31.5587 1.31607 30.7956 1 30 1H22C21.2044 1 20.4413 1.31607 19.8787 1.87868C19.3161 2.44129 19 3.20435 19 4V12C19 12.7956 19.3161 13.5587 19.8787 14.1213C20.4413 14.6839 21.2044 15 22 15H25V19H9V15H12C12.7956 15 13.5587 14.6839 14.1213 14.1213C14.6839 13.5587 15 12.7956 15 12V4C15 3.20435 14.6839 2.44129 14.1213 1.87868C13.5587 1.31607 12.7956 1 12 1H4C3.20435 1 2.44129 1.31607 1.87868 1.87868C1.31607 2.44129 1 3.20435 1 4V12C1 12.7956 1.31607 13.5587 1.87868 14.1213C2.44129 14.6839 3.20435 15 4 15H7V20C7 20.2652 7.10536 20.5196 7.29289 20.7071C7.48043 20.8946 7.73478 21 8 21H25V25H4C3.20435 25 2.44129 25.3161 1.87868 25.8787C1.31607 26.4413 1 27.2044 1 28V48C1 48.7957 1.31607 49.5587 1.87868 50.1213C2.44129 50.6839 3.20435 51 4 51H48C48.7957 51 49.5587 50.6839 50.1213 50.1213C50.6839 49.5587 51 48.7957 51 48V28C51 27.2044 50.6839 26.4413 50.1213 25.8787C49.5587 25.3161 48.7957 25 48 25H27V21H44C44.2652 21 44.5196 20.8946 44.7071 20.7071C44.8946 20.5196 45 20.2652 45 20V15H48C48.7957 15 49.5587 14.6839 50.1213 14.1213C50.6839 13.5587 51 12.7956 51 12V4C51 3.20435 50.6839 2.44129 50.1213 1.87868C49.5587 1.31607 48.7957 1 48 1ZM21 12V4C21 3.73478 21.1054 3.48043 21.2929 3.29289C21.4804 3.10536 21.7348 3 22 3H30C30.2652 3 30.5196 3.10536 30.7071 3.29289C30.8946 3.48043 31 3.73478 31 4V12C31 12.2652 30.8946 12.5196 30.7071 12.7071C30.5196 12.8946 30.2652 13 30 13H22C21.7348 13 21.4804 12.8946 21.2929 12.7071C21.1054 12.5196 21 12.2652 21 12ZM3 12V4C3 3.73478 3.10536 3.48043 3.29289 3.29289C3.48043 3.10536 3.73478 3 4 3H12C12.2652 3 12.5196 3.10536 12.7071 3.29289C12.8946 3.48043 13 3.73478 13 4V12C13 12.2652 12.8946 12.5196 12.7071 12.7071C12.5196 12.8946 12.2652 13 12 13H4C3.73478 13 3.48043 12.8946 3.29289 12.7071C3.10536 12.5196 3 12.2652 3 12ZM49 28V48C49 48.2652 48.8946 48.5196 48.7071 48.7071C48.5196 48.8946 48.2652 49 48 49H4C3.73478 49 3.48043 48.8946 3.29289 48.7071C3.10536 48.5196 3 48.2652 3 48V28C3 27.7348 3.10536 27.4804 3.29289 27.2929C3.48043 27.1054 3.73478 27 4 27H48C48.2652 27 48.5196 27.1054 48.7071 27.2929C48.8946 27.4804 49 27.7348 49 28ZM49 12C49 12.2652 48.8946 12.5196 48.7071 12.7071C48.5196 12.8946 48.2652 13 48 13H40C39.7348 13 39.4804 12.8946 39.2929 12.7071C39.1054 12.5196 39 12.2652 39 12V4C39 3.73478 39.1054 3.48043 39.2929 3.29289C39.4804 3.10536 39.7348 3 40 3H48C48.2652 3 48.5196 3.10536 48.7071 3.29289C48.8946 3.48043 49 3.73478 49 4V12Z" fill="#913BFF"/>
<path d="M18.5552 31.1682C18.4459 31.0953 18.3233 31.0446 18.1945 31.0191C18.0657 30.9935 17.9331 30.9936 17.8043 31.0194C17.6755 31.0451 17.553 31.0959 17.4439 31.169C17.3347 31.2421 17.241 31.3359 17.1681 31.4452L13.1681 37.4452C13.0585 37.6095 13 37.8026 13 38.0002C13 38.1977 13.0585 38.3908 13.1681 38.5552L17.1681 44.5552C17.3153 44.7758 17.5442 44.929 17.8043 44.9809C18.0644 45.0329 18.3345 44.9794 18.5552 44.8322C18.7758 44.685 18.929 44.4562 18.9809 44.196C19.0329 43.9359 18.9793 43.6658 18.8322 43.4452L15.2001 38.0002L18.8301 32.5552C18.9776 32.3348 19.0314 32.0648 18.9798 31.8047C18.9283 31.5446 18.7755 31.3157 18.5552 31.1682Z" fill="#913BFF"/>
<path d="M33.4451 44.8321C33.5544 44.905 33.6769 44.9557 33.8058 44.9812C33.9346 45.0068 34.0672 45.0067 34.196 44.9809C34.3248 44.9552 34.4473 44.9044 34.5564 44.8313C34.6656 44.7582 34.7593 44.6644 34.8321 44.5551L38.8321 38.5551C38.9418 38.3908 39.0003 38.1977 39.0003 38.0001C39.0003 37.8026 38.9418 37.6095 38.8321 37.4451L34.8321 31.4451C34.6849 31.2245 34.4561 31.0713 34.196 31.0194C33.9359 30.9674 33.6658 31.0209 33.4451 31.1681C33.2245 31.3153 33.0713 31.5441 33.0194 31.8043C32.9674 32.0644 33.0209 32.3345 33.1681 32.5551L36.8001 38.0001L33.1701 43.4451C33.0227 43.6655 32.9689 43.9355 33.0204 44.1956C33.072 44.4557 33.2248 44.6846 33.4451 44.8321Z" fill="#913BFF"/>
<path d="M22.5531 44.8998C22.6706 44.9586 22.7985 44.9936 22.9296 45.0029C23.0607 45.0122 23.1923 44.9955 23.3169 44.9539C23.4415 44.9123 23.5568 44.8465 23.656 44.7604C23.7552 44.6742 23.8364 44.5694 23.8951 44.4518L29.8951 32.4518C30.0136 32.2144 30.033 31.9397 29.949 31.688C29.865 31.4364 29.6844 31.2284 29.4471 31.1098C29.2097 30.9913 28.935 30.9719 28.6833 31.0559C28.4316 31.1399 28.2236 31.3204 28.1051 31.5578L22.1051 43.5578C22.0463 43.6753 22.0113 43.8033 22.002 43.9343C21.9927 44.0654 22.0094 44.197 22.051 44.3216C22.0926 44.4463 22.1583 44.5615 22.2445 44.6607C22.3306 44.7599 22.4355 44.8412 22.5531 44.8998Z" fill="#913BFF"/>
</svg>
