<svg width="64" height="64" viewBox="0 0 64 64" fill="none" xmlns="http://www.w3.org/2000/svg">
<path d="M60 25H22C21.2044 25 20.4413 25.3161 19.8787 25.8787C19.3161 26.4413 19 27.2044 19 28V60C19 60.7957 19.3161 61.5587 19.8787 62.1213C20.4413 62.6839 21.2044 63 22 63H60C60.7957 63 61.5587 62.6839 62.1213 62.1213C62.6839 61.5587 63 60.7957 63 60V28C63 27.2044 62.6839 26.4413 62.1213 25.8787C61.5587 25.3161 60.7957 25 60 25ZM32 57H26C25.7348 57 25.4804 56.8946 25.2929 56.7071C25.1054 56.5196 25 56.2652 25 56C25 55.7348 25.1054 55.4804 25.2929 55.2929C25.4804 55.1054 25.7348 55 26 55H32C32.2652 55 32.5196 55.1054 32.7071 55.2929C32.8946 55.4804 33 55.7348 33 56C33 56.2652 32.8946 56.5196 32.7071 56.7071C32.5196 56.8946 32.2652 57 32 57ZM25.168 49.445L31.168 40.445C31.2409 40.3357 31.3346 40.2419 31.4437 40.1688C31.5529 40.0958 31.6753 40.0449 31.8041 40.0192C31.9329 39.9935 32.0655 39.9934 32.1944 40.0189C32.3232 40.0444 32.4457 40.0951 32.555 40.168L40.873 45.713L49.293 37.293C49.4413 37.1445 49.6326 37.0465 49.8397 37.0128C50.0468 36.979 50.2592 37.0113 50.447 37.105L56.447 40.105C56.5645 40.1637 56.6693 40.245 56.7555 40.3442C56.8416 40.4434 56.9073 40.5586 56.9489 40.6832C56.9905 40.8078 57.0072 40.9394 56.9979 41.0705C56.9887 41.2015 56.9537 41.3295 56.895 41.447C56.8363 41.5645 56.755 41.6694 56.6558 41.7555C56.5566 41.8416 56.4414 41.9073 56.3168 41.9489C56.0651 42.033 55.7904 42.0136 55.553 41.895L50.2 39.217L41.71 47.707C41.5465 47.8705 41.3314 47.9723 41.1013 47.9951C40.8713 48.0179 40.6404 47.9603 40.448 47.832L32.28 42.387L26.835 50.555C26.7621 50.6643 26.6684 50.7581 26.5593 50.8311C26.4501 50.9042 26.3277 50.955 26.1989 50.9808C26.0701 51.0065 25.9375 51.0066 25.8086 50.9811C25.6798 50.9555 25.5573 50.9049 25.448 50.832C25.3387 50.7591 25.2449 50.6654 25.1719 50.5563C25.0988 50.4471 25.048 50.3247 25.0222 50.1959C24.9965 50.0671 24.9964 49.9345 25.0219 49.8056C25.0475 49.6768 25.0981 49.5543 25.171 49.445H25.168ZM44 57H38C37.7348 57 37.4804 56.8946 37.2929 56.7071C37.1054 56.5196 37 56.2652 37 56C37 55.7348 37.1054 55.4804 37.2929 55.2929C37.4804 55.1054 37.7348 55 38 55H44C44.2652 55 44.5196 55.1054 44.7071 55.2929C44.8946 55.4804 45 55.7348 45 56C45 56.2652 44.8946 56.5196 44.7071 56.7071C44.5196 56.8946 44.2652 57 44 57ZM56 57H50C49.7348 57 49.4804 56.8946 49.2929 56.7071C49.1054 56.5196 49 56.2652 49 56C49 55.7348 49.1054 55.4804 49.2929 55.2929C49.4804 55.1054 49.7348 55 50 55H56C56.2652 55 56.5196 55.1054 56.7071 55.2929C56.8946 55.4804 57 55.7348 57 56C57 56.2652 56.8946 56.5196 56.7071 56.7071C56.5196 56.8946 56.2652 57 56 57ZM61 31H21V28C21 27.7348 21.1054 27.4804 21.2929 27.2929C21.4804 27.1054 21.7348 27 22 27H60C60.2652 27 60.5196 27.1054 60.7071 27.2929C60.8946 27.4804 61 27.7348 61 28V31Z" fill="#EAE6F9"/>
<path d="M48 1H16C15.2044 1 14.4413 1.31607 13.8787 1.87868C13.3161 2.44129 13 3.20435 13 4V37H4C3.20435 37 2.44129 37.3161 1.87868 37.8787C1.31607 38.4413 1 39.2043 1 40V44C1.00212 45.8559 1.7403 47.6351 3.05259 48.9474C4.36489 50.2597 6.14413 50.9979 8 51H44C45.8559 50.9979 47.6351 50.2597 48.9474 48.9474C50.2597 47.6351 50.9979 45.8559 51 44V4C51 3.20435 50.6839 2.44129 50.1213 1.87868C49.5587 1.31607 48.7957 1 48 1ZM8 49C6.67441 48.9984 5.40356 48.4711 4.46622 47.5338C3.52888 46.5964 3.00159 45.3256 3 44V40C3 39.7348 3.10536 39.4804 3.29289 39.2929C3.48043 39.1054 3.73478 39 4 39H36C36.2652 39 36.5196 39.1054 36.7071 39.2929C36.8946 39.4804 37 39.7348 37 40V44C36.9987 44.9314 37.1839 45.8536 37.5446 46.7123C37.9052 47.571 38.4341 48.3488 39.1 49H8ZM49 44C49 45.3261 48.4732 46.5979 47.5355 47.5355C46.5979 48.4732 45.3261 49 44 49C42.6739 49 41.4021 48.4732 40.4645 47.5355C39.5268 46.5979 39 45.3261 39 44V40C39 39.2043 38.6839 38.4413 38.1213 37.8787C37.5587 37.3161 36.7957 37 36 37H15V4C15 3.73478 15.1054 3.48043 15.2929 3.29289C15.4804 3.10536 15.7348 3 16 3H48C48.2652 3 48.5196 3.10536 48.7071 3.29289C48.8946 3.48043 49 3.73478 49 4V44Z" fill="#913BFF"/>
<path d="M44 31H41V26C41 25.7348 40.8946 25.4804 40.7071 25.2929C40.5196 25.1054 40.2652 25 40 25C39.7348 25 39.4804 25.1054 39.2929 25.2929C39.1054 25.4804 39 25.7348 39 26V31H37V23C37 22.7348 36.8946 22.4804 36.7071 22.2929C36.5196 22.1054 36.2652 22 36 22C35.7348 22 35.4804 22.1054 35.2929 22.2929C35.1054 22.4804 35 22.7348 35 23V31H33V20C33 19.7348 32.8946 19.4804 32.7071 19.2929C32.5196 19.1054 32.2652 19 32 19C31.7348 19 31.4804 19.1054 31.2929 19.2929C31.1054 19.4804 31 19.7348 31 20V31H29V26C29 25.7348 28.8946 25.4804 28.7071 25.2929C28.5196 25.1054 28.2652 25 28 25C27.7348 25 27.4804 25.1054 27.2929 25.2929C27.1054 25.4804 27 25.7348 27 26V31H25V28C25 27.7348 24.8946 27.4804 24.7071 27.2929C24.5196 27.1054 24.2652 27 24 27C23.7348 27 23.4804 27.1054 23.2929 27.2929C23.1054 27.4804 23 27.7348 23 28V31H20C19.7348 31 19.4804 31.1054 19.2929 31.2929C19.1054 31.4804 19 31.7348 19 32C19 32.2652 19.1054 32.5196 19.2929 32.7071C19.4804 32.8946 19.7348 33 20 33H44C44.2652 33 44.5196 32.8946 44.7071 32.7071C44.8946 32.5196 45 32.2652 45 32C45 31.7348 44.8946 31.4804 44.7071 31.2929C44.5196 31.1054 44.2652 31 44 31Z" fill="#913BFF"/>
<path d="M20.243 21.9701L24.243 20.9701C24.4841 20.9098 24.6941 20.7618 24.832 20.5551L28.342 15.2891L31.553 16.9001C31.7577 17.0024 31.9913 17.0314 32.2148 16.9823C32.4383 16.9331 32.6381 16.8088 32.781 16.6301L36.175 12.3871L39.4 14.8001C39.5088 14.8817 39.6331 14.9403 39.7653 14.9722C39.8974 15.0042 40.0347 15.0088 40.1688 14.9859C40.3028 14.963 40.4307 14.9129 40.5448 14.8389C40.6588 14.7648 40.7566 14.6683 40.832 14.5551L44.832 8.55513C44.9792 8.33447 45.0327 8.06437 44.9808 7.80426C44.9288 7.54415 44.7757 7.31532 44.555 7.16813C44.3344 7.02093 44.0643 6.96742 43.8042 7.01937C43.544 7.07132 43.3152 7.22447 43.168 7.44513L39.754 12.5651L36.6 10.2001C36.3922 10.0442 36.1318 9.97522 35.8741 10.0079C35.6163 10.0405 35.3814 10.1723 35.219 10.3751L31.719 14.7441L28.442 13.1051C28.224 12.9962 27.9738 12.9707 27.7382 13.0333C27.5027 13.0959 27.2982 13.2423 27.163 13.4451L23.377 19.1241L19.752 20.0301C19.4964 20.0961 19.2773 20.2605 19.1424 20.4874C19.0075 20.7143 18.9678 20.9853 19.0319 21.2414C19.0961 21.4975 19.2589 21.7178 19.4848 21.8543C19.7108 21.9908 19.9815 22.0324 20.238 21.9701H20.243Z" fill="#913BFF"/>
</svg>
