<svg width="87" height="87" viewBox="0 0 87 87" fill="none" xmlns="http://www.w3.org/2000/svg">
<path d="M78.0729 56.0756C78.5837 53.1524 78.5837 50.1628 78.0729 47.2396L83.9902 39.7196C84.1584 39.506 84.2586 39.2469 84.278 38.9757C84.2974 38.7045 84.235 38.4338 84.099 38.1984L80.0209 31.1297C79.8851 30.8945 79.6821 30.7054 79.4378 30.5866C79.1936 30.4679 78.9194 30.4251 78.6506 30.4636L69.1513 31.8352C66.8839 29.9371 64.3052 28.4456 61.5293 27.4268L57.9691 18.5256C57.868 18.2734 57.6937 18.0572 57.4686 17.9051C57.2435 17.7529 56.9779 17.6717 56.7062 17.6719H48.55C48.2785 17.6719 48.0133 17.7533 47.7884 17.9054C47.5636 18.0576 47.3895 18.2736 47.2885 18.5256L43.7283 27.4268C40.9524 28.4456 38.3737 29.9371 36.1063 31.8352L26.6069 30.4663C26.3381 30.4278 26.064 30.4706 25.8197 30.5894C25.5755 30.7081 25.3724 30.8972 25.2367 31.1324L21.1586 38.2012C21.0225 38.4365 20.9601 38.7073 20.9795 38.9784C20.9989 39.2496 21.0992 39.5087 21.2673 39.7223L27.1874 47.2369C26.6748 50.1599 26.6748 53.1498 27.1874 56.0729L21.27 63.5929C21.1019 63.8065 21.0016 64.0656 20.9823 64.3368C20.9629 64.608 21.0252 64.8787 21.1613 65.1141L25.2394 72.1828C25.3743 72.4188 25.5772 72.6086 25.8217 72.7274C26.0662 72.8462 26.3408 72.8886 26.6097 72.8489L36.109 71.48C38.3764 73.3781 40.9551 74.8696 43.731 75.8885L47.2912 84.7897C47.3922 85.0416 47.5663 85.2576 47.7911 85.4098C48.016 85.5619 48.2812 85.6433 48.5527 85.6433H56.7089C56.9807 85.6435 57.2462 85.5623 57.4713 85.4102C57.6964 85.258 57.8707 85.0419 57.9718 84.7897L61.532 75.8885C64.3079 74.8696 66.8866 73.3781 69.154 71.48L78.6533 72.8489C78.9221 72.8874 79.1963 72.8446 79.4406 72.7259C79.6848 72.6071 79.8878 72.418 80.0236 72.1828L84.1017 65.1141C84.2378 64.8787 84.3001 64.608 84.2807 64.3368C84.2614 64.0656 84.1611 63.8065 83.993 63.5929L78.0729 56.0756ZM52.6281 66.6094C49.6707 66.6094 46.7796 65.7324 44.3206 64.0893C41.8616 62.4462 39.945 60.1109 38.8132 57.3786C37.6814 54.6462 37.3853 51.6397 37.9623 48.739C38.5393 45.8384 39.9634 43.174 42.0546 41.0828C44.1459 38.9916 46.8103 37.5674 49.7109 36.9904C52.6115 36.4135 55.6181 36.7096 58.3504 37.8414C61.0827 38.9731 63.4181 40.8897 65.0612 43.3487C66.7042 45.8078 67.5812 48.6988 67.5812 51.6562C67.5766 55.6206 65.9996 59.4213 63.1964 62.2245C60.3932 65.0278 56.5925 66.6047 52.6281 66.6094V66.6094Z" fill="#EEE5FD" fill-opacity="0.4"/>
<path d="M52.6284 63.8906C59.3853 63.8906 64.8628 58.4131 64.8628 51.6562C64.8628 44.8994 59.3853 39.4219 52.6284 39.4219C45.8716 39.4219 40.394 44.8994 40.394 51.6562C40.394 58.4131 45.8716 63.8906 52.6284 63.8906Z" fill="#EEE5FD" fill-opacity="0.4"/>
<path d="M55.7344 1.35938H6.79688C5.71529 1.35938 4.678 1.78903 3.91321 2.55383C3.14841 3.31863 2.71875 4.35591 2.71875 5.4375V47.5781C2.71875 48.6597 3.14841 49.697 3.91321 50.4618C4.678 51.2266 5.71529 51.6562 6.79688 51.6562H55.7344C56.816 51.6562 57.8532 51.2266 58.618 50.4618C59.3828 49.697 59.8125 48.6597 59.8125 47.5781V5.4375C59.8125 4.35591 59.3828 3.31863 58.618 2.55383C57.8532 1.78903 56.816 1.35938 55.7344 1.35938V1.35938ZM57.0938 5.4375V8.15625H24.95C24.6781 8.15719 24.4122 8.07609 24.1872 7.92354C23.9621 7.77099 23.7883 7.5541 23.6885 7.3012L22.3984 4.07812H55.7344C56.0949 4.07812 56.4407 4.22134 56.6956 4.47628C56.9505 4.73121 57.0938 5.07697 57.0938 5.4375ZM55.7344 48.9375H6.79688C6.43635 48.9375 6.09058 48.7943 5.83565 48.5393C5.58072 48.2844 5.4375 47.9387 5.4375 47.5781V5.4375C5.4375 5.07697 5.58072 4.73121 5.83565 4.47628C6.09058 4.22134 6.43635 4.07812 6.79688 4.07812H19.4703L21.1627 8.31122C21.4634 9.06954 21.9856 9.71971 22.6611 10.177C23.3366 10.6343 24.1342 10.8775 24.95 10.875H57.0938V47.5781C57.0938 47.9387 56.9505 48.2844 56.6956 48.5393C56.4407 48.7943 56.0949 48.9375 55.7344 48.9375Z" fill="#913BFF"/>
<path d="M21.0703 19.2107C20.7573 19.0319 20.3862 18.9848 20.0385 19.0796C19.6908 19.1745 19.395 19.4035 19.2161 19.7163L13.7786 29.232C13.6613 29.4373 13.5996 29.6697 13.5996 29.9062C13.5996 30.1427 13.6613 30.3751 13.7786 30.5805L19.2161 40.0961C19.3995 40.4 19.6944 40.6202 20.038 40.7095C20.3815 40.7989 20.7463 40.7503 21.0545 40.5742C21.3627 40.3981 21.5898 40.1084 21.6872 39.7671C21.7847 39.4258 21.7447 39.0599 21.576 38.7476L16.5191 29.9062L21.5705 21.0703C21.6601 20.9154 21.7182 20.7444 21.7416 20.567C21.7649 20.3896 21.753 20.2094 21.7065 20.0366C21.66 19.8639 21.5799 19.702 21.4707 19.5602C21.3616 19.4185 21.2255 19.2997 21.0703 19.2107V19.2107Z" fill="#913BFF"/>
<path d="M43.3207 19.7109C43.1374 19.407 42.8424 19.1868 42.4989 19.0975C42.1553 19.0081 41.7905 19.0567 41.4823 19.2328C41.1741 19.4089 40.947 19.6986 40.8496 20.0399C40.7521 20.3812 40.7921 20.7471 40.9608 21.0594L46.0123 29.9062L40.9608 38.7422C40.7921 39.0544 40.7521 39.4203 40.8496 39.7617C40.947 40.103 41.1741 40.3926 41.4823 40.5687C41.7905 40.7449 42.1553 40.7934 42.4989 40.7041C42.8424 40.6148 43.1374 40.3946 43.3207 40.0907L48.7582 30.575C48.8755 30.3697 48.9372 30.1373 48.9372 29.9008C48.9372 29.6643 48.8755 29.4319 48.7582 29.2265L43.3207 19.7109Z" fill="#913BFF"/>
<path d="M35.8792 19.1412C35.5478 18.9992 35.1737 18.9946 34.8389 19.1284C34.5042 19.2622 34.2364 19.5235 34.0943 19.8549L25.9381 38.8861C25.8647 39.0506 25.8248 39.2281 25.8207 39.4082C25.8165 39.5883 25.8482 39.7674 25.9139 39.9352C25.9796 40.1029 26.078 40.2559 26.2033 40.3853C26.3287 40.5147 26.4785 40.6179 26.644 40.6889C26.8096 40.7599 26.9876 40.7972 27.1678 40.7988C27.3479 40.8004 27.5266 40.7662 27.6934 40.6981C27.8601 40.63 28.0117 40.5295 28.1393 40.4023C28.2669 40.2751 28.368 40.1239 28.4366 39.9573L36.5928 20.926C36.7348 20.5947 36.7394 20.2205 36.6056 19.8858C36.4718 19.5511 36.2105 19.2833 35.8792 19.1412V19.1412Z" fill="#913BFF"/>
</svg>
