<svg width="35" height="35" viewBox="0 0 35 35" fill="none" xmlns="http://www.w3.org/2000/svg">
<path d="M9.16322 29.5697V33.336C9.16322 33.7027 9.46056 34 9.82721 34H22.7597C23.1263 34 23.4237 33.7027 23.4237 33.336V30.2158C23.4237 29.8491 23.7209 29.5518 24.0877 29.5518H27.7981C29.2649 29.5518 30.454 28.3627 30.454 26.8958V26.4631" stroke="#3D8DFD" stroke-width="1.5" stroke-miterlimit="10" stroke-linecap="round" stroke-linejoin="round"/>
<path d="M30.454 24.3185V23.3682C30.454 23.0014 30.7514 22.7042 31.118 22.7042H32.9105C33.4101 22.7042 33.7308 22.1733 33.4982 21.7311L30.5685 16.1604C30.4933 16.0175 30.454 15.8584 30.454 15.6968V13.879C30.454 6.88768 24.8785 1.11049 17.8881 1.00153C10.7423 0.89011 4.91454 6.64931 4.91454 13.7696C4.91454 17.394 6.42557 20.6645 8.85084 22.9887C9.04871 23.1784 9.16324 23.4388 9.16324 23.7129V27.3586" stroke="#3D8DFD" stroke-width="1.5" stroke-miterlimit="10" stroke-linecap="round" stroke-linejoin="round"/>
<path d="M10.912 6.71313L7.35997 3.16109C7.17312 2.97431 6.91981 2.86933 6.65568 2.86933H3.37606" stroke="#3D8DFD" stroke-width="1.5" stroke-miterlimit="10" stroke-linecap="round" stroke-linejoin="round"/>
<path d="M8.08963 13.481H3.24328" stroke="#3D8DFD" stroke-width="1.5" stroke-miterlimit="10" stroke-linecap="round" stroke-linejoin="round"/>
<path d="M10.8832 20.1134L5.9378 25.0588C5.75103 25.2456 5.64605 25.4989 5.64605 25.7631V27.1753" stroke="#3D8DFD" stroke-width="1.5" stroke-miterlimit="10" stroke-linecap="round" stroke-linejoin="round"/>
<path d="M3.09626 2.86932C3.09626 3.44818 2.62703 3.91748 2.0481 3.91748C1.46924 3.91748 1 3.44818 1 2.86932C1 2.29045 1.46924 1.82115 2.0481 1.82115C2.62703 1.82115 3.09626 2.29045 3.09626 2.86932Z" stroke="#3D8DFD" stroke-width="1.5" stroke-miterlimit="10" stroke-linecap="round" stroke-linejoin="round"/>
<path d="M3.09626 13.4806C3.09626 14.0595 2.62703 14.5288 2.0481 14.5288C1.46924 14.5288 1 14.0595 1 13.4806C1 12.9018 1.46924 12.4325 2.0481 12.4325C2.62703 12.4325 3.09626 12.9018 3.09626 13.4806Z" stroke="#3D8DFD" stroke-width="1.5" stroke-miterlimit="10" stroke-linecap="round" stroke-linejoin="round"/>
<path d="M6.69423 28.5031C6.69423 29.082 6.22499 29.5513 5.64607 29.5513C5.0672 29.5513 4.5979 29.082 4.5979 28.5031C4.5979 27.9242 5.0672 27.4549 5.64607 27.4549C6.22499 27.4549 6.69423 27.9242 6.69423 28.5031Z" stroke="#3D8DFD" stroke-width="1.5" stroke-miterlimit="10" stroke-linecap="round" stroke-linejoin="round"/>
<path d="M12.7172 12.4815C13.1796 10.2216 15.1791 8.52159 17.5758 8.52159C20.3147 8.52159 22.5351 10.742 22.5351 13.481C22.5351 16.22 20.3147 18.4403 17.5758 18.4403C15.2152 18.4403 13.2398 16.791 12.7391 14.5819M26.6068 11.7837H24.448C24.3007 11.7837 24.1716 11.6865 24.1299 11.5453C23.9925 11.0796 23.8068 10.6347 23.5785 10.2161C23.508 10.0867 23.5304 9.92651 23.6347 9.82233L25.1618 8.29517C25.2915 8.16556 25.2915 7.95528 25.1618 7.82567L23.2311 5.89487C23.1014 5.76526 22.8913 5.76526 22.7615 5.89487L21.2343 7.42203C21.1302 7.52628 20.97 7.54872 20.8407 7.4782C20.4221 7.24999 19.9772 7.06421 19.5114 6.92677C19.3701 6.88513 19.273 6.75599 19.273 6.60878V4.44991C19.273 4.26658 19.1243 4.11791 18.941 4.11791H16.2105C16.0272 4.11791 15.8785 4.26658 15.8785 4.44991V6.60878C15.8785 6.75599 15.7813 6.88513 15.6401 6.92677C15.1744 7.06421 14.7295 7.24999 14.3109 7.4782C14.1815 7.54872 14.0214 7.52628 13.9171 7.42203L12.39 5.89487C12.2603 5.76526 12.0501 5.76526 11.9205 5.89487L9.98971 7.82567C9.8601 7.95528 9.8601 8.16556 9.98971 8.29517L11.5169 9.82233C11.6211 9.92651 11.6436 10.0867 11.573 10.2161C11.3448 10.6347 11.159 11.0796 11.0216 11.5453C10.98 11.6865 10.8508 11.7837 10.7036 11.7837H8.54475C8.36135 11.7837 8.21275 11.9323 8.21275 12.1157V14.8462C8.21275 15.0296 8.36135 15.1782 8.54475 15.1782H10.7036C10.8508 15.1782 10.98 15.2754 11.0216 15.4166C11.159 15.8823 11.3448 16.3273 11.573 16.7458C11.6436 16.8752 11.6211 17.0353 11.5169 17.1396L9.98971 18.6667C9.8601 18.7963 9.8601 19.0066 9.98971 19.1362L11.9205 21.067C12.0501 21.1966 12.2603 21.1966 12.39 21.067L13.9171 19.5399C14.0214 19.4356 14.1815 19.4131 14.3109 19.4837C14.7295 19.7119 15.1744 19.8977 15.6401 20.0351C15.7813 20.0768 15.8785 20.2059 15.8785 20.3531V22.512C15.8785 22.6953 16.0272 22.844 16.2105 22.844H18.941C19.1243 22.844 19.273 22.6953 19.273 22.512V20.3531C19.273 20.2059 19.3701 20.0768 19.5114 20.0351C19.9772 19.8977 20.4221 19.7119 20.8407 19.4837C20.97 19.4131 21.1302 19.4356 21.2343 19.5399L22.7615 21.067C22.8913 21.1966 23.1014 21.1966 23.2311 21.067L25.1618 19.1362C25.2915 19.0066 25.2915 18.7963 25.1618 18.6667L23.6347 17.1396C23.5304 17.0353 23.508 16.8752 23.5785 16.7458C23.8068 16.3273 23.9925 15.8823 24.1299 15.4166C24.1716 15.2754 24.3007 15.1782 24.448 15.1782H26.6068C26.7902 15.1782 26.9388 15.0296 26.9388 14.8462V12.1157C26.9388 11.9323 26.7902 11.7837 26.6068 11.7837Z" stroke="#3D8DFD" stroke-width="1.5" stroke-miterlimit="10" stroke-linecap="round" stroke-linejoin="round"/>
</svg>
