<svg width="66" height="58" viewBox="0 0 66 58" fill="none" xmlns="http://www.w3.org/2000/svg">
<path fill-rule="evenodd" clip-rule="evenodd" d="M4.23532 57.6959C1.95826 57.6959 0.117676 55.9047 0.117676 53.7059C0.117676 51.5071 1.95826 49.7159 4.23532 49.7159C15.5877 49.7159 20.7059 44.7706 20.7059 33.6282V28.9094H6.53709C3.11944 28.9094 0.335911 26.1177 0.335911 22.6877V6.39825C0.335911 2.96413 3.11944 0.172363 6.53709 0.172363H22.74C26.1577 0.172363 28.9412 2.96413 28.9412 6.39825V33.6241C28.9412 49.1683 20.1253 57.6959 4.23532 57.6959Z" fill="#1C8EF4" fill-opacity="0.14"/>
<path fill-rule="evenodd" clip-rule="evenodd" d="M41.2939 57.6959C39.0169 57.6959 37.1763 55.9047 37.1763 53.7059C37.1763 51.5071 39.0169 49.7159 41.2939 49.7159C52.6463 49.7159 57.7645 44.7706 57.7645 33.6282V28.7818H43.4886C40.0545 28.7818 37.2627 25.9982 37.2627 22.5806V6.37354C37.2627 2.95589 40.0545 0.172363 43.4886 0.172363H59.7739C63.208 0.172363 65.9998 2.95589 65.9998 6.37354V33.6241C65.9998 49.1683 57.1839 57.6959 41.2939 57.6959Z" fill="#1C8EF4" fill-opacity="0.14"/>
</svg>
