<svg width="54" height="54" viewBox="0 0 54 54" fill="none" xmlns="http://www.w3.org/2000/svg">
<g clip-path="url(#clip0_249_1496)">
<path d="M52.3125 51.4688H50.625V43.875C50.625 43.2037 50.3583 42.5598 49.8836 42.0851C49.4089 41.6104 48.7651 41.3438 48.0938 41.3438H43.875C43.2037 41.3438 42.5598 41.6104 42.0851 42.0851C41.6104 42.5598 41.3438 43.2037 41.3438 43.875V51.4688H37.9688V23.625C37.9688 22.9537 37.7021 22.3098 37.2274 21.8351C36.7527 21.3604 36.1088 21.0938 35.4375 21.0938H31.2188C30.5474 21.0938 29.9036 21.3604 29.4289 21.8351C28.9542 22.3098 28.6875 22.9537 28.6875 23.625V51.4688H25.3125V33.75C25.3125 33.0787 25.0458 32.4348 24.5711 31.9601C24.0964 31.4854 23.4526 31.2188 22.7812 31.2188H18.5625C17.8912 31.2188 17.2473 31.4854 16.7726 31.9601C16.2979 32.4348 16.0312 33.0787 16.0312 33.75V51.4688H12.6562V16.875C12.6562 16.6512 12.5674 16.4366 12.4091 16.2784C12.2509 16.1201 12.0363 16.0312 11.8125 16.0312C11.5887 16.0312 11.3741 16.1201 11.2159 16.2784C11.0576 16.4366 10.9688 16.6512 10.9688 16.875V52.3125C10.9688 52.5363 11.0576 52.7509 11.2159 52.9091C11.3741 53.0674 11.5887 53.1562 11.8125 53.1562H52.3125C52.5363 53.1562 52.7509 53.0674 52.9091 52.9091C53.0674 52.7509 53.1562 52.5363 53.1562 52.3125C53.1562 52.0887 53.0674 51.8741 52.9091 51.7159C52.7509 51.5576 52.5363 51.4688 52.3125 51.4688Z" fill="#913BFF" fill-opacity="0.1"/>
<path d="M24.4687 0.843756C20.8693 0.841892 17.347 1.88716 14.3312 3.85215C11.3154 5.81715 8.93634 8.617 7.484 11.9105C6.03165 15.2039 5.56874 18.8488 6.15169 22.4007C6.73463 25.9527 8.33825 29.2584 10.7671 31.9148L8.42653 34.2563C7.93977 33.8402 7.3161 33.6192 6.67597 33.6361C6.03583 33.6529 5.42464 33.9063 4.96041 34.3474L1.79044 37.5173C1.18467 38.1231 0.84436 38.9447 0.84436 39.8014C0.84436 40.6581 1.18467 41.4796 1.79044 42.0854C2.3962 42.6912 3.21779 43.0315 4.07447 43.0315C4.93115 43.0315 5.75274 42.6912 6.3585 42.0854L9.52847 38.9146C9.98226 38.457 10.2444 37.8436 10.2615 37.1993C10.2786 36.5551 10.0493 35.9286 9.62044 35.4476L11.9602 33.1079C14.1878 35.144 16.8784 36.6062 19.7987 37.3679C22.719 38.1295 25.7809 38.1677 28.7193 37.479C31.6576 36.7903 34.3838 35.3955 36.6615 33.4155C38.9392 31.4356 40.6998 28.9301 41.7907 26.1162C42.8816 23.3023 43.27 20.2648 42.9222 17.2669C42.5744 14.269 41.5008 11.4012 39.7946 8.91181C38.0883 6.42244 35.8009 4.38663 33.1303 2.98076C30.4598 1.5749 27.4867 0.841379 24.4687 0.843756ZM8.33541 37.7215L5.16544 40.8923C4.94962 41.1081 4.67469 41.255 4.3754 41.3145C4.07611 41.374 3.7659 41.3434 3.48397 41.2267C3.20205 41.1099 2.96107 40.9122 2.79149 40.6585C2.62191 40.4048 2.53135 40.1065 2.53125 39.8014C2.5323 39.3923 2.69484 39.0002 2.9835 38.7104L6.15347 35.5396C6.3117 35.3814 6.52627 35.2926 6.75 35.2926C6.97373 35.2926 7.1883 35.3814 7.34653 35.5396L8.33456 36.5285C8.49285 36.6866 8.58186 36.9011 8.58202 37.1248C8.58218 37.3486 8.49347 37.5632 8.33541 37.7215ZM24.4687 36.2813C21.1312 36.2813 17.8686 35.2915 15.0935 33.4373C12.3184 31.5831 10.1555 28.9475 8.87828 25.864C7.60105 22.7805 7.26687 19.3875 7.918 16.1141C8.56912 12.8407 10.1763 9.83384 12.5363 7.47383C14.8963 5.11382 17.9032 3.50663 21.1766 2.8555C24.45 2.20438 27.843 2.53856 30.9265 3.81579C34.01 5.09302 36.6455 7.25593 38.4998 10.031C40.354 12.8061 41.3438 16.0687 41.3438 19.4063C41.3386 23.8802 39.5591 28.1694 36.3955 31.333C33.2319 34.4966 28.9427 36.2761 24.4687 36.2813Z" fill="#913BFF"/>
<path d="M24.4688 4.21875C21.465 4.21875 18.5286 5.10948 16.031 6.77831C13.5335 8.44713 11.5868 10.8191 10.4373 13.5942C9.28783 16.3694 8.98707 19.4231 9.57308 22.3692C10.1591 25.3153 11.6056 28.0214 13.7296 30.1454C15.8536 32.2694 18.5597 33.7159 21.5058 34.3019C24.4519 34.8879 27.5056 34.5872 30.2808 33.4377C33.0559 32.2882 35.4279 30.3415 37.0967 27.844C38.7655 25.3464 39.6563 22.4101 39.6563 19.4062C39.6516 15.3797 38.05 11.5194 35.2028 8.67225C32.3556 5.82505 28.4953 4.22344 24.4688 4.21875ZM35.4375 27.2464V19.4062C35.4375 19.1825 35.3486 18.9679 35.1904 18.8096C35.0321 18.6514 34.8175 18.5625 34.5938 18.5625C34.37 18.5625 34.1554 18.6514 33.9971 18.8096C33.8389 18.9679 33.75 19.1825 33.75 19.4062V29.1845C32.0914 30.7605 30.0588 31.8883 27.8438 32.4616V25.3125C27.8438 25.0887 27.7549 24.8741 27.5966 24.7159C27.4384 24.5576 27.2238 24.4688 27 24.4688C26.7762 24.4688 26.5616 24.5576 26.4034 24.7159C26.2452 24.8741 26.1563 25.0887 26.1563 25.3125V32.789C25.0367 32.9453 23.9008 32.9453 22.7813 32.789V21.9375C22.7813 21.7137 22.6924 21.4991 22.5341 21.3409C22.3759 21.1826 22.1613 21.0938 21.9375 21.0938C21.7137 21.0938 21.4991 21.1826 21.3409 21.3409C21.1827 21.4991 21.0938 21.7137 21.0938 21.9375V32.4616C19.911 32.1569 18.7755 31.6919 17.7188 31.0795V23.625C17.7188 23.4012 17.6299 23.1866 17.4716 23.0284C17.3134 22.8701 17.0988 22.7812 16.875 22.7812C16.6512 22.7812 16.4366 22.8701 16.2784 23.0284C16.1202 23.1866 16.0313 23.4012 16.0313 23.625V29.9278C14.4522 28.6661 13.1774 27.0653 12.301 25.2439C11.4247 23.4226 10.9693 21.4274 10.9688 19.4062C10.9688 19.1531 10.9932 18.9 11.0067 18.6528L16.5426 21.0254C16.6716 21.0808 16.8124 21.103 16.9522 21.0902C17.0921 21.0774 17.2265 21.0299 17.3433 20.952L21.8303 17.9609L26.4035 22.534C26.5617 22.6922 26.7763 22.7811 27 22.7811C27.2237 22.7811 27.4383 22.6922 27.5965 22.534L35.1903 14.9403C35.344 14.7811 35.429 14.568 35.4271 14.3468C35.4252 14.1256 35.3365 13.9139 35.18 13.7575C35.0236 13.6011 34.812 13.5123 34.5907 13.5104C34.3695 13.5085 34.1564 13.5935 33.9972 13.7472L27 20.7444L22.534 16.2785C22.3961 16.1405 22.2146 16.0546 22.0205 16.0354C21.8263 16.0161 21.6315 16.0648 21.4692 16.173L16.7873 19.2949C14.0417 18.1263 11.4961 17.0117 11.2075 16.9239C11.5753 14.9358 12.3852 13.0557 13.5773 11.4226C14.7694 9.78958 16.3133 8.4453 18.0948 7.48916C19.8763 6.53302 21.8499 5.98947 23.8698 5.89868C25.8896 5.80789 27.904 6.17218 29.7642 6.96462C31.6243 7.75707 33.2825 8.95741 34.6164 10.4769C35.9502 11.9964 36.9255 13.7963 37.4701 15.7434C38.0148 17.6906 38.1149 19.7352 37.7631 21.7263C37.4113 23.7173 36.6165 25.6038 35.4375 27.2464Z" fill="#913BFF"/>
</g>
<defs>
<clipPath id="clip0_249_1496">
<rect width="54" height="54" fill="white"/>
</clipPath>
</defs>
</svg>
