<svg width="54" height="54" viewBox="0 0 54 54" fill="none" xmlns="http://www.w3.org/2000/svg">
<g clip-path="url(#clip0_249_1538)">
<path d="M32.9062 43.0312H36.2812V45.5625H32.9062V43.0312Z" fill="#F4EBFF"/>
<path d="M22.7812 43.0312H26.1562V45.5625H22.7812V43.0312Z" fill="#F4EBFF"/>
<path d="M50.625 21.0938H18.5625C17.8912 21.0938 17.2473 21.3604 16.7726 21.8351C16.2979 22.3098 16.0313 22.9537 16.0312 23.625V50.625C16.0313 51.2963 16.2979 51.9402 16.7726 52.4149C17.2473 52.8896 17.8912 53.1562 18.5625 53.1562H50.625C51.2963 53.1562 51.9402 52.8896 52.4149 52.4149C52.8896 51.9402 53.1562 51.2963 53.1562 50.625V23.625C53.1562 22.9537 52.8896 22.3098 52.4149 21.8351C51.9402 21.3604 51.2963 21.0938 50.625 21.0938ZM48.0938 46.4062C48.0938 46.63 48.0049 46.8446 47.8466 47.0029C47.6884 47.1611 47.4738 47.25 47.25 47.25H42.1875C41.9637 47.25 41.7491 47.1611 41.5909 47.0029C41.4326 46.8446 41.3438 46.63 41.3438 46.4062V42.1875C41.3438 41.9637 41.4326 41.7491 41.5909 41.5909C41.7491 41.4326 41.9637 41.3438 42.1875 41.3438H43.875V39.6562H35.4375V41.3438H37.125C37.3488 41.3438 37.5634 41.4326 37.7216 41.5909C37.8799 41.7491 37.9688 41.9637 37.9688 42.1875V46.4062C37.9688 46.63 37.8799 46.8446 37.7216 47.0029C37.5634 47.1611 37.3488 47.25 37.125 47.25H32.0625C31.8387 47.25 31.6241 47.1611 31.4659 47.0029C31.3076 46.8446 31.2188 46.63 31.2188 46.4062V42.1875C31.2188 41.9637 31.3076 41.7491 31.4659 41.5909C31.6241 41.4326 31.8387 41.3438 32.0625 41.3438H33.75V39.6562H25.3125V41.3438H27C27.2238 41.3438 27.4384 41.4326 27.5966 41.5909C27.7549 41.7491 27.8438 41.9637 27.8438 42.1875V46.4062C27.8438 46.63 27.7549 46.8446 27.5966 47.0029C27.4384 47.1611 27.2238 47.25 27 47.25H21.9375C21.7137 47.25 21.4991 47.1611 21.3409 47.0029C21.1826 46.8446 21.0938 46.63 21.0938 46.4062V42.1875C21.0938 41.9637 21.1826 41.7491 21.3409 41.5909C21.4991 41.4326 21.7137 41.3438 21.9375 41.3438H23.625V38.8125C23.625 38.5887 23.7139 38.3741 23.8721 38.2159C24.0304 38.0576 24.245 37.9688 24.4688 37.9688H33.75V36.2812H28.6875C28.4637 36.2812 28.2491 36.1924 28.0909 36.0341C27.9326 35.8759 27.8438 35.6613 27.8438 35.4375V31.2188C27.8438 30.995 27.9326 30.7804 28.0909 30.6221C28.2491 30.4639 28.4637 30.375 28.6875 30.375H40.5C40.7238 30.375 40.9384 30.4639 41.0966 30.6221C41.2549 30.7804 41.3438 30.995 41.3438 31.2188V35.4375C41.3438 35.6613 41.2549 35.8759 41.0966 36.0341C40.9384 36.1924 40.7238 36.2812 40.5 36.2812H35.4375V37.9688H44.7188C44.9425 37.9688 45.1571 38.0576 45.3154 38.2159C45.4736 38.3741 45.5625 38.5887 45.5625 38.8125V41.3438H47.25C47.4738 41.3438 47.6884 41.4326 47.8466 41.5909C48.0049 41.7491 48.0938 41.9637 48.0938 42.1875V46.4062ZM51.4688 26.1562H17.7188V23.625C17.7188 23.4012 17.8076 23.1866 17.9659 23.0284C18.1241 22.8701 18.3387 22.7812 18.5625 22.7812H50.625C50.8488 22.7812 51.0634 22.8701 51.2216 23.0284C51.3799 23.1866 51.4688 23.4012 51.4688 23.625V26.1562Z" fill="#F4EBFF"/>
<path d="M29.5312 32.0625H39.6562V34.5938H29.5312V32.0625Z" fill="#F4EBFF"/>
<path d="M43.0312 43.0312H46.4062V45.5625H43.0312V43.0312Z" fill="#F4EBFF"/>
<path d="M40.5 0.84375H33.75C33.0787 0.84375 32.4348 1.11043 31.9601 1.58514C31.4854 2.05984 31.2188 2.70367 31.2188 3.375V10.125C31.2188 10.7963 31.4854 11.4402 31.9601 11.9149C32.4348 12.3896 33.0787 12.6562 33.75 12.6562H36.2812V16.0312H22.7812V12.6562H25.3125C25.9838 12.6562 26.6277 12.3896 27.1024 11.9149C27.5771 11.4402 27.8438 10.7963 27.8438 10.125V3.375C27.8438 2.70367 27.5771 2.05984 27.1024 1.58514C26.6277 1.11043 25.9838 0.84375 25.3125 0.84375H18.5625C17.8912 0.84375 17.2473 1.11043 16.7726 1.58514C16.2979 2.05984 16.0312 2.70367 16.0312 3.375V10.125C16.0312 10.7963 16.2979 11.4402 16.7726 11.9149C17.2473 12.3896 17.8912 12.6562 18.5625 12.6562H21.0938V16.0312H7.59375V12.6562H10.125C10.7963 12.6562 11.4402 12.3896 11.9149 11.9149C12.3896 11.4402 12.6562 10.7963 12.6562 10.125V3.375C12.6562 2.70367 12.3896 2.05984 11.9149 1.58514C11.4402 1.11043 10.7963 0.84375 10.125 0.84375H3.375C2.70367 0.84375 2.05984 1.11043 1.58514 1.58514C1.11043 2.05984 0.84375 2.70367 0.84375 3.375V10.125C0.84375 10.7963 1.11043 11.4402 1.58514 11.9149C2.05984 12.3896 2.70367 12.6562 3.375 12.6562H5.90625V16.875C5.90625 17.0988 5.99514 17.3134 6.15338 17.4716C6.31161 17.6299 6.52622 17.7188 6.75 17.7188H21.0938V21.0938H3.375C2.70367 21.0938 2.05984 21.3604 1.58514 21.8351C1.11043 22.3098 0.84375 22.9537 0.84375 23.625V40.5C0.84375 41.1713 1.11043 41.8152 1.58514 42.2899C2.05984 42.7646 2.70367 43.0312 3.375 43.0312H40.5C41.1713 43.0312 41.8152 42.7646 42.2899 42.2899C42.7646 41.8152 43.0312 41.1713 43.0312 40.5V23.625C43.0312 22.9537 42.7646 22.3098 42.2899 21.8351C41.8152 21.3604 41.1713 21.0938 40.5 21.0938H22.7812V17.7188H37.125C37.3488 17.7188 37.5634 17.6299 37.7216 17.4716C37.8799 17.3134 37.9688 17.0988 37.9688 16.875V12.6562H40.5C41.1713 12.6562 41.8152 12.3896 42.2899 11.9149C42.7646 11.4402 43.0312 10.7963 43.0312 10.125V3.375C43.0312 2.70367 42.7646 2.05984 42.2899 1.58514C41.8152 1.11043 41.1713 0.84375 40.5 0.84375ZM17.7188 10.125V3.375C17.7188 3.15122 17.8076 2.93661 17.9659 2.77838C18.1241 2.62014 18.3387 2.53125 18.5625 2.53125H25.3125C25.5363 2.53125 25.7509 2.62014 25.9091 2.77838C26.0674 2.93661 26.1562 3.15122 26.1562 3.375V10.125C26.1562 10.3488 26.0674 10.5634 25.9091 10.7216C25.7509 10.8799 25.5363 10.9688 25.3125 10.9688H18.5625C18.3387 10.9688 18.1241 10.8799 17.9659 10.7216C17.8076 10.5634 17.7188 10.3488 17.7188 10.125ZM2.53125 10.125V3.375C2.53125 3.15122 2.62014 2.93661 2.77838 2.77838C2.93661 2.62014 3.15122 2.53125 3.375 2.53125H10.125C10.3488 2.53125 10.5634 2.62014 10.7216 2.77838C10.8799 2.93661 10.9688 3.15122 10.9688 3.375V10.125C10.9688 10.3488 10.8799 10.5634 10.7216 10.7216C10.5634 10.8799 10.3488 10.9688 10.125 10.9688H3.375C3.15122 10.9688 2.93661 10.8799 2.77838 10.7216C2.62014 10.5634 2.53125 10.3488 2.53125 10.125ZM41.3438 23.625V40.5C41.3438 40.7238 41.2549 40.9384 41.0966 41.0966C40.9384 41.2549 40.7238 41.3438 40.5 41.3438H3.375C3.15122 41.3438 2.93661 41.2549 2.77838 41.0966C2.62014 40.9384 2.53125 40.7238 2.53125 40.5V23.625C2.53125 23.4012 2.62014 23.1866 2.77838 23.0284C2.93661 22.8701 3.15122 22.7812 3.375 22.7812H40.5C40.7238 22.7812 40.9384 22.8701 41.0966 23.0284C41.2549 23.1866 41.3438 23.4012 41.3438 23.625ZM41.3438 10.125C41.3438 10.3488 41.2549 10.5634 41.0966 10.7216C40.9384 10.8799 40.7238 10.9688 40.5 10.9688H33.75C33.5262 10.9688 33.3116 10.8799 33.1534 10.7216C32.9951 10.5634 32.9062 10.3488 32.9062 10.125V3.375C32.9062 3.15122 32.9951 2.93661 33.1534 2.77838C33.3116 2.62014 33.5262 2.53125 33.75 2.53125H40.5C40.7238 2.53125 40.9384 2.62014 41.0966 2.77838C41.2549 2.93661 41.3438 3.15122 41.3438 3.375V10.125Z" fill="#913BFF"/>
<path d="M15.6557 26.2981C15.5635 26.2366 15.4601 26.1939 15.3514 26.1723C15.2427 26.1508 15.1308 26.1509 15.0221 26.1726C14.9134 26.1943 14.8101 26.2372 14.718 26.2988C14.6259 26.3605 14.5469 26.4397 14.4854 26.5319L11.1104 31.5944C11.0179 31.733 10.9685 31.896 10.9685 32.0626C10.9685 32.2293 11.0179 32.3923 11.1104 32.5309L14.4854 37.5934C14.6096 37.7796 14.8026 37.9088 15.0221 37.9527C15.2416 37.9965 15.4695 37.9513 15.6557 37.8271C15.8418 37.703 15.9711 37.5099 16.0149 37.2904C16.0587 37.0709 16.0136 36.843 15.8894 36.6569L12.8249 32.0626L15.8877 27.4684C16.0121 27.2825 16.0575 27.0547 16.014 26.8352C15.9705 26.6158 15.8416 26.4226 15.6557 26.2981Z" fill="#913BFF"/>
<path d="M28.2193 37.8271C28.3115 37.8886 28.4149 37.9314 28.5236 37.9529C28.6323 37.9745 28.7442 37.9744 28.8529 37.9527C28.9616 37.931 29.0649 37.8881 29.157 37.8264C29.2491 37.7648 29.3281 37.6856 29.3896 37.5934L32.7646 32.5309C32.8571 32.3922 32.9065 32.2293 32.9065 32.0626C32.9065 31.8959 32.8571 31.733 32.7646 31.5943L29.3896 26.5318C29.2654 26.3456 29.0723 26.2164 28.8529 26.1726C28.6334 26.1288 28.4055 26.1739 28.2193 26.2981C28.0331 26.4223 27.9039 26.6154 27.8601 26.8348C27.8163 27.0543 27.8614 27.2822 27.9856 27.4684L31.0501 32.0626L27.9873 36.6568C27.8629 36.8428 27.8175 37.0706 27.861 37.29C27.9045 37.5095 28.0334 37.7027 28.2193 37.8271Z" fill="#913BFF"/>
<path d="M19.0291 37.8844C19.1282 37.934 19.2362 37.9635 19.3468 37.9714C19.4574 37.9792 19.5684 37.9652 19.6736 37.9301C19.7787 37.895 19.8759 37.8395 19.9596 37.7668C20.0433 37.6941 20.1119 37.6056 20.1614 37.5064L25.2239 27.3814C25.3239 27.1811 25.3403 26.9493 25.2694 26.737C25.1985 26.5246 25.0462 26.3491 24.8459 26.2491C24.6456 26.1491 24.4138 26.1327 24.2014 26.2036C23.9891 26.2745 23.8136 26.4268 23.7136 26.6271L18.6511 36.7521C18.6015 36.8513 18.572 36.9592 18.5641 37.0698C18.5563 37.1804 18.5703 37.2914 18.6054 37.3966C18.6405 37.5017 18.696 37.599 18.7687 37.6827C18.8414 37.7664 18.9299 37.8349 19.0291 37.8844Z" fill="#913BFF"/>
</g>
<defs>
<clipPath id="clip0_249_1538">
<rect width="54" height="54" fill="white"/>
</clipPath>
</defs>
</svg>
