<svg width="54" height="54" viewBox="0 0 54 54" fill="none" xmlns="http://www.w3.org/2000/svg">
<path d="M18.5625 46.4062H30.375V51.4688H24.4688C24.245 51.4688 24.0304 51.5576 23.8721 51.7159C23.7139 51.8741 23.625 52.0887 23.625 52.3125C23.625 52.5363 23.7139 52.7509 23.8721 52.9091C24.0304 53.0674 24.245 53.1562 24.4688 53.1562H44.7188C44.9425 53.1562 45.1571 53.0674 45.3154 52.9091C45.4736 52.7509 45.5625 52.5363 45.5625 52.3125C45.5625 52.0887 45.4736 51.8741 45.3154 51.7159C45.1571 51.5576 44.9425 51.4688 44.7188 51.4688H38.8125V46.4062H49.7812C50.4526 46.4062 51.0964 46.1396 51.5711 45.6649C52.0458 45.1902 52.3125 44.5463 52.3125 43.875V19.4062C52.3125 18.7349 52.0458 18.0911 51.5711 17.6164C51.0964 17.1417 50.4526 16.875 49.7812 16.875H18.5625C17.8912 16.875 17.2473 17.1417 16.7726 17.6164C16.2979 18.0911 16.0313 18.7349 16.0312 19.4062V43.875C16.0313 44.5463 16.2979 45.1902 16.7726 45.6649C17.2473 46.1396 17.8912 46.4062 18.5625 46.4062ZM27.9003 27.8581C28.1069 26.2279 28.9011 24.7291 30.1339 23.6427C31.3667 22.5563 32.9535 21.9569 34.5967 21.9569C36.2399 21.9569 37.8267 22.5563 39.0595 23.6427C40.2923 24.7291 41.0865 26.2279 41.2931 27.8581C42.4892 27.9523 43.6023 28.5061 44.3988 29.4033C45.1954 30.3005 45.6135 31.4713 45.5655 32.6701C45.5175 33.869 45.007 35.0026 44.1412 35.8332C43.2755 36.6637 42.1216 37.1267 40.9219 37.125H28.2656C27.0664 37.1252 25.9136 36.6611 25.049 35.8301C24.1844 34.999 23.6751 33.8655 23.6278 32.6672C23.5806 31.4689 23.9991 30.2988 24.7956 29.4022C25.5921 28.5057 26.7047 27.9523 27.9003 27.8581ZM17.7188 41.3438H50.625V43.875C50.625 44.0988 50.5361 44.3134 50.3779 44.4716C50.2196 44.6299 50.005 44.7188 49.7812 44.7188H18.5625C18.3387 44.7188 18.1241 44.6299 17.9659 44.4716C17.8076 44.3134 17.7188 44.0988 17.7188 43.875V41.3438Z" fill="#F4EBFF"/>
<path d="M28.2656 35.4375H40.9219C41.3165 35.4371 41.707 35.3573 42.0703 35.2031C42.4335 35.0488 42.762 34.8231 43.0364 34.5395C43.3107 34.2558 43.5253 33.9199 43.6673 33.5517C43.8094 33.1836 43.876 32.7906 43.8633 32.3962C43.8506 32.0017 43.7588 31.6139 43.5933 31.2556C43.4278 30.8974 43.192 30.576 42.9 30.3106C42.6079 30.0452 42.2655 29.8412 41.8931 29.7106C41.5207 29.5801 41.1259 29.5257 40.732 29.5507L40.5937 29.5684C40.4757 29.5816 40.3564 29.5697 40.2434 29.5336C40.1303 29.4975 40.0262 29.438 39.9377 29.3589C39.8493 29.2799 39.7785 29.183 39.73 29.0748C39.6815 28.9665 39.6563 28.8492 39.6563 28.7305C39.6591 28.0657 39.5309 27.4069 39.2791 26.7916C39.0273 26.1763 38.6568 25.6166 38.1887 25.1445C37.7206 24.6724 37.1641 24.2971 36.551 24.0401C35.9378 23.7831 35.2801 23.6494 34.6153 23.6465C33.9504 23.6437 33.2916 23.7719 32.6763 24.0237C32.061 24.2755 31.5013 24.646 31.0292 25.1141C30.5571 25.5822 30.1819 26.1387 29.9248 26.7518C29.6678 27.3649 29.5341 28.0227 29.5313 28.6875C29.532 28.8083 29.5078 28.9278 29.4602 29.0388C29.4126 29.1498 29.3427 29.2497 29.2547 29.3324C29.1667 29.4151 29.0626 29.4787 28.9489 29.5193C28.8352 29.5599 28.7143 29.5766 28.5938 29.5684C28.5483 29.5625 28.3281 29.5313 28.2656 29.5313C27.4824 29.5313 26.7313 29.8424 26.1774 30.3962C25.6236 30.95 25.3125 31.7012 25.3125 32.4844C25.3125 33.2676 25.6236 34.0187 26.1774 34.5726C26.7313 35.1264 27.4824 35.4375 28.2656 35.4375ZM34.5938 25.3125C35.4727 25.3078 36.3185 25.6479 36.9495 26.2599C37.5805 26.8718 37.9465 27.7067 37.9688 28.5854C37.9721 28.6962 37.9535 28.8066 37.9142 28.9102C37.8749 29.0139 37.8155 29.1088 37.7395 29.1895C37.6635 29.2702 37.5724 29.3351 37.4713 29.3806C37.3702 29.426 37.2611 29.4512 37.1503 29.4545C37.0395 29.4578 36.9291 29.4393 36.8255 29.3999C36.7219 29.3606 36.627 29.3013 36.5463 29.2253C36.4656 29.1493 36.4006 29.0581 36.3552 28.957C36.3097 28.8559 36.2846 28.7468 36.2813 28.636C36.265 28.1985 36.0804 27.784 35.766 27.4792C35.4516 27.1744 35.0316 27.0028 34.5938 27C34.37 27 34.1554 26.9111 33.9971 26.7529C33.8389 26.5947 33.75 26.38 33.75 26.1563C33.75 25.9325 33.8389 25.7179 33.9971 25.5596C34.1554 25.4014 34.37 25.3125 34.5938 25.3125Z" fill="#F4EBFF"/>
<path d="M3.375 39.6562H6.75V41.3437H5.0625C4.83872 41.3437 4.62411 41.4326 4.46588 41.5909C4.30765 41.7491 4.21875 41.9637 4.21875 42.1875C4.21875 42.4113 4.30765 42.6259 4.46588 42.7841C4.62411 42.9423 4.83872 43.0312 5.0625 43.0312H10.125C10.3488 43.0312 10.5634 42.9423 10.7216 42.7841C10.8799 42.6259 10.9688 42.4113 10.9688 42.1875C10.9688 41.9637 10.8799 41.7491 10.7216 41.5909C10.5634 41.4326 10.3488 41.3437 10.125 41.3437H8.4375V39.6562H11.8125C12.2601 39.6562 12.6893 39.4785 13.0057 39.162C13.3222 38.8455 13.5 38.4163 13.5 37.9687V32.9062C13.5 32.4587 13.3222 32.0295 13.0057 31.713C12.6893 31.3965 12.2601 31.2187 11.8125 31.2187H8.4375V29.5312H20.25V31.2187H16.875C16.4274 31.2187 15.9982 31.3965 15.6818 31.713C15.3653 32.0295 15.1875 32.4587 15.1875 32.9062V37.9687C15.1875 38.4163 15.3653 38.8455 15.6818 39.162C15.9982 39.4785 16.4274 39.6562 16.875 39.6562H20.25V41.3437H18.5625C18.3387 41.3437 18.1241 41.4326 17.9659 41.5909C17.8076 41.7491 17.7188 41.9637 17.7188 42.1875C17.7188 42.4113 17.8076 42.6259 17.9659 42.7841C18.1241 42.9423 18.3387 43.0312 18.5625 43.0312H23.625C23.8488 43.0312 24.0634 42.9423 24.2216 42.7841C24.3799 42.6259 24.4688 42.4113 24.4688 42.1875C24.4688 41.9637 24.3799 41.7491 24.2216 41.5909C24.0634 41.4326 23.8488 41.3437 23.625 41.3437H21.9375V39.6562H25.3125C25.7601 39.6562 26.1893 39.4785 26.5057 39.162C26.8222 38.8455 27 38.4163 27 37.9687V32.9062C27 32.4587 26.8222 32.0295 26.5057 31.713C26.1893 31.3965 25.7601 31.2187 25.3125 31.2187H21.9375V29.5312H33.75V31.2187H30.375C29.9274 31.2187 29.4982 31.3965 29.1818 31.713C28.8653 32.0295 28.6875 32.4587 28.6875 32.9062V37.9687C28.6875 38.4163 28.8653 38.8455 29.1818 39.162C29.4982 39.4785 29.9274 39.6562 30.375 39.6562H33.75V41.3437H32.0625C31.8387 41.3437 31.6241 41.4326 31.4659 41.5909C31.3076 41.7491 31.2188 41.9637 31.2188 42.1875C31.2188 42.4113 31.3076 42.6259 31.4659 42.7841C31.6241 42.9423 31.8387 43.0312 32.0625 43.0312H37.125C37.3488 43.0312 37.5634 42.9423 37.7216 42.7841C37.8799 42.6259 37.9688 42.4113 37.9688 42.1875C37.9688 41.9637 37.8799 41.7491 37.7216 41.5909C37.5634 41.4326 37.3488 41.3437 37.125 41.3437H35.4375V39.6562H38.8125C39.2601 39.6562 39.6893 39.4785 40.0057 39.162C40.3222 38.8455 40.5 38.4163 40.5 37.9687V32.9062C40.5 32.4587 40.3222 32.0295 40.0057 31.713C39.6893 31.3965 39.2601 31.2187 38.8125 31.2187H35.4375V28.6875C35.4375 28.4637 35.3486 28.2491 35.1904 28.0909C35.0321 27.9326 34.8175 27.8437 34.5938 27.8437H21.9375V25.3125H32.4844C34.3865 25.3125 36.2107 24.5569 37.5557 23.2119C38.9006 21.8669 39.6562 20.0427 39.6562 18.1406C39.6562 16.2385 38.9006 14.4143 37.5557 13.0693C36.2107 11.7243 34.3865 10.9687 32.4844 10.9687C32.3333 10.9687 32.1823 10.9738 32.0313 10.9831C31.8227 8.22502 30.5799 5.64756 28.5517 3.76691C26.5235 1.88627 23.8597 0.841309 21.0938 0.841309C18.3278 0.841309 15.664 1.88627 13.6358 3.76691C11.6076 5.64756 10.3648 8.22502 10.1562 10.9831C10.0052 10.9738 9.85416 10.9687 9.70312 10.9687C7.80103 10.9687 5.97683 11.7243 4.63184 13.0693C3.28686 14.4143 2.53125 16.2385 2.53125 18.1406C2.53125 20.0427 3.28686 21.8669 4.63184 23.2119C5.97683 24.5569 7.80103 25.3125 9.70312 25.3125H20.25V27.8437H7.59375C7.36997 27.8437 7.15536 27.9326 6.99713 28.0909C6.83889 28.2491 6.75 28.4637 6.75 28.6875V31.2187H3.375C2.92745 31.2187 2.49822 31.3965 2.18176 31.713C1.86529 32.0295 1.6875 32.4587 1.6875 32.9062V37.9687C1.6875 38.4163 1.86529 38.8455 2.18176 39.162C2.49822 39.4785 2.92745 39.6562 3.375 39.6562ZM25.3125 37.9687H16.875V32.9062H25.3125V37.9687ZM38.8125 37.9687H30.375V32.9062H38.8125V37.9687ZM4.21875 18.1406C4.21863 17.3267 4.39966 16.523 4.74873 15.7877C5.09779 15.0525 5.60612 14.4041 6.23686 13.8897C6.86759 13.3753 7.60491 13.0077 8.39534 12.8136C9.18577 12.6196 10.0095 12.6038 10.8067 12.7676C10.9308 12.793 11.0589 12.7901 11.1816 12.7592C11.3044 12.7283 11.4186 12.6702 11.5158 12.5891C11.6131 12.5081 11.6908 12.4062 11.7433 12.2911C11.7959 12.1759 11.8218 12.0504 11.8193 11.9239L11.8125 11.8125C11.8135 9.35095 12.7923 6.99063 14.5336 5.25077C15.3958 4.38928 16.4192 3.70604 17.5455 3.24008C18.6717 2.77411 19.8787 2.53454 21.0975 2.53504C22.3164 2.53554 23.5232 2.7761 24.649 3.24298C25.7749 3.70987 26.7978 4.39394 27.6593 5.25614C28.5208 6.11833 29.204 7.14177 29.67 8.26801C30.1359 9.39426 30.3755 10.6013 30.375 11.8201C30.3555 11.9543 30.3686 12.0913 30.4133 12.2194C30.458 12.3475 30.5329 12.4629 30.6316 12.5559C30.7304 12.6489 30.8502 12.7167 30.9807 12.7535C31.1113 12.7904 31.2488 12.7952 31.3816 12.7676C32.1327 12.6139 32.9077 12.6194 33.6566 12.7837C34.4055 12.948 35.1116 13.2675 35.7294 13.7216C36.3471 14.1756 36.8628 14.7542 37.2432 15.4199C37.6235 16.0856 37.8601 16.8236 37.9375 17.5864C38.015 18.3492 37.9317 19.1197 37.693 19.8483C37.4542 20.5769 37.0654 21.2473 36.5516 21.8163C36.0377 22.3854 35.4103 22.8403 34.7097 23.1518C34.0092 23.4634 33.2511 23.6246 32.4844 23.625H9.70312C8.24913 23.6232 6.85519 23.0448 5.82706 22.0167C4.79893 20.9885 4.22054 19.5946 4.21875 18.1406ZM3.375 32.9062H11.8125V37.9687H3.375V32.9062Z" fill="#913BFF"/>
<path d="M32.4844 16.0312C32.7614 16.0312 33.0357 16.0858 33.2916 16.1918C33.5475 16.2978 33.7801 16.4532 33.9759 16.6491C34.1718 16.8449 34.3272 17.0775 34.4332 17.3334C34.5392 17.5893 34.5938 17.8636 34.5938 18.1406C34.5938 18.3644 34.6826 18.579 34.8409 18.7372C34.9991 18.8955 35.2137 18.9844 35.4375 18.9844C35.6613 18.9844 35.8759 18.8955 36.0341 18.7372C36.1924 18.579 36.2812 18.3644 36.2812 18.1406C36.2801 17.134 35.8797 16.1689 35.1679 15.4571C34.4561 14.7453 33.491 14.3449 32.4844 14.3438C32.2606 14.3438 32.046 14.4326 31.8878 14.5909C31.7295 14.7491 31.6406 14.9637 31.6406 15.1875C31.6406 15.4113 31.7295 15.6259 31.8878 15.7841C32.046 15.9424 32.2606 16.0312 32.4844 16.0312Z" fill="#913BFF"/>
<path d="M27 11.7408C27.0027 11.9628 27.0927 12.1748 27.2507 12.3309C27.4086 12.4869 27.6217 12.5744 27.8438 12.5744H27.8547C28.0782 12.5715 28.2914 12.4801 28.4475 12.3201C28.6037 12.1602 28.69 11.9449 28.6875 11.7214C28.6564 9.7255 27.8434 7.8215 26.4235 6.41858C25.0035 5.01566 23.0899 4.2258 21.0938 4.21875C20.87 4.21875 20.6554 4.30764 20.4971 4.46588C20.3389 4.62411 20.25 4.83872 20.25 5.0625C20.25 5.28628 20.3389 5.50089 20.4971 5.65912C20.6554 5.81735 20.87 5.90625 21.0938 5.90625C22.6462 5.91158 24.1345 6.52576 25.239 7.61677C26.3434 8.70778 26.9757 10.1885 27 11.7408Z" fill="#913BFF"/>
</svg>
