<svg width="54" height="54" viewBox="0 0 54 54" fill="none" xmlns="http://www.w3.org/2000/svg">
<g clip-path="url(#clip0_249_1508)">
<path d="M45.7853 17.1469L31.466 31.4662C31.3077 31.6244 31.2188 31.839 31.2188 32.0628V52.3128C31.2188 52.5365 31.3076 52.7511 31.4659 52.9094C31.6241 53.0676 31.8387 53.1565 32.0625 53.1565C36.2345 53.1566 40.3129 51.9195 43.7819 49.6017C47.2508 47.2839 49.9545 43.9895 51.5511 40.1351C53.1477 36.2806 53.5654 32.0393 52.7515 27.9474C51.9375 23.8556 49.9284 20.097 46.9783 17.1469C46.8201 16.9888 46.6055 16.8999 46.3818 16.8999C46.1581 16.8999 45.9435 16.9888 45.7853 17.1469Z" fill="#F4EBFF"/>
<path d="M28.5019 47.6813C28.6255 47.7092 28.7537 47.7089 28.8772 47.6804C29.0006 47.6519 29.116 47.596 29.2149 47.5168C29.3138 47.4377 29.3936 47.3372 29.4483 47.223C29.5031 47.1088 29.5314 46.9837 29.5313 46.857V17.2684C29.5314 17.1417 29.5031 17.0166 29.4483 16.9023C29.3936 16.7881 29.3138 16.6877 29.2149 16.6085C29.116 16.5293 29.0006 16.4734 28.8772 16.4449C28.7537 16.4165 28.6255 16.4161 28.5019 16.444C24.9605 17.248 21.7974 19.2316 19.5315 22.0695C17.2657 24.9074 16.0315 28.4311 16.0315 32.0627C16.0315 35.6942 17.2657 39.2179 19.5315 42.0558C21.7974 44.8937 24.9605 46.8774 28.5019 47.6813Z" fill="#F4EBFF"/>
<path d="M40.5886 18.5009C38.0392 16.8839 35.0815 16.0272 32.0625 16.0313C31.8387 16.0313 31.6241 16.1202 31.4659 16.2784C31.3076 16.4366 31.2188 16.6512 31.2188 16.875V29.3262L40.7337 19.8113C40.8233 19.7218 40.8917 19.6133 40.9337 19.4939C40.9757 19.3744 40.9902 19.247 40.9763 19.1212C40.9624 18.9953 40.9203 18.8742 40.8532 18.7669C40.786 18.6595 40.6956 18.5686 40.5886 18.5009Z" fill="#F4EBFF"/>
<path d="M42.1875 41.3438H37.9688V5.90625C37.9688 5.23492 37.7021 4.59109 37.2274 4.11639C36.7527 3.64168 36.1088 3.375 35.4375 3.375H33.75C33.0787 3.375 32.4348 3.64168 31.9601 4.11639C31.4854 4.59109 31.2188 5.23492 31.2188 5.90625V41.3438H29.5312V31.2188C29.5312 30.5474 29.2646 29.9036 28.7899 29.4289C28.3152 28.9542 27.6713 28.6875 27 28.6875H25.3125C24.6412 28.6875 23.9973 28.9542 23.5226 29.4289C23.0479 29.9036 22.7812 30.5474 22.7812 31.2188V41.3438H21.0938V13.5C21.0938 12.8287 20.8271 12.1848 20.3524 11.7101C19.8777 11.2354 19.2338 10.9688 18.5625 10.9688H16.875C16.2037 10.9688 15.5598 11.2354 15.0851 11.7101C14.6104 12.1848 14.3438 12.8287 14.3438 13.5V41.3438H12.6562V23.625C12.6562 22.9537 12.3896 22.3098 11.9149 21.8351C11.4402 21.3604 10.7963 21.0938 10.125 21.0938H8.4375C7.76617 21.0938 7.12234 21.3604 6.64764 21.8351C6.17293 22.3098 5.90625 22.9537 5.90625 23.625V41.3438H2.53125V1.6875C2.53125 1.46372 2.44236 1.24911 2.28412 1.09088C2.12589 0.932645 1.91128 0.84375 1.6875 0.84375C1.46372 0.84375 1.24911 0.932645 1.09088 1.09088C0.932645 1.24911 0.84375 1.46372 0.84375 1.6875V42.1875C0.84375 42.4113 0.932645 42.6259 1.09088 42.7841C1.24911 42.9424 1.46372 43.0312 1.6875 43.0312H42.1875C42.4113 43.0312 42.6259 42.9424 42.7841 42.7841C42.9424 42.6259 43.0312 42.4113 43.0312 42.1875C43.0312 41.9637 42.9424 41.7491 42.7841 41.5909C42.6259 41.4326 42.4113 41.3438 42.1875 41.3438ZM32.9062 5.90625C32.9062 5.68247 32.9951 5.46786 33.1534 5.30963C33.3116 5.15139 33.5262 5.0625 33.75 5.0625H35.4375C35.6613 5.0625 35.8759 5.15139 36.0341 5.30963C36.1924 5.46786 36.2812 5.68247 36.2812 5.90625V41.3438H32.9062V5.90625ZM24.4688 31.2188C24.4688 30.995 24.5576 30.7804 24.7159 30.6221C24.8741 30.4639 25.0887 30.375 25.3125 30.375H27C27.2238 30.375 27.4384 30.4639 27.5966 30.6221C27.7549 30.7804 27.8438 30.995 27.8438 31.2188V41.3438H24.4688V31.2188ZM16.0312 13.5C16.0312 13.2762 16.1201 13.0616 16.2784 12.9034C16.4366 12.7451 16.6512 12.6562 16.875 12.6562H18.5625C18.7863 12.6562 19.0009 12.7451 19.1591 12.9034C19.3174 13.0616 19.4062 13.2762 19.4062 13.5V41.3438H16.0312V13.5ZM7.59375 23.625C7.59375 23.4012 7.68264 23.1866 7.84088 23.0284C7.99911 22.8701 8.21372 22.7812 8.4375 22.7812H10.125C10.3488 22.7812 10.5634 22.8701 10.7216 23.0284C10.8799 23.1866 10.9688 23.4012 10.9688 23.625V41.3438H7.59375V23.625Z" fill="#913BFF"/>
</g>
<defs>
<clipPath id="clip0_249_1508">
<rect width="54" height="54" fill="white"/>
</clipPath>
</defs>
</svg>
